<?xml version="1.0" encoding="UTF-8"?>
<!DOCTYPE svg PUBLIC "-//W3C//DTD SVG 1.1//EN" "http://www.w3.org/Graphics/SVG/1.1/DTD/svg11.dtd">
<svg xmlns="http://www.w3.org/2000/svg" xmlns:xlink="http://www.w3.org/1999/xlink">
  <defs/>
<!--
Font Awesome Pro 5.6.1 by @fontawesome - https://fontawesome.com
License - https://fontawesome.com/license (Commercial License)
-->

  <svg id="arrow-left" viewBox="0 0 448 512">
    <title id="arrow-left-title">arrow-left</title>
    <path d="M257.5 445.1l-22.2 22.2c-9.4 9.4-24.6 9.4-33.9 0L7 273c-9.4-9.4-9.4-24.6 0-33.9L201.4 44.7c9.4-9.4 24.6-9.4 33.9 0l22.2 22.2c9.5 9.5 9.3 25-.4 34.3L136.6 216H424c13.3 0 24 10.7 24 24v32c0 13.3-10.7 24-24 24H136.6l120.5 114.8c9.8 9.3 10 24.8.4 34.3z"></path>
  </svg>

    <svg id="arrow-right" viewBox="0 0 448 512">
    <title id="arrow-right-title">arrow-right</title>
    <path d="M190.5 66.9l22.2-22.2c9.4-9.4 24.6-9.4 33.9 0L441 239c9.4 9.4 9.4 24.6 0 33.9L246.6 467.3c-9.4 9.4-24.6 9.4-33.9 0l-22.2-22.2c-9.5-9.5-9.3-25 .4-34.3L311.4 296H24c-13.3 0-24-10.7-24-24v-32c0-13.3 10.7-24 24-24h287.4L190.9 101.2c-9.8-9.3-10-24.8-.4-34.3z"></path>
  </svg>

  <svg id="arrow-to-bottom" viewBox="0 0 384 512">
    <title id="arrow-to-bottom-title">Arrow to Bottom</title>
    <path d="M360 480H24c-13.3 0-24-10.7-24-24v-24c0-13.3 10.7-24 24-24h336c13.3 0 24 10.7 24 24v24c0 13.3-10.7 24-24 24zm-66.4-280.5L228 265.1V56c0-13.3-10.7-24-24-24h-24c-13.3 0-24 10.7-24 24v209.1l-65.6-65.6c-9.4-9.4-24.6-9.4-33.9 0l-17 17c-9.4 9.4-9.4 24.6 0 33.9L175 385.9c9.4 9.4 24.6 9.4 33.9 0l135.5-135.5c9.4-9.4 9.4-24.6 0-33.9l-17-17c-9.3-9.4-24.5-9.4-33.8 0z"></path>
  </svg>

  <svg id="arrow-to-top" viewBox="0 0 384 512">
    <title id="arrow-to-top-title">Arrow to Top</title>
    <path d="M24 32h336c13.3 0 24 10.7 24 24v24c0 13.3-10.7 24-24 24H24C10.7 104 0 93.3 0 80V56c0-13.3 10.7-24 24-24zm66.4 280.5l65.6-65.6V456c0 13.3 10.7 24 24 24h24c13.3 0 24-10.7 24-24V246.9l65.6 65.6c9.4 9.4 24.6 9.4 33.9 0l17-17c9.4-9.4 9.4-24.6 0-33.9L209 126.1c-9.4-9.4-24.6-9.4-33.9 0L39.5 261.6c-9.4 9.4-9.4 24.6 0 33.9l17 17c9.4 9.4 24.6 9.4 33.9 0z"></path>
  </svg>

  <svg id="bell" viewBox="0 0 448 512">
    <title id="bell-title">bell</title>
    <path d="M224 512c35.32 0 63.97-28.65 63.97-64H160.03c0 35.35 28.65 64 63.97 64zm215.39-149.71c-19.32-20.76-55.47-51.99-55.47-154.29 0-77.7-54.48-139.9-127.94-155.16V32c0-17.67-14.32-32-31.98-32s-31.98 14.33-31.98 32v20.84C118.56 68.1 64.08 130.3 64.08 208c0 102.3-36.15 133.53-55.47 154.29-6 6.45-8.66 14.16-8.61 21.71.11 16.4 12.98 32 32.1 32h383.8c19.12 0 32-15.6 32.1-32 .05-7.55-2.61-15.27-8.61-21.71z"></path>
  </svg>

  <svg id="exclamation-circle" viewBox="0 0 512 512">
    <title id="exclamation-circle-title">Exclamation Circle</title>
    <path d="M504 256c0 136.997-111.043 248-248 248S8 392.997 8 256C8 119.083 119.043 8 256 8s248 111.083 248 248zm-248 50c-25.405 0-46 20.595-46 46s20.595 46 46 46 46-20.595 46-46-20.595-46-46-46zm-43.673-165.346l7.418 136c.347 6.364 5.609 11.346 11.982 11.346h48.546c6.373 0 11.635-4.982 11.982-11.346l7.418-136c.375-6.874-5.098-12.654-11.982-12.654h-63.383c-6.884 0-12.356 5.78-11.981 12.654z"></path>
  </svg>

  <svg id="level-down-alt" viewBox="0 0 320 512">
    <title id="level-down-alt-title">Alternate Level Down</title>
    <path d="M313.553 392.331L209.587 504.334c-9.485 10.214-25.676 10.229-35.174 0L70.438 392.331C56.232 377.031 67.062 352 88.025 352H152V80H68.024a11.996 11.996 0 0 1-8.485-3.515l-56-56C-4.021 12.926 1.333 0 12.024 0H208c13.255 0 24 10.745 24 24v328h63.966c20.878 0 31.851 24.969 17.587 40.331z"></path>
  </svg>

  <svg id="level-up-alt" viewBox="0 0 320 512">
    <title id="level-up-alt-title">Alternate Level Up</title>
    <path d="M313.553 119.669L209.587 7.666c-9.485-10.214-25.676-10.229-35.174 0L70.438 119.669C56.232 134.969 67.062 160 88.025 160H152v272H68.024a11.996 11.996 0 0 0-8.485 3.515l-56 56C-4.021 499.074 1.333 512 12.024 512H208c13.255 0 24-10.745 24-24V160h63.966c20.878 0 31.851-24.969 17.587-40.331z"></path>
  </svg>

  <svg id="long-arrow-alt-down" viewBox="0 0 256 512">
    <title id="long-arrow-alt-down-title">Alternate Long Arrow Down</title>
    <path d="M168 345.941V44c0-6.627-5.373-12-12-12h-56c-6.627 0-12 5.373-12 12v301.941H41.941c-21.382 0-32.09 25.851-16.971 40.971l86.059 86.059c9.373 9.373 24.569 9.373 33.941 0l86.059-86.059c15.119-15.119 4.411-40.971-16.971-40.971H168z"></path>
  </svg>

  <svg id="long-arrow-alt-up" viewBox="0 0 256 512">
    <title id="long-arrow-alt-up-title">Alternate Long Arrow Up</title>
    <path d="M88 166.059V468c0 6.627 5.373 12 12 12h56c6.627 0 12-5.373 12-12V166.059h46.059c21.382 0 32.09-25.851 16.971-40.971l-86.059-86.059c-9.373-9.373-24.569-9.373-33.941 0l-86.059 86.059c-15.119 15.119-4.411 40.971 16.971 40.971H88z"></path>
  </svg>

  <svg id="long-arrow-right" viewBox="0 0 448 512">
    <title id="long-arrow-right-title">Long Arrow Right</title>
    <path d="M254.544 154.427L320.118 220H24c-13.255 0-24 10.745-24 24v24c0 13.255 10.745 24 24 24h296.118l-65.574 65.573c-9.373 9.373-9.373 24.569 0 33.941l16.971 16.971c9.373 9.373 24.569 9.373 33.941 0L440.97 272.97c9.373-9.373 9.373-24.569 0-33.941L305.456 103.515c-9.373-9.373-24.569-9.373-33.941 0l-16.971 16.971c-9.373 9.372-9.373 24.568 0 33.941z"></path>
  </svg>

  <svg id="plus-circle" viewBox="0 0 512 512">
    <title id="plus-circle-title">Plus Circle</title>
    <path d="M256 8C119 8 8 119 8 256s111 248 248 248 248-111 248-248S393 8 256 8zm144 276c0 6.6-5.4 12-12 12h-92v92c0 6.6-5.4 12-12 12h-56c-6.6 0-12-5.4-12-12v-92h-92c-6.6 0-12-5.4-12-12v-56c0-6.6 5.4-12 12-12h92v-92c0-6.6 5.4-12 12-12h56c6.6 0 12 5.4 12 12v92h92c6.6 0 12 5.4 12 12v56z"></path>
  </svg>

  <svg id="times-circle" viewBox="0 0 512 512">
    <title id="times-circle-title">Times Circle</title>
    <path d="M256 8C119 8 8 119 8 256s111 248 248 248 248-111 248-248S393 8 256 8zm121.6 313.1c4.7 4.7 4.7 12.3 0 17L338 377.6c-4.7 4.7-12.3 4.7-17 0L256 312l-65.1 65.6c-4.7 4.7-12.3 4.7-17 0L134.4 338c-4.7-4.7-4.7-12.3 0-17l65.6-65-65.6-65.1c-4.7-4.7-4.7-12.3 0-17l39.6-39.6c4.7-4.7 12.3-4.7 17 0l65 65.7 65.1-65.6c4.7-4.7 12.3-4.7 17 0l39.6 39.6c4.7 4.7 4.7 12.3 0 17L312 256l65.6 65.1z"></path>
  </svg>
</svg>
