<?xml version="1.0" encoding="UTF-8"?>
<!DOCTYPE svg PUBLIC "-//W3C//DTD SVG 1.1//EN" "http://www.w3.org/Graphics/SVG/1.1/DTD/svg11.dtd">
<svg xmlns="http://www.w3.org/2000/svg" xmlns:xlink="http://www.w3.org/1999/xlink">
  <defs/>
<!--
Font Awesome Pro 5.6.1 by @fontawesome - https://fontawesome.com
License - https://fontawesome.com/license (Commercial License)
-->

  <svg id="arrow-circle-left" viewBox="0 0 512 512">
    <title id="arrow-circle-left-title">Arrow Circle Left</title>
    <path d="M504 256C504 119 393 8 256 8S8 119 8 256s111 248 248 248 248-111 248-248zM256 472c-118.7 0-216-96.1-216-216 0-118.7 96.1-216 216-216 118.7 0 216 96.1 216 216 0 118.7-96.1 216-216 216zm-12.5-92.5l-115.1-115c-4.7-4.7-4.7-12.3 0-17l115.1-115c4.7-4.7 12.3-4.7 17 0l6.9 6.9c4.7 4.7 4.7 12.5-.2 17.1L181.7 239H372c6.6 0 12 5.4 12 12v10c0 6.6-5.4 12-12 12H181.7l85.6 82.5c4.8 4.7 4.9 12.4.2 17.1l-6.9 6.9c-4.8 4.7-12.4 4.7-17.1 0z"></path>
  </svg>

  <svg id="arrow-circle-right" viewBox="0 0 512 512">
    <title id="arrow-circle-right-title">Arrow Circle Right</title>
    <path d="M8 256c0 137 111 248 248 248s248-111 248-248S393 8 256 8 8 119 8 256zM256 40c118.7 0 216 96.1 216 216 0 118.7-96.1 216-216 216-118.7 0-216-96.1-216-216 0-118.7 96.1-216 216-216zm12.5 92.5l115.1 115c4.7 4.7 4.7 12.3 0 17l-115.1 115c-4.7 4.7-12.3 4.7-17 0l-6.9-6.9c-4.7-4.7-4.7-12.5.2-17.1l85.6-82.5H140c-6.6 0-12-5.4-12-12v-10c0-6.6 5.4-12 12-12h190.3l-85.6-82.5c-4.8-4.7-4.9-12.4-.2-17.1l6.9-6.9c4.8-4.7 12.4-4.7 17.1 0z"></path>
  </svg>

  <svg id="arrow-left" viewBox="0 0 448 512">
    <title id="arrow-left-title">arrow-left</title>
    <path d="M231.536 475.535l7.071-7.07c4.686-4.686 4.686-12.284 0-16.971L60.113 273H436c6.627 0 12-5.373 12-12v-10c0-6.627-5.373-12-12-12H60.113L238.607 60.506c4.686-4.686 4.686-12.284 0-16.971l-7.071-7.07c-4.686-4.686-12.284-4.686-16.97 0L3.515 247.515c-4.686 4.686-4.686 12.284 0 16.971l211.051 211.05c4.686 4.686 12.284 4.686 16.97-.001z"></path>
  </svg>

  <svg id="backspace" viewBox="0 0 640 512">
    <title id="backspace-title">Backspace</title>
    <path d="M469.66 181.65l-11.31-11.31c-3.12-3.12-8.19-3.12-11.31 0L384 233.37l-63.03-63.03c-3.12-3.12-8.19-3.12-11.31 0l-11.31 11.31c-3.12 3.12-3.12 8.19 0 11.31L361.38 256l-63.03 63.03c-3.12 3.12-3.12 8.19 0 11.31l11.31 11.31c3.12 3.12 8.19 3.12 11.31 0L384 278.63l63.03 63.03c3.12 3.12 8.19 3.12 11.31 0l11.31-11.31c3.12-3.12 3.12-8.19 0-11.31L406.63 256l63.03-63.03a8.015 8.015 0 0 0 0-11.32zM576 64H205.26C188.28 64 172 70.74 160 82.74L9.37 233.37c-12.5 12.5-12.5 32.76 0 45.25L160 429.25c12 12 28.28 18.75 45.25 18.75H576c35.35 0 64-28.65 64-64V128c0-35.35-28.65-64-64-64zm32 320c0 17.64-14.36 32-32 32H205.26c-8.55 0-16.58-3.33-22.63-9.37L32 256l150.63-150.63c6.04-6.04 14.08-9.37 22.63-9.37H576c17.64 0 32 14.36 32 32v256z"></path>
  </svg>

  <svg id="ban" viewBox="0 0 512 512">
    <title id="ban-title">ban</title>
    <path d="M256 8C119.033 8 8 119.033 8 256s111.033 248 248 248 248-111.033 248-248S392.967 8 256 8zM103.265 408.735c-80.622-80.622-84.149-208.957-10.9-293.743l304.644 304.643c-84.804 73.264-213.138 69.706-293.744-10.9zm316.37-11.727L114.992 92.365c84.804-73.263 213.137-69.705 293.743 10.9 80.622 80.621 84.149 208.957 10.9 293.743z"></path>
  </svg>

  <svg id="book" viewBox="0 0 448 512">
    <title id="book-title">book</title>
    <path d="M356 160H188c-6.6 0-12-5.4-12-12v-8c0-6.6 5.4-12 12-12h168c6.6 0 12 5.4 12 12v8c0 6.6-5.4 12-12 12zm12 52v-8c0-6.6-5.4-12-12-12H188c-6.6 0-12 5.4-12 12v8c0 6.6 5.4 12 12 12h168c6.6 0 12-5.4 12-12zm64.7 268h3.3c6.6 0 12 5.4 12 12v8c0 6.6-5.4 12-12 12H80c-44.2 0-80-35.8-80-80V80C0 35.8 35.8 0 80 0h344c13.3 0 24 10.7 24 24v368c0 10-6.2 18.6-14.9 22.2-3.6 16.1-4.4 45.6-.4 65.8zM128 384h288V32H128v352zm-96 16c13.4-10 30-16 48-16h16V32H80c-26.5 0-48 21.5-48 48v320zm372.3 80c-3.1-20.4-2.9-45.2 0-64H80c-64 0-64 64 0 64h324.3z"></path>
  </svg>

  <svg id="book-open" viewBox="0 0 576 512">
    <title id="book-open-title">Book Open</title>
    <path d="M514.91 32h-.16c-24.08.12-144.75 8.83-219.56 48.09-4.05 2.12-10.33 2.12-14.38 0C205.99 40.83 85.32 32.12 61.25 32h-.16C27.4 32 0 58.47 0 91.01v296.7c0 31.41 25.41 57.28 57.85 58.9 34.77 1.76 122.03 8.26 181.89 30.37 5.27 1.95 10.64 3.02 16.25 3.02h64c5.62 0 10.99-1.08 16.26-3.02 59.87-22.11 147.12-28.61 181.92-30.37 32.41-1.62 57.82-27.48 57.82-58.89V91.01C576 58.47 548.6 32 514.91 32zM272 433c0 8.61-7.14 15.13-15.26 15.13-1.77 0-3.59-.31-5.39-.98-62.45-23.21-148.99-30.33-191.91-32.51-15.39-.77-27.44-12.6-27.44-26.93V91.01c0-14.89 13.06-27 29.09-27 19.28.1 122.46 7.38 192.12 38.29 11.26 5 18.64 15.75 18.66 27.84l.13 100.32V433zm272-45.29c0 14.33-12.05 26.16-27.45 26.93-42.92 2.18-129.46 9.3-191.91 32.51-1.8.67-3.62.98-5.39.98-8.11 0-15.26-6.52-15.26-15.13V230.46l.13-100.32c.01-12.09 7.4-22.84 18.66-27.84 69.66-30.91 172.84-38.19 192.12-38.29 16.03 0 29.09 12.11 29.09 27v296.7z"></path>
  </svg>

  <svg id="calendar-exclamation" viewBox="0 0 448 512">
    <title id="calendar-exclamation-title">Calendar Exclamation</title>
    <path d="M400 64h-48V12c0-6.6-5.4-12-12-12h-8c-6.6 0-12 5.4-12 12v52H128V12c0-6.6-5.4-12-12-12h-8c-6.6 0-12 5.4-12 12v52H48C21.5 64 0 85.5 0 112v352c0 26.5 21.5 48 48 48h352c26.5 0 48-21.5 48-48V112c0-26.5-21.5-48-48-48zM48 96h352c8.8 0 16 7.2 16 16v48H32v-48c0-8.8 7.2-16 16-16zm352 384H48c-8.8 0-16-7.2-16-16V192h384v272c0 8.8-7.2 16-16 16zM212.7 224h22.6c6.9 0 12.4 5.8 12 12.7l-6.7 120c-.4 6.4-5.6 11.3-12 11.3h-9.3c-6.4 0-11.6-5-12-11.3l-6.7-120c-.3-6.9 5.2-12.7 12.1-12.7zM252 416c0 15.5-12.5 28-28 28s-28-12.5-28-28 12.5-28 28-28 28 12.5 28 28z"></path>
  </svg>

  <svg id="chart-line" viewBox="0 0 512 512">
    <title id="chart-line-title">Line Chart</title>
    <path d="M504 416H32V72c0-4.42-3.58-8-8-8H8c-4.42 0-8 3.58-8 8v360c0 8.84 7.16 16 16 16h488c4.42 0 8-3.58 8-8v-16c0-4.42-3.58-8-8-8zM98.34 263.03c-3.12 3.12-3.12 8.19 0 11.31l11.31 11.31c3.12 3.12 8.19 3.12 11.31 0l72.69-72.01 84.69 84.69c6.25 6.25 16.38 6.25 22.63 0l93.53-93.53 44.04 44.04c4.95 4.95 11.03 7.16 17 7.16 12.48 0 24.46-9.7 24.46-24.34V112.19c0-8.94-7.25-16.19-16.19-16.19H344.34c-21.64 0-32.47 26.16-17.17 41.46l44.71 44.71-82.22 82.22-84.63-84.63c-6.23-6.23-16.32-6.25-22.57-.05l-84.12 83.32zM362.96 128H448v85.04L362.96 128z"></path>
  </svg>

  <svg id="check" viewBox="0 0 448 512">
    <title id="check-title">Check</title>
    <path d="M413.505 91.951L133.49 371.966l-98.995-98.995c-4.686-4.686-12.284-4.686-16.971 0L6.211 284.284c-4.686 4.686-4.686 12.284 0 16.971l118.794 118.794c4.686 4.686 12.284 4.686 16.971 0l299.813-299.813c4.686-4.686 4.686-12.284 0-16.971l-11.314-11.314c-4.686-4.686-12.284-4.686-16.97 0z"></path>
  </svg>

  <svg id="check-circle" viewBox="0 0 512 512">
    <title id="check-circle-title">Check Circle</title>
    <path d="M256 8C119.033 8 8 119.033 8 256s111.033 248 248 248 248-111.033 248-248S392.967 8 256 8zm0 464c-118.664 0-216-96.055-216-216 0-118.663 96.055-216 216-216 118.664 0 216 96.055 216 216 0 118.663-96.055 216-216 216zm141.63-274.961L217.15 376.071c-4.705 4.667-12.303 4.637-16.97-.068l-85.878-86.572c-4.667-4.705-4.637-12.303.068-16.97l8.52-8.451c4.705-4.667 12.303-4.637 16.97.068l68.976 69.533 163.441-162.13c4.705-4.667 12.303-4.637 16.97.068l8.451 8.52c4.668 4.705 4.637 12.303-.068 16.97z"></path>
  </svg>

  <svg id="chevron-down" viewBox="0 0 448 512">
    <title id="chevron-down-title">chevron-down</title>
    <path d="M443.5 162.6l-7.1-7.1c-4.7-4.7-12.3-4.7-17 0L224 351 28.5 155.5c-4.7-4.7-12.3-4.7-17 0l-7.1 7.1c-4.7 4.7-4.7 12.3 0 17l211 211.1c4.7 4.7 12.3 4.7 17 0l211-211.1c4.8-4.7 4.8-12.3.1-17z"></path>
  </svg>

  <svg id="chevron-left" viewBox="0 0 256 512">
    <title id="chevron-left-title">chevron-left</title>
    <path d="M238.475 475.535l7.071-7.07c4.686-4.686 4.686-12.284 0-16.971L50.053 256 245.546 60.506c4.686-4.686 4.686-12.284 0-16.971l-7.071-7.07c-4.686-4.686-12.284-4.686-16.97 0L10.454 247.515c-4.686 4.686-4.686 12.284 0 16.971l211.051 211.05c4.686 4.686 12.284 4.686 16.97-.001z"></path>
  </svg>

  <svg id="chevron-right" viewBox="0 0 256 512">
    <title id="chevron-right-title">chevron-right</title>
    <path d="M17.525 36.465l-7.071 7.07c-4.686 4.686-4.686 12.284 0 16.971L205.947 256 10.454 451.494c-4.686 4.686-4.686 12.284 0 16.971l7.071 7.07c4.686 4.686 12.284 4.686 16.97 0l211.051-211.05c4.686-4.686 4.686-12.284 0-16.971L34.495 36.465c-4.686-4.687-12.284-4.687-16.97 0z"></path>
  </svg>

  <svg id="clipboard" viewBox="0 0 384 512">
    <title id="clipboard-title">Clipboard</title>
    <path d="M336 64h-88.581c.375-2.614.581-5.283.581-8 0-30.879-25.122-56-56-56s-56 25.121-56 56c0 2.717.205 5.386.581 8H48C21.49 64 0 85.49 0 112v352c0 26.51 21.49 48 48 48h288c26.51 0 48-21.49 48-48V112c0-26.51-21.49-48-48-48zm16 400c0 8.822-7.178 16-16 16H48c-8.822 0-16-7.178-16-16V112c0-8.822 7.178-16 16-16h48v20c0 6.627 5.373 12 12 12h168c6.627 0 12-5.373 12-12V96h48c8.822 0 16 7.178 16 16v352zM192 32c13.255 0 24 10.745 24 24s-10.745 24-24 24-24-10.745-24-24 10.745-24 24-24"></path>
  </svg>

  <svg id="clock" viewBox="0 0 512 512">
    <title id="clock-title">Clock</title>
    <path d="M256 8C119 8 8 119 8 256s111 248 248 248 248-111 248-248S393 8 256 8zm216 248c0 118.7-96.1 216-216 216-118.7 0-216-96.1-216-216 0-118.7 96.1-216 216-216 118.7 0 216 96.1 216 216zm-148.9 88.3l-81.2-59c-3.1-2.3-4.9-5.9-4.9-9.7V116c0-6.6 5.4-12 12-12h14c6.6 0 12 5.4 12 12v146.3l70.5 51.3c5.4 3.9 6.5 11.4 2.6 16.8l-8.2 11.3c-3.9 5.3-11.4 6.5-16.8 2.6z"></path>
  </svg>

  <svg id="cloud-download" viewBox="0 0 640 512">
    <title id="cloud-download-title">Cloud Download</title>
    <path d="M571.7 238.8c2.8-9.9 4.3-20.2 4.3-30.8 0-61.9-50.1-112-112-112-16.7 0-32.9 3.6-48 10.8-31.6-45-84.3-74.8-144-74.8-94.4 0-171.7 74.5-175.8 168.2C39.2 220.2 0 274.3 0 336c0 79.6 64.4 144 144 144h368c70.7 0 128-57.2 128-128 0-47-25.8-90.8-68.3-113.2zM512 448H144c-61.9 0-112-50.1-112-112 0-56.8 42.2-103.7 97-111-.7-5.6-1-11.3-1-17 0-79.5 64.5-144 144-144 60.3 0 111.9 37 133.4 89.6C420 137.9 440.8 128 464 128c44.2 0 80 35.8 80 80 0 18.5-6.3 35.6-16.9 49.2C573 264.4 608 304.1 608 352c0 53-43 96-96 96zM405.2 254.5c-4.7-4.7-12.3-4.7-17 0L320 322.7V172c0-6.6-5.4-12-12-12h-8c-6.6 0-12 5.4-12 12v150.7l-68.2-68.2c-4.7-4.7-12.3-4.7-17 0l-5.7 5.7c-4.7 4.7-4.7 12.3 0 17l98.3 98.3c4.7 4.7 12.3 4.7 17 0l98.3-98.3c4.7-4.7 4.7-12.3 0-17l-5.5-5.7z"></path>
  </svg>

  <svg id="cog" viewBox="0 0 512 512">
    <title id="cog-title">cog</title>
    <path d="M482.696 299.276l-32.61-18.827a195.168 195.168 0 0 0 0-48.899l32.61-18.827c9.576-5.528 14.195-16.902 11.046-27.501-11.214-37.749-31.175-71.728-57.535-99.595-7.634-8.07-19.817-9.836-29.437-4.282l-32.562 18.798a194.125 194.125 0 0 0-42.339-24.48V38.049c0-11.13-7.652-20.804-18.484-23.367-37.644-8.909-77.118-8.91-114.77 0-10.831 2.563-18.484 12.236-18.484 23.367v37.614a194.101 194.101 0 0 0-42.339 24.48L105.23 81.345c-9.621-5.554-21.804-3.788-29.437 4.282-26.36 27.867-46.321 61.847-57.535 99.595-3.149 10.599 1.47 21.972 11.046 27.501l32.61 18.827a195.168 195.168 0 0 0 0 48.899l-32.61 18.827c-9.576 5.528-14.195 16.902-11.046 27.501 11.214 37.748 31.175 71.728 57.535 99.595 7.634 8.07 19.817 9.836 29.437 4.283l32.562-18.798a194.08 194.08 0 0 0 42.339 24.479v37.614c0 11.13 7.652 20.804 18.484 23.367 37.645 8.909 77.118 8.91 114.77 0 10.831-2.563 18.484-12.236 18.484-23.367v-37.614a194.138 194.138 0 0 0 42.339-24.479l32.562 18.798c9.62 5.554 21.803 3.788 29.437-4.283 26.36-27.867 46.321-61.847 57.535-99.595 3.149-10.599-1.47-21.972-11.046-27.501zm-65.479 100.461l-46.309-26.74c-26.988 23.071-36.559 28.876-71.039 41.059v53.479a217.145 217.145 0 0 1-87.738 0v-53.479c-33.621-11.879-43.355-17.395-71.039-41.059l-46.309 26.74c-19.71-22.09-34.689-47.989-43.929-75.958l46.329-26.74c-6.535-35.417-6.538-46.644 0-82.079l-46.329-26.74c9.24-27.969 24.22-53.869 43.929-75.969l46.309 26.76c27.377-23.434 37.063-29.065 71.039-41.069V44.464a216.79 216.79 0 0 1 87.738 0v53.479c33.978 12.005 43.665 17.637 71.039 41.069l46.309-26.76c19.709 22.099 34.689 47.999 43.929 75.969l-46.329 26.74c6.536 35.426 6.538 46.644 0 82.079l46.329 26.74c-9.24 27.968-24.219 53.868-43.929 75.957zM256 160c-52.935 0-96 43.065-96 96s43.065 96 96 96 96-43.065 96-96-43.065-96-96-96zm0 160c-35.29 0-64-28.71-64-64s28.71-64 64-64 64 28.71 64 64-28.71 64-64 64z"></path>
  </svg>

  <svg id="copy" viewBox="0 0 448 512">
    <title id="copy-title">Copy</title>
    <path d="M433.941 65.941l-51.882-51.882A48 48 0 0 0 348.118 0H176c-26.51 0-48 21.49-48 48v48H48c-26.51 0-48 21.49-48 48v320c0 26.51 21.49 48 48 48h224c26.51 0 48-21.49 48-48v-48h80c26.51 0 48-21.49 48-48V99.882a48 48 0 0 0-14.059-33.941zM352 32.491a15.88 15.88 0 0 1 7.431 4.195l51.882 51.883A15.885 15.885 0 0 1 415.508 96H352V32.491zM288 464c0 8.822-7.178 16-16 16H48c-8.822 0-16-7.178-16-16V144c0-8.822 7.178-16 16-16h80v240c0 26.51 21.49 48 48 48h112v48zm128-96c0 8.822-7.178 16-16 16H176c-8.822 0-16-7.178-16-16V48c0-8.822 7.178-16 16-16h144v72c0 13.2 10.8 24 24 24h72v240z"></path>
  </svg>

  <svg id="cube" viewBox="0 0 512 512">
    <title id="cube-title">Cube</title>
    <path d="M239.1 6.3l-208 78c-18.7 7-31.1 25-31.1 45v225.1c0 18.2 10.3 34.8 26.5 42.9l208 104c13.5 6.8 29.4 6.8 42.9 0l208-104c16.3-8.1 26.5-24.8 26.5-42.9V129.3c0-20-12.4-37.9-31.1-44.9l-208-78C262 2.2 250 2.2 239.1 6.3zM256 34.2l224 84v.3l-224 97.1-224-97.1v-.3l224-84zM32 153.4l208 90.1v224.7l-208-104V153.4zm240 314.8V243.5l208-90.1v210.9L272 468.2z"></path>
  </svg>

  <svg id="ellipsis-v" viewBox="0 0 64 512">
    <title id="ellipsis-v-title">Vertical Ellipsis</title>
    <path d="M32 224c17.7 0 32 14.3 32 32s-14.3 32-32 32-32-14.3-32-32 14.3-32 32-32zM0 136c0 17.7 14.3 32 32 32s32-14.3 32-32-14.3-32-32-32-32 14.3-32 32zm0 240c0 17.7 14.3 32 32 32s32-14.3 32-32-14.3-32-32-32-32 14.3-32 32z"></path>
  </svg>

  <svg id="envelope" viewBox="0 0 512 512">
    <title id="envelope-title">Envelope</title>
    <path d="M464 64H48C21.5 64 0 85.5 0 112v288c0 26.5 21.5 48 48 48h416c26.5 0 48-21.5 48-48V112c0-26.5-21.5-48-48-48zM48 96h416c8.8 0 16 7.2 16 16v41.4c-21.9 18.5-53.2 44-150.6 121.3-16.9 13.4-50.2 45.7-73.4 45.3-23.2.4-56.6-31.9-73.4-45.3C85.2 197.4 53.9 171.9 32 153.4V112c0-8.8 7.2-16 16-16zm416 320H48c-8.8 0-16-7.2-16-16V195c22.8 18.7 58.8 47.6 130.7 104.7 20.5 16.4 56.7 52.5 93.3 52.3 36.4.3 72.3-35.5 93.3-52.3 71.9-57.1 107.9-86 130.7-104.7v205c0 8.8-7.2 16-16 16z"></path>
  </svg>

  <svg id="exchange" viewBox="0 0 512 512">
    <title id="exchange-title">Exchange</title>
    <path d="M508.485 184.485l-92.485 92c-4.687 4.686-12.284 4.686-16.97 0l-7.071-7.07c-4.687-4.686-4.687-12.284 0-16.971L452.893 192H12c-6.627 0-12-5.373-12-12v-8c0-6.627 5.373-12 12-12h440.905l-60.946-60.444c-4.687-4.686-4.687-12.284 0-16.971l7.07-7.07c4.687-4.686 12.284-4.686 16.971 0l92.485 92c4.687 4.686 4.686 12.284 0 16.97zm-504.97 160l92.485 92c4.687 4.686 12.284 4.686 16.971 0l7.07-7.07c4.687-4.686 4.687-12.284 0-16.971L59.095 352H500c6.627 0 12-5.373 12-12v-8c0-6.627-5.373-12-12-12H59.107l60.934-60.444c4.687-4.686 4.687-12.284 0-16.971l-7.071-7.07c-4.686-4.686-12.284-4.687-16.97 0l-92.485 92c-4.686 4.686-4.687 12.284 0 16.97z"></path>
  </svg>

  <svg id="exclamation-circle" viewBox="0 0 512 512">
    <title id="exclamation-circle-title">Exclamation Circle</title>
    <path d="M256 40c118.621 0 216 96.075 216 216 0 119.291-96.61 216-216 216-119.244 0-216-96.562-216-216 0-119.203 96.602-216 216-216m0-32C119.043 8 8 119.083 8 256c0 136.997 111.043 248 248 248s248-111.003 248-248C504 119.083 392.957 8 256 8zm-11.49 120h22.979c6.823 0 12.274 5.682 11.99 12.5l-7 168c-.268 6.428-5.556 11.5-11.99 11.5h-8.979c-6.433 0-11.722-5.073-11.99-11.5l-7-168c-.283-6.818 5.167-12.5 11.99-12.5zM256 340c-15.464 0-28 12.536-28 28s12.536 28 28 28 28-12.536 28-28-12.536-28-28-28z"></path>
  </svg>

  <svg id="exclamation-triangle" viewBox="0 0 576 512">
    <title id="exclamation-triangle-title">Exclamation Triangle</title>
    <path d="M270.2 160h35.5c3.4 0 6.1 2.8 6 6.2l-7.5 196c-.1 3.2-2.8 5.8-6 5.8h-20.5c-3.2 0-5.9-2.5-6-5.8l-7.5-196c-.1-3.4 2.6-6.2 6-6.2zM288 388c-15.5 0-28 12.5-28 28s12.5 28 28 28 28-12.5 28-28-12.5-28-28-28zm281.5 52L329.6 24c-18.4-32-64.7-32-83.2 0L6.5 440c-18.4 31.9 4.6 72 41.6 72H528c36.8 0 60-40 41.5-72zM528 480H48c-12.3 0-20-13.3-13.9-24l240-416c6.1-10.6 21.6-10.7 27.7 0l240 416c6.2 10.6-1.5 24-13.8 24z"></path>
  </svg>

  <svg id="external-link" viewBox="0 0 576 512">
    <title id="external-link-title">External Link</title>
    <path d="M195.515 374.828c-4.686-4.686-4.686-12.284 0-16.971l323.15-323.15-.707-.707-89.958.342c-6.627 0-12-5.373-12-12v-9.999c0-6.628 5.372-12 12-12L564 0c6.627 0 12 5.372 12 12l-.343 136c0 6.627-5.373 12-12 12h-9.999c-6.627 0-12-5.373-12-12L542 58.042l-.707-.707-323.15 323.15c-4.686 4.686-12.284 4.686-16.971 0l-5.657-5.657zm232-155.633l-8 8A12 12 0 0 0 416 235.68V464c0 8.837-7.164 16-16 16H48c-8.836 0-16-7.163-16-16V112c0-8.837 7.164-16 16-16h339.976c3.183 0 6.235-1.264 8.485-3.515l8-8c7.56-7.56 2.206-20.485-8.485-20.485H48C21.49 64 0 85.49 0 112v352c0 26.51 21.49 48 48 48h352c26.51 0 48-21.49 48-48V227.681c0-10.691-12.926-16.045-20.485-8.486z"></path>
  </svg>

  <svg id="file-alt" viewBox="0 0 384 512">
    <title id="file-alt-title">Alternate File</title>
    <path d="M369.9 97.9L286 14C277 5 264.8-.1 252.1-.1H48C21.5 0 0 21.5 0 48v416c0 26.5 21.5 48 48 48h288c26.5 0 48-21.5 48-48V131.9c0-12.7-5.1-25-14.1-34zm-22.6 22.7c2.1 2.1 3.5 4.6 4.2 7.4H256V32.5c2.8.7 5.3 2.1 7.4 4.2l83.9 83.9zM336 480H48c-8.8 0-16-7.2-16-16V48c0-8.8 7.2-16 16-16h176v104c0 13.3 10.7 24 24 24h104v304c0 8.8-7.2 16-16 16zm-48-244v8c0 6.6-5.4 12-12 12H108c-6.6 0-12-5.4-12-12v-8c0-6.6 5.4-12 12-12h168c6.6 0 12 5.4 12 12zm0 64v8c0 6.6-5.4 12-12 12H108c-6.6 0-12-5.4-12-12v-8c0-6.6 5.4-12 12-12h168c6.6 0 12 5.4 12 12zm0 64v8c0 6.6-5.4 12-12 12H108c-6.6 0-12-5.4-12-12v-8c0-6.6 5.4-12 12-12h168c6.6 0 12 5.4 12 12z"></path>
  </svg>

  <svg id="file-excel" viewBox="0 0 384 512">
    <title id="file-excel-title">Excel File</title>
    <path d="M369.9 97.9L286 14C277 5 264.8-.1 252.1-.1H48C21.5 0 0 21.5 0 48v416c0 26.5 21.5 48 48 48h288c26.5 0 48-21.5 48-48V131.9c0-12.7-5.1-25-14.1-34zm-22.6 22.7c2.1 2.1 3.5 4.6 4.2 7.4H256V32.5c2.8.7 5.3 2.1 7.4 4.2l83.9 83.9zM336 480H48c-8.8 0-16-7.2-16-16V48c0-8.8 7.2-16 16-16h176v104c0 13.3 10.7 24 24 24h104v304c0 8.8-7.2 16-16 16zM211.7 308l50.5-81.8c4.8-8-.9-18.2-10.3-18.2h-4.1c-4.1 0-7.9 2.1-10.1 5.5-31 48.5-36.4 53.5-45.7 74.5-17.2-32.2-8.4-16-45.8-74.5-2.2-3.4-6-5.5-10.1-5.5H132c-9.4 0-15.1 10.3-10.2 18.2L173 308l-59.1 89.5c-5.1 8 .6 18.5 10.1 18.5h3.5c4.1 0 7.9-2.1 10.1-5.5 37.2-58 45.3-62.5 54.4-82.5 31.5 56.7 44.3 67.2 54.4 82.6 2.2 3.4 6 5.4 10 5.4h3.6c9.5 0 15.2-10.4 10.1-18.4L211.7 308z"></path>
  </svg>

  <svg id="file-import" viewBox="0 0 512 512">
    <title id="file-import-title">File Import</title>
    <path d="M497.9 97.98L414.02 14.1c-9-9-21.2-14.1-33.89-14.1H175.99C149.5.1 128 21.6 128 48.09V288H8c-4.42 0-8 3.58-8 8v16c0 4.42 3.58 8 8 8h248v52.67c0 10.98 6.38 20.55 16.69 24.97 14.93 6.45 26.88-1.61 30.88-5.39l71.72-68.12c5.62-5.33 8.72-12.48 8.72-20.12s-3.09-14.8-8.69-20.11l-71.78-68.16c-8.28-7.8-20.41-9.88-30.84-5.38-10.31 4.42-16.69 13.98-16.69 24.97V288H160V48.09c0-8.8 7.2-16.09 16-16.09h176.04v104.07c0 13.3 10.7 23.93 24 23.93h103.98v304.01c0 8.8-7.2 16-16 16H175.99c-8.8 0-16-7.2-16-16V352H128v112.01c0 26.49 21.5 47.99 47.99 47.99h288.02c26.49 0 47.99-21.5 47.99-47.99V131.97c0-12.69-5.1-24.99-14.1-33.99zM288 245.12L350 304l-62 58.88V245.12zm96.03-117.05V32.59c2.8.7 5.3 2.1 7.4 4.2l83.88 83.88c2.1 2.1 3.5 4.6 4.2 7.4h-95.48z"></path>
  </svg>

  <svg id="file-pdf" viewBox="0 0 384 512">
    <title id="file-pdf-title">PDF File</title>
    <path d="M369.9 97.9L286 14C277 5 264.8-.1 252.1-.1H48C21.5 0 0 21.5 0 48v416c0 26.5 21.5 48 48 48h288c26.5 0 48-21.5 48-48V131.9c0-12.7-5.1-25-14.1-34zm-22.6 22.7c2.1 2.1 3.5 4.6 4.2 7.4H256V32.5c2.8.7 5.3 2.1 7.4 4.2l83.9 83.9zM336 480H48c-8.8 0-16-7.2-16-16V48c0-8.8 7.2-16 16-16h176v104c0 13.3 10.7 24 24 24h104v304c0 8.8-7.2 16-16 16zm-22-171.2c-13.5-13.3-55-9.2-73.7-6.7-21.2-12.8-35.2-30.4-45.1-56.6 4.3-18 12-47.2 6.4-64.9-4.4-28.1-39.7-24.7-44.6-6.8-5 18.3-.3 44.4 8.4 77.8-11.9 28.4-29.7 66.9-42.1 88.6-20.8 10.7-54.1 29.3-58.8 52.4-3.5 16.8 22.9 39.4 53.1 6.4 9.1-9.9 19.3-24.8 31.3-45.5 26.7-8.8 56.1-19.8 82-24 21.9 12 47.6 19.9 64.6 19.9 27.7.1 28.9-30.2 18.5-40.6zm-229.2 89c5.9-15.9 28.6-34.4 35.5-40.8-22.1 35.3-35.5 41.5-35.5 40.8zM180 175.5c8.7 0 7.8 37.5 2.1 47.6-5.2-16.3-5-47.6-2.1-47.6zm-28.4 159.3c11.3-19.8 21-43.2 28.8-63.7 9.7 17.7 22.1 31.7 35.1 41.5-24.3 4.7-45.4 15.1-63.9 22.2zm153.4-5.9s-5.8 7-43.5-9.1c41-3 47.7 6.4 43.5 9.1z"></path>
  </svg>

  <svg id="file-word" viewBox="0 0 384 512">
    <title id="file-word-title">Word File</title>
    <path d="M369.9 97.9L286 14C277 5 264.8-.1 252.1-.1H48C21.5 0 0 21.5 0 48v416c0 26.5 21.5 48 48 48h288c26.5 0 48-21.5 48-48V131.9c0-12.7-5.1-25-14.1-34zm-22.6 22.7c2.1 2.1 3.5 4.6 4.2 7.4H256V32.5c2.8.7 5.3 2.1 7.4 4.2l83.9 83.9zM336 480H48c-8.8 0-16-7.2-16-16V48c0-8.8 7.2-16 16-16h176v104c0 13.3 10.7 24 24 24h104v304c0 8.8-7.2 16-16 16zm-53.6-246.5c-6.8 32.8-32.5 139.7-33.4 150.3-5.8-29.1-.7 1.6-41.8-150.9-1.4-5.2-6.2-8.9-11.6-8.9h-6.4c-5.4 0-10.2 3.6-11.6 8.9-38.3 142.3-37.4 140.6-39.4 154.7-4.1-23.9 2.1-2.9-34.4-154.4-1.3-5.4-6.1-9.2-11.7-9.2h-7.2c-7.8 0-13.5 7.3-11.6 14.9 9.5 38 34.5 137.4 42.2 168 1.3 5.3 6.1 9.1 11.6 9.1h17c5.4 0 10.2-3.7 11.6-8.9 34.2-127.7 33.5-123.4 36.7-142.9 6.5 31.1.2 7 36.7 142.9 1.4 5.2 6.2 8.9 11.6 8.9h14c5.5 0 13.7-3.7 15.1-9l42.8-168c1.9-7.6-3.8-15-11.6-15h-6.8c-5.7 0-10.6 4-11.8 9.5z"></path>
  </svg>

  <svg id="filter" viewBox="0 0 512 512">
    <title id="filter-title">Filter</title>
    <path d="M479.968 0H32.038C3.613 0-10.729 34.487 9.41 54.627L192 237.255V424a31.996 31.996 0 0 0 10.928 24.082l64 55.983c20.438 17.883 53.072 3.68 53.072-24.082V237.255L502.595 54.627C522.695 34.528 508.45 0 479.968 0zM288 224v256l-64-56V224L32 32h448L288 224z"></path>
  </svg>

  <svg id="flag-checkered" viewBox="0 0 512 512">
    <title id="flag-checkered-title">flag-checkered</title>
    <path d="M156.8 88.82v72.42c-29.93 4.38-60.57 14.83-76.8 25.05v-71.12c18.2-11.46 46.11-23.21 76.8-26.35zm153.6 30.91c-27.734-4.686-52.298-14.151-76.8-21.39v67.88c25.344 6.659 49.648 16.44 76.8 22.39v-68.88zm-153.6 41.51v70.86c34.246-3.608 56.161-1.708 76.8 2.48v-68.36c-29.688-7.81-51.305-8.712-76.8-4.98zm76.8 143.03c27.652 4.677 51.957 14.03 76.8 21.39v-68.91c-25.056-6.914-49.602-16.632-76.8-22.17v69.69zM80 319.85c23.07-7.66 50.33-13.11 76.8-16.03V232.1c-26.02 2.73-52.02 8.41-76.8 16.64v71.11zM464 96.32c-22.55 8.89-49.72 17.36-76.8 22.2v72.62c26.78-4.4 51.66-13.8 76.8-23.71V96.32zm0 212.51v-71.12c-16.85 10.61-46.81 21.47-76.8 25.52v71.95c30.69-3.14 58.6-14.89 76.8-26.35zM310.4 188.61v68.14c27.533 7.597 49.745 10.124 76.8 6.48v-72.09c-24.374 4.038-48.648 3.636-76.8-2.53zM477.878 37.762C493.794 30.369 512 41.972 512 59.521v261.666c0 7.951-3.925 15.41-10.514 19.86C463.411 366.762 422.789 384 371.478 384c-69.924 0-115.22-34.667-171.826-34.667-63.586 0-104.229 14.525-135.652 29.064V500c0 6.627-5.373 12-12 12h-8c-6.627 0-12-5.373-12-12V93.258C12.553 86.382-1.146 67.34.076 45.271 1.433 20.75 21.532.999 46.071.038c29.737-1.165 53.482 24.675 49.485 54.411C118.847 45.322 144.035 40 172.522 40c69.924 0 115.22 34.667 171.826 34.667 47.267 0 96.75-19.822 133.53-36.905zM28 48c0 11.028 8.972 20 20 20s20-8.972 20-20-8.972-20-20-20-20 8.972-20 20zm452 24c-33.436 15.854-89.732 34.667-135.652 34.667C280.769 106.667 236.137 72 172.522 72 128.548 72 87.117 89.971 64 106.667v236.667c33.373-15.814 89.636-26 135.652-26 63.579 0 108.211 34.667 171.826 34.667 43.973 0 85.405-17.97 108.522-34.667V72z"></path>
  </svg>

  <svg id="gift" viewBox="0 0 512 512">
    <title id="gift-title">gift</title>
    <path d="M464 144h-39.3c9.5-13.4 15.3-29.9 15.3-48 0-44.1-33.4-80-74.5-80-42.3 0-66.8 25.4-109.5 95.8C213.3 41.4 188.8 16 146.5 16 105.4 16 72 51.9 72 96c0 18.1 5.8 34.6 15.3 48H48c-26.5 0-48 21.5-48 48v96c0 8.8 7.2 16 16 16h16v144c0 26.5 21.5 48 48 48h352c26.5 0 48-21.5 48-48V304h16c8.8 0 16-7.2 16-16v-96c0-26.5-21.5-48-48-48zm-187.8-3.6c49.5-83.3 66-92.4 89.3-92.4 23.4 0 42.5 21.5 42.5 48s-19.1 48-42.5 48H274l2.2-3.6zM146.5 48c23.4 0 39.8 9.1 89.3 92.4l2.1 3.6h-91.5c-23.4 0-42.5-21.5-42.5-48 .1-26.5 19.2-48 42.6-48zM192 464H80c-8.8 0-16-7.2-16-16V304h128v160zm0-192H32v-80c0-8.8 7.2-16 16-16h144v96zm96 192h-64V176h64v288zm160-16c0 8.8-7.2 16-16 16H320V304h128v144zm32-176H320v-96h144c8.8 0 16 7.2 16 16v80z"></path>
  </svg>

  <svg id="glasses" viewBox="0 0 576 512">
    <title id="glasses-title">Glasses</title>
    <path d="M574.21 280.58l-45.49-188c-5.38-21.55-19.62-40.05-39.09-50.73-19.47-10.66-42.66-12.8-63.81-5.77l-22.85 7.62c-4.19 1.4-6.46 5.93-5.06 10.12L402.97 69c1.4 4.19 5.93 6.46 10.12 5.06l21.79-7.27c10.1-3.37 21.16-3.95 31.23-.48 16.15 5.56 27.57 18.12 31.51 33.84l40.61 171.44c-22.35-7.63-53.24-15.06-89.57-15.06-37.34 0-80.26 8-125 31.48h-71.31c-44.74-23.48-87.66-31.49-125-31.48-36.33 0-67.22 7.44-89.58 15.07l40.57-171.24c3.36-13.44 11.99-24.44 24.29-30.9 12.24-6.43 26.88-6.51 39.99-2.14l20.28 6.77c4.19 1.4 8.72-.87 10.12-5.06l5.06-15.18c1.4-4.19-.87-8.72-5.06-10.12l-22.85-7.61c-21.09-7.06-44.31-4.95-63.81 5.75-19.45 10.68-33.7 29.18-39.11 50.91L1.8 280.58C.6 285.51 0 290.56 0 295.64v73.64C0 430.43 50.14 480 112 480h36.08c58.61 0 107.3-44.67 111.69-102.44l4.37-57.56h47.72l4.37 57.56C320.61 435.34 369.31 480 427.92 480H464c61.86 0 112-49.57 112-110.72v-73.65c0-5.07-.6-10.12-1.79-15.05zm-346.35 94.56C224.76 416 189.72 448 148.08 448H112c-44.11 0-80-35.31-80-78.72v-61.3c18.79-7.97 53.21-19.46 95.37-19.46 36.35 0 71.64 8.44 105.16 25.13l-4.67 61.49zM544 369.28c0 43.41-35.89 78.72-80 78.72h-36.08c-41.63 0-76.68-32-79.78-72.86l-4.67-61.49c33.53-16.68 68.83-25.13 105.19-25.13 42.16 0 76.56 11.49 95.34 19.46v61.3z"></path>
  </svg>

  <svg id="globe" viewBox="0 0 496 512">
    <title id="globe-title">Globe</title>
    <path d="M248 8C111 8 0 119 0 256s111 248 248 248 248-111 248-248S385 8 248 8zm193.2 152h-82.5c-9-44.4-24.1-82.2-43.2-109.1 55 18.2 100.2 57.9 125.7 109.1zM336 256c0 22.9-1.6 44.2-4.3 64H164.3c-2.7-19.8-4.3-41.1-4.3-64s1.6-44.2 4.3-64h167.4c2.7 19.8 4.3 41.1 4.3 64zM248 40c26.9 0 61.4 44.1 78.1 120H169.9C186.6 84.1 221.1 40 248 40zm-67.5 10.9c-19 26.8-34.2 64.6-43.2 109.1H54.8c25.5-51.2 70.7-90.9 125.7-109.1zM32 256c0-22.3 3.4-43.8 9.7-64h90.5c-2.6 20.5-4.2 41.8-4.2 64s1.5 43.5 4.2 64H41.7c-6.3-20.2-9.7-41.7-9.7-64zm22.8 96h82.5c9 44.4 24.1 82.2 43.2 109.1-55-18.2-100.2-57.9-125.7-109.1zM248 472c-26.9 0-61.4-44.1-78.1-120h156.2c-16.7 75.9-51.2 120-78.1 120zm67.5-10.9c19-26.8 34.2-64.6 43.2-109.1h82.5c-25.5 51.2-70.7 90.9-125.7 109.1zM363.8 320c2.6-20.5 4.2-41.8 4.2-64s-1.5-43.5-4.2-64h90.5c6.3 20.2 9.7 41.7 9.7 64s-3.4 43.8-9.7 64h-90.5z"></path>
  </svg>

  <svg id="graduation-cap" viewBox="0 0 640 512">
    <title id="graduation-cap-title">Graduation Cap</title>
    <path d="M612.16 153.99l-265-85.68c-17.81-5.75-36.5-5.75-54.31 0l-265 85.68C10.94 159.46 0 174.38 0 192s10.94 32.54 27.84 38.01l29.71 9.6c-3.3 6.18-5.74 12.83-7.33 19.8C39.53 264.59 32 275.32 32 288c0 12.73 7.57 23.52 18.33 28.67L32.28 428.53C30.67 438.52 36.19 448 43.62 448h40.75c7.43 0 12.96-9.48 11.34-19.47L77.67 316.67C88.43 311.52 96 300.73 96 288c0-10.6-5.49-19.54-13.43-25.37 1.49-4.66 3.8-8.86 6.57-12.81l53.47 17.29L128 384c0 35.35 85.96 64 192 64s192-28.65 192-64l-14.61-116.89L612.16 230c16.9-5.46 27.84-20.38 27.84-38s-10.94-32.54-27.84-38.01zM479.48 381.86C468.72 393.19 414.04 416 320 416c-94.04 0-148.72-22.81-159.48-34.14l13.09-104.73 119.24 38.55c2.6.84 25.72 9.23 54.31 0l119.24-38.55 13.08 104.73zm122.8-182.28l-265 85.68c-11.31 3.66-23.25 3.66-34.56 0l-175.67-56.8 195.89-36.74c8.69-1.62 14.41-9.98 12.78-18.67-1.62-8.7-10.16-14.39-18.66-12.77l-203.78 38.2c-12.4 2.32-23.51 7.65-33.08 14.83l-42.49-13.74c-7.85-2.55-7.46-12.74 0-15.15l265-85.68c15.1-4.88 27.84-2.17 34.56 0l265 85.68c7.39 2.39 7.91 12.6.01 15.16z"></path>
  </svg>

  <svg id="hand-paper" viewBox="0 0 448 512">
    <title id="hand-paper-title">Paper (Hand)</title>
    <path d="M369.427 119.119V96.31c0-42.828-42.806-72.789-82.304-56.523-19.82-54.166-94.37-52.179-112.451.797-38.439-15.75-81.814 12.815-81.814 55.916v145.654c-20.34-13.673-47.577-13.892-68.39 1.47-26.557 19.605-32.368 57.08-13.133 83.926l124.97 174.429A24 24 0 0 0 155.814 512h232.185a24 24 0 0 0 23.38-18.58l31.442-135.635a200.779 200.779 0 0 0 5.18-45.273V176.25c-.001-41.56-40.56-70.112-78.574-57.131zm46.57 193.394a168.76 168.76 0 0 1-4.35 38.046L381.641 480H159.924L37.336 308.912c-9.049-12.63-6.301-30.369 6.125-39.542 12.322-9.095 29.592-6.403 38.636 6.218l28.259 39.439c4.513 6.301 14.503 3.105 14.503-4.659V96.5c0-38.008 55.428-36.927 55.428.716V256a8 8 0 0 0 8 8h7.143a8 8 0 0 0 8-8V60.25c0-38.024 55.428-36.927 55.428.716V256a8 8 0 0 0 8 8h7.143a8 8 0 0 0 8-8V95.594c0-37.997 55.428-36.927 55.428.716V256a8 8 0 0 0 8 8h7.143a8 8 0 0 0 8-8v-79.034c0-37.556 55.428-38.847 55.428-.716v136.263z"></path>
  </svg>

  <svg id="headset" viewBox="0 0 512 512">
    <title id="headset-title">Headset</title>
    <path d="M192 224c0-17.67-14.33-32-32-32h-32c-35.35 0-64 28.65-64 64v63.64c0 35.35 28.65 64 64 64h32c17.67 0 32-14.33 32-32V224zm-32 127.64h-32c-17.64 0-32-14.36-32-32V256c0-17.64 14.36-32 32-32h32v127.64zm224 32c35.35 0 64-28.65 64-64V256c0-35.35-28.65-64-64-64h-32c-17.67 0-32 14.33-32 32v127.64c0 17.67 14.33 32 32 32h32zM352 224h32c17.64 0 32 14.36 32 32v63.64c0 17.64-14.36 32-32 32h-32V224zM256 0C113.97 0 3.92 117.82.1 256L0 280c0 4.42 3.58 8 8 8h16c4.42 0 8-3.58 8-8l.09-24C35.43 135.19 131.63 32 256 32c123.5 0 224 100.48 224 224v176c0 26.47-21.53 48-48 48h-82.94c1.79-5.03 2.94-10.36 2.94-16 0-26.51-21.49-48-48-48h-64c-26.51 0-48 21.49-48 48s21.49 48 48 48h192c44.12 0 80-35.89 80-80V256C512 114.85 397.16 0 256 0zm48 480h-64c-8.82 0-16-7.18-16-16s7.18-16 16-16h64c8.82 0 16 7.18 16 16s-7.18 16-16 16z"></path>
  </svg>

  <svg id="home" viewBox="0 0 512 512">
    <title id="home-title">home</title>
    <path d="M509.8 227.5L448 177.8v-76c0-3.3-2.7-6-6-6h-20c-3.3 0-6 2.7-6 6v50.1L276.1 39.1c-11.7-9.5-28.5-9.5-40.2 0L2.2 227.5c-2.6 2.1-3 5.9-.9 8.4l12.6 15.6c2.1 2.6 5.9 3 8.5.9L64 218.9v229c0 17.7 14.3 32 32 32h116c6.6 0 12-5.4 12-12V335.8l64 .3v132.2c0 6.6 5.4 12 12 12l116-.3c17.7 0 32-14.3 32-32V219l41.6 33.5c2.6 2.1 6.4 1.7 8.5-.9l12.6-15.6c2.1-2.6 1.6-6.4-.9-8.5zM416 448l-96 .3V316c0-6.6-5.4-12-12-12l-104-.3c-6.6 0-12 5.4-12 12V448H96V193.1l156.2-126c2.2-1.8 5.3-1.8 7.5 0l156.2 126V448z"></path>
  </svg>

  <svg id="info-circle" viewBox="0 0 512 512">
    <title id="info-circle-title">Info Circle</title>
    <path d="M256 40c118.621 0 216 96.075 216 216 0 119.291-96.61 216-216 216-119.244 0-216-96.562-216-216 0-119.203 96.602-216 216-216m0-32C119.043 8 8 119.083 8 256c0 136.997 111.043 248 248 248s248-111.003 248-248C504 119.083 392.957 8 256 8zm-36 344h12V232h-12c-6.627 0-12-5.373-12-12v-8c0-6.627 5.373-12 12-12h48c6.627 0 12 5.373 12 12v140h12c6.627 0 12 5.373 12 12v8c0 6.627-5.373 12-12 12h-72c-6.627 0-12-5.373-12-12v-8c0-6.627 5.373-12 12-12zm36-240c-17.673 0-32 14.327-32 32s14.327 32 32 32 32-14.327 32-32-14.327-32-32-32z"></path>
  </svg>

  <svg id="landmark" viewBox="0 0 576 512">
    <title id="landmark-title">Landmark</title>
    <path d="M565.62 92.11L299.24 2.04C295.62.68 291.81 0 288 0s-7.62.68-11.24 2.04L10.38 92.11A16.001 16.001 0 0 0 0 107.09V144c0 8.84 7.16 16 16 16h544c8.84 0 16-7.16 16-16v-36.91c0-6.67-4.14-12.64-10.38-14.98zM544 128H32v-9.42L288 32l256 86.56V128zm24 352h-24v-64c0-17.67-16.37-32-36.57-32H496V192h-32v192h-96V192h-32v192h-96V192h-32v192h-96V192H80v192H68.57C48.37 384 32 398.33 32 416v64H8c-4.42 0-8 3.58-8 8v16c0 4.42 3.58 8 8 8h560c4.42 0 8-3.58 8-8v-16c0-4.42-3.58-8-8-8zm-56 0H64v-62.72c.7-.52 2.21-1.28 4.57-1.28h438.86c2.37 0 3.87.76 4.57 1.28V480z"></path>
  </svg>

  <svg id="layer-group" viewBox="0 0 512 512">
    <title id="layer-group-title">Layer Group</title>
    <path d="M512 256.01c0-9.98-5.81-18.94-14.77-22.81l-99.74-43.27 99.7-43.26c9-3.89 14.81-12.84 14.81-22.81s-5.81-18.92-14.77-22.79L271.94 3.33c-10.1-4.44-21.71-4.45-31.87-.02L14.81 101.06C5.81 104.95 0 113.9 0 123.87s5.81 18.92 14.77 22.79l99.73 43.28-99.7 43.26C5.81 237.08 0 246.03 0 256.01c0 9.97 5.81 18.92 14.77 22.79l99.72 43.26-99.69 43.25C5.81 369.21 0 378.16 0 388.14c0 9.97 5.81 18.92 14.77 22.79l225.32 97.76a40.066 40.066 0 0 0 15.9 3.31c5.42 0 10.84-1.1 15.9-3.31l225.29-97.74c9-3.89 14.81-12.84 14.81-22.81 0-9.98-5.81-18.94-14.77-22.81l-99.72-43.26 99.69-43.25c9-3.89 14.81-12.84 14.81-22.81zM45.23 123.87l208.03-90.26.03-.02c1.74-.71 3.65-.76 5.45.02l208.03 90.26-208.03 90.27c-1.81.77-3.74.77-5.48 0L45.23 123.87zm421.54 264.27L258.74 478.4c-1.81.77-3.74.77-5.48 0L45.23 388.13l110.76-48.06 84.11 36.49a40.066 40.066 0 0 0 15.9 3.31c5.42 0 10.84-1.1 15.9-3.31l84.11-36.49 110.76 48.07zm-208.03-41.87c-1.81.77-3.74.77-5.48 0L45.23 256 156 207.94l84.1 36.5a40.066 40.066 0 0 0 15.9 3.31c5.42 0 10.84-1.1 15.9-3.31l84.1-36.49 110.77 48.07-208.03 90.25z"></path>
  </svg>

  <svg id="lightbulb" viewBox="0 0 352 512">
    <title id="lightbulb-title">Lightbulb</title>
    <path d="M176 0C73.05 0-.12 83.54 0 176.24c.06 44.28 16.5 84.67 43.56 115.54C69.21 321.03 93.85 368.68 96 384l.06 75.18c0 3.15.94 6.22 2.68 8.84l24.51 36.84c2.97 4.46 7.97 7.14 13.32 7.14h78.85c5.36 0 10.36-2.68 13.32-7.14l24.51-36.84c1.74-2.62 2.67-5.7 2.68-8.84L256 384c2.26-15.72 26.99-63.19 52.44-92.22C335.55 260.85 352 220.37 352 176 352 78.8 273.2 0 176 0zm47.94 454.31L206.85 480h-61.71l-17.09-25.69-.01-6.31h95.9v6.31zm.04-38.31h-95.97l-.07-32h96.08l-.04 32zm60.4-145.32c-13.99 15.96-36.33 48.1-50.58 81.31H118.21c-14.26-33.22-36.59-65.35-50.58-81.31C44.5 244.3 32.13 210.85 32.05 176 31.87 99.01 92.43 32 176 32c79.4 0 144 64.6 144 144 0 34.85-12.65 68.48-35.62 94.68zM176 64c-61.75 0-112 50.25-112 112 0 8.84 7.16 16 16 16s16-7.16 16-16c0-44.11 35.88-80 80-80 8.84 0 16-7.16 16-16s-7.16-16-16-16z"></path>
  </svg>

  <svg id="linkedin" viewBox="0 0 448 512">
    <title id="linkedin-title">LinkedIn</title>
    <path d="M416 32H31.9C14.3 32 0 46.5 0 64.3v383.4C0 465.5 14.3 480 31.9 480H416c17.6 0 32-14.5 32-32.3V64.3c0-17.8-14.4-32.3-32-32.3zM135.4 416H69V202.2h66.5V416zm-33.2-243c-21.3 0-38.5-17.3-38.5-38.5S80.9 96 102.2 96c21.2 0 38.5 17.3 38.5 38.5 0 21.3-17.2 38.5-38.5 38.5zm282.1 243h-66.4V312c0-24.8-.5-56.7-34.5-56.7-34.6 0-39.9 27-39.9 54.9V416h-66.4V202.2h63.7v29.2h.9c8.9-16.8 30.6-34.5 62.9-34.5 67.2 0 79.7 44.3 79.7 101.9V416z"></path>
  </svg>

  <svg id="list" viewBox="0 0 512 512">
    <title id="list-title">List</title>
    <path d="M506 114H134a6 6 0 0 1-6-6V84a6 6 0 0 1 6-6h372a6 6 0 0 1 6 6v24a6 6 0 0 1-6 6zm6 154v-24a6 6 0 0 0-6-6H134a6 6 0 0 0-6 6v24a6 6 0 0 0 6 6h372a6 6 0 0 0 6-6zm0 160v-24a6 6 0 0 0-6-6H134a6 6 0 0 0-6 6v24a6 6 0 0 0 6 6h372a6 6 0 0 0 6-6zM84 120V72c0-6.627-5.373-12-12-12H24c-6.627 0-12 5.373-12 12v48c0 6.627 5.373 12 12 12h48c6.627 0 12-5.373 12-12zm0 160v-48c0-6.627-5.373-12-12-12H24c-6.627 0-12 5.373-12 12v48c0 6.627 5.373 12 12 12h48c6.627 0 12-5.373 12-12zm0 160v-48c0-6.627-5.373-12-12-12H24c-6.627 0-12 5.373-12 12v48c0 6.627 5.373 12 12 12h48c6.627 0 12-5.373 12-12z"></path>
  </svg>

  <svg id="lock-alt" viewBox="0 0 448 512">
    <title id="lock-alt-title">Alternate Lock</title>
    <path d="M224 420c-11 0-20-9-20-20v-64c0-11 9-20 20-20s20 9 20 20v64c0 11-9 20-20 20zm224-148v192c0 26.5-21.5 48-48 48H48c-26.5 0-48-21.5-48-48V272c0-26.5 21.5-48 48-48h16v-64C64 71.6 136-.3 224.5 0 312.9.3 384 73.1 384 161.5V224h16c26.5 0 48 21.5 48 48zM96 224h256v-64c0-70.6-57.4-128-128-128S96 89.4 96 160v64zm320 240V272c0-8.8-7.2-16-16-16H48c-8.8 0-16 7.2-16 16v192c0 8.8 7.2 16 16 16h352c8.8 0 16-7.2 16-16z"></path>
  </svg>

  <svg id="map-marker-alt" viewBox="0 0 384 512">
    <title id="map-marker-alt-title">Alternate Map Marker</title>
    <path d="M192 96c-52.935 0-96 43.065-96 96s43.065 96 96 96 96-43.065 96-96-43.065-96-96-96zm0 160c-35.29 0-64-28.71-64-64s28.71-64 64-64 64 28.71 64 64-28.71 64-64 64zm0-256C85.961 0 0 85.961 0 192c0 77.413 26.97 99.031 172.268 309.67 9.534 13.772 29.929 13.774 39.465 0C357.03 291.031 384 269.413 384 192 384 85.961 298.039 0 192 0zm0 473.931C52.705 272.488 32 256.494 32 192c0-42.738 16.643-82.917 46.863-113.137S149.262 32 192 32s82.917 16.643 113.137 46.863S352 149.262 352 192c0 64.49-20.692 80.47-160 281.931z"></path>
  </svg>

  <svg id="map-marker-plus" viewBox="0 0 384 512">
    <title id="map-marker-plus-title">Map Marker Plus</title>
    <path d="M192 0C86.4 0 0 86.4 0 192c0 76.8 25.6 99.2 172.8 310.4 9.6 12.8 28.8 12.8 38.4 0C358.4 291.2 384 268.8 384 192 384 86.4 297.6 0 192 0zm112 200c0 8.84-7.16 16-16 16h-72v72c0 8.84-7.16 16-16 16h-16c-8.84 0-16-7.16-16-16v-72H96c-8.84 0-16-7.16-16-16v-16c0-8.84 7.16-16 16-16h72V96c0-8.84 7.16-16 16-16h16c8.84 0 16 7.16 16 16v72h72c8.84 0 16 7.16 16 16v16z"></path>
  </svg>

  <svg id="map-marker-times" viewBox="0 0 384 512">
    <title id="map-marker-times-title">Map Marker Times</title>
    <path d="M192 0C86.4 0 0 86.4 0 192c0 76.8 25.6 99.2 172.8 310.4 9.6 12.8 28.8 12.8 38.4 0C358.4 291.2 384 268.8 384 192 384 86.4 297.6 0 192 0zm84.85 242.91c6.25 6.25 6.25 16.38 0 22.63l-11.31 11.31c-6.25 6.25-16.38 6.25-22.63 0L192 225.94l-50.91 50.91c-6.25 6.25-16.38 6.25-22.63 0l-11.31-11.31c-6.25-6.25-6.25-16.38 0-22.63L158.06 192l-50.91-50.91c-6.25-6.25-6.25-16.38 0-22.63l11.31-11.31c6.25-6.25 16.38-6.25 22.63 0L192 158.06l50.91-50.91c6.25-6.25 16.38-6.25 22.63 0l11.31 11.31c6.25 6.25 6.25 16.38 0 22.63L225.94 192l50.91 50.91z"></path>
  </svg>

  <svg id="map-marker-edit" viewBox="0 0 384 512">
    <title id="map-marker-edit-title">Map Marker Edit</title>
    <path d="M192 0C86.4 0 0 86.4 0 192c0 76.8 25.6 99.2 172.8 310.4 9.6 12.8 28.8 12.8 38.4 0C358.4 291.2 384 268.8 384 192 384 86.4 297.6 0 192 0zm-43.17 283.15l-42.83 4.8c-5.78.62-10.57-4.27-9.95-9.95l4.8-42.83 85.54-85.54 47.98 47.98-85.54 85.54zm133.91-133.9l-28.26 28.26-47.98-47.98 28.26-28.26c7.02-7.02 18.39-7.02 25.41 0l22.57 22.57c7.02 7.01 7.02 18.39 0 25.41z"></path>
  </svg>

  <svg id="paperclip" viewBox="0 0 512 512">
    <title id="paperclip-title">Paperclip</title>
    <path d="M149.106 512c-33.076 0-66.153-12.59-91.333-37.771-50.364-50.361-50.364-132.305-.002-182.665L319.842 29.498c39.331-39.331 103.328-39.331 142.66 0 39.331 39.332 39.331 103.327 0 142.657l-222.63 222.626c-28.297 28.301-74.347 28.303-102.65 0-28.3-28.301-28.3-74.349 0-102.649l170.301-170.298c4.686-4.686 12.284-4.686 16.97 0l5.661 5.661c4.686 4.686 4.686 12.284 0 16.971l-170.3 170.297c-15.821 15.821-15.821 41.563.001 57.385 15.821 15.82 41.564 15.82 57.385 0l222.63-222.626c26.851-26.851 26.851-70.541 0-97.394-26.855-26.851-70.544-26.849-97.395 0L80.404 314.196c-37.882 37.882-37.882 99.519 0 137.401 37.884 37.881 99.523 37.882 137.404.001l217.743-217.739c4.686-4.686 12.284-4.686 16.97 0l5.661 5.661c4.686 4.686 4.686 12.284 0 16.971L240.44 474.229C215.26 499.41 182.183 512 149.106 512z"></path>
  </svg>

  <svg id="pause-circle" viewBox="0 0 512 512">
    <title id="pause-circle-title">Pause Circle</title>
    <path d="M256 504c137 0 248-111 248-248S393 8 256 8 8 119 8 256s111 248 248 248zM40 256c0-118.7 96.1-216 216-216 118.7 0 216 96.1 216 216 0 118.7-96.1 216-216 216-118.7 0-216-96.1-216-216zm168-96v192m-10-192h20c3.3 0 6 2.7 6 6v180c0 3.3-2.7 6-6 6h-20c-3.3 0-6-2.7-6-6V166c0-3.3 2.7-6 6-6zm96 0h20c3.3 0 6 2.7 6 6v180c0 3.3-2.7 6-6 6h-20c-3.3 0-6-2.7-6-6V166c0-3.3 2.7-6 6-6z"></path>
  </svg>

  <svg id="pencil" viewBox="0 0 512 512">
    <title id="pencil-title">pencil</title>
    <path d="M493.255 56.236l-37.49-37.49c-24.993-24.993-65.515-24.994-90.51 0L12.838 371.162.151 485.346c-1.698 15.286 11.22 28.203 26.504 26.504l114.184-12.687 352.417-352.417c24.992-24.994 24.992-65.517-.001-90.51zm-95.196 140.45L174 420.745V386h-48v-48H91.255l224.059-224.059 82.745 82.745zM126.147 468.598l-58.995 6.555-30.305-30.305 6.555-58.995L63.255 366H98v48h48v34.745l-19.853 19.853zm344.48-344.48l-49.941 49.941-82.745-82.745 49.941-49.941c12.505-12.505 32.748-12.507 45.255 0l37.49 37.49c12.506 12.506 12.507 32.747 0 45.255z"></path>
  </svg>

  <svg id="play-circle" viewBox="0 0 512 512">
    <title id="play-circle-title">Play Circle</title>
    <path d="M256 504c137 0 248-111 248-248S393 8 256 8 8 119 8 256s111 248 248 248zM40 256c0-118.7 96.1-216 216-216 118.7 0 216 96.1 216 216 0 118.7-96.1 216-216 216-118.7 0-216-96.1-216-216zm331.7-18l-176-107c-15.8-8.8-35.7 2.5-35.7 21v208c0 18.4 19.8 29.8 35.7 21l176-101c16.4-9.1 16.4-32.8 0-42zM192 335.8V176.9c0-4.7 5.1-7.6 9.1-5.1l134.5 81.7c3.9 2.4 3.8 8.1-.1 10.3L201 341c-4 2.3-9-.6-9-5.2z"></path>
  </svg>

  <svg id="plus-circle" viewBox="0 0 512 512">
    <title id="plus-circle-title">Plus Circle</title>
    <path d="M384 250v12c0 6.6-5.4 12-12 12h-98v98c0 6.6-5.4 12-12 12h-12c-6.6 0-12-5.4-12-12v-98h-98c-6.6 0-12-5.4-12-12v-12c0-6.6 5.4-12 12-12h98v-98c0-6.6 5.4-12 12-12h12c6.6 0 12 5.4 12 12v98h98c6.6 0 12 5.4 12 12zm120 6c0 137-111 248-248 248S8 393 8 256 119 8 256 8s248 111 248 248zm-32 0c0-119.9-97.3-216-216-216-119.9 0-216 97.3-216 216 0 119.9 97.3 216 216 216 119.9 0 216-97.3 216-216z"></path>
  </svg>

  <svg id="print" viewBox="0 0 512 512">
    <title id="print-title">print</title>
    <path d="M432 192h-16v-82.75c0-8.49-3.37-16.62-9.37-22.63L329.37 9.37c-6-6-14.14-9.37-22.63-9.37H126.48C109.64 0 96 14.33 96 32v160H80c-44.18 0-80 35.82-80 80v96c0 8.84 7.16 16 16 16h80v112c0 8.84 7.16 16 16 16h288c8.84 0 16-7.16 16-16V384h80c8.84 0 16-7.16 16-16v-96c0-44.18-35.82-80-80-80zM320 45.25L370.75 96H320V45.25zM128.12 32H288v64c0 17.67 14.33 32 32 32h64v64H128.02l.1-160zM384 480H128v-96h256v96zm96-128H32v-80c0-26.47 21.53-48 48-48h352c26.47 0 48 21.53 48 48v80zm-80-88c-13.25 0-24 10.74-24 24 0 13.25 10.75 24 24 24s24-10.75 24-24c0-13.26-10.75-24-24-24z"></path>
  </svg>

  <svg id="question-circle" viewBox="0 0 512 512">
    <title id="question-circle-title">Question Circle</title>
    <path d="M256 340c-15.464 0-28 12.536-28 28s12.536 28 28 28 28-12.536 28-28-12.536-28-28-28zm7.67-24h-16c-6.627 0-12-5.373-12-12v-.381c0-70.343 77.44-63.619 77.44-107.408 0-20.016-17.761-40.211-57.44-40.211-29.144 0-44.265 9.649-59.211 28.692-3.908 4.98-11.054 5.995-16.248 2.376l-13.134-9.15c-5.625-3.919-6.86-11.771-2.645-17.177C185.658 133.514 210.842 116 255.67 116c52.32 0 97.44 29.751 97.44 80.211 0 67.414-77.44 63.849-77.44 107.408V304c0 6.627-5.373 12-12 12zM256 40c118.621 0 216 96.075 216 216 0 119.291-96.61 216-216 216-119.244 0-216-96.562-216-216 0-119.203 96.602-216 216-216m0-32C119.043 8 8 119.083 8 256c0 136.997 111.043 248 248 248s248-111.003 248-248C504 119.083 392.957 8 256 8z"></path>
  </svg>

  <svg id="search" viewBox="0 0 512 512">
    <title id="search-title">Search</title>
    <path d="M508.5 481.6l-129-129c-2.3-2.3-5.3-3.5-8.5-3.5h-10.3C395 312 416 262.5 416 208 416 93.1 322.9 0 208 0S0 93.1 0 208s93.1 208 208 208c54.5 0 104-21 141.1-55.2V371c0 3.2 1.3 6.2 3.5 8.5l129 129c4.7 4.7 12.3 4.7 17 0l9.9-9.9c4.7-4.7 4.7-12.3 0-17zM208 384c-97.3 0-176-78.7-176-176S110.7 32 208 32s176 78.7 176 176-78.7 176-176 176z"></path>
  </svg>

  <svg id="shapes" viewBox="0 0 512 512">
    <title id="shapes-title">Shapes</title>
    <path d="M480 288H320c-17.67 0-32 14.33-32 32v160c0 17.67 14.33 32 32 32h160c17.67 0 32-14.33 32-32V320c0-17.67-14.33-32-32-32zm0 192H320V320h160v160zM128 256C57.31 256 0 313.31 0 384s57.31 128 128 128 128-57.31 128-128-57.31-128-128-128zm0 224c-52.93 0-96-43.07-96-96 0-52.94 43.07-96 96-96 52.94 0 96 43.06 96 96 0 52.93-43.06 96-96 96zm378.98-278.86L400.07 18.29C392.95 6.1 380.47 0 368 0s-24.95 6.1-32.07 18.29L229.02 201.14c-14.26 24.38 3.56 54.86 32.07 54.86h213.82c28.51 0 46.33-30.48 32.07-54.86zm-27.6 20.39c-.94 1.64-2.45 2.47-4.47 2.47H261.09c-2.02 0-3.53-.83-4.47-2.47-1.21-2.12-.35-3.6.02-4.23L363.55 34.44c.95-1.62 2.44-2.44 4.45-2.44s3.5.82 4.45 2.44L479.36 217.3c.37.63 1.24 2.11.02 4.23z"></path>
  </svg>

  <svg id="share-alt" viewBox="0 0 448 512">
    <title id="share-alt-title">Alternate Share</title>
    <path d="M448 416c0 53.019-42.981 96-96 96s-96-42.981-96-96c0-12.965 2.576-25.327 7.235-36.61l-95.45-59.657C150.199 339.525 124.558 352 96 352c-53.019 0-96-42.981-96-96s42.981-96 96-96c28.558 0 54.199 12.475 71.784 32.267l95.45-59.657C258.576 121.327 256 108.965 256 96c0-53.019 42.981-96 96-96s96 42.981 96 96-42.981 96-96 96c-28.558 0-54.199-12.475-71.784-32.267l-95.451 59.656c9.661 23.396 9.641 49.87 0 73.22l95.451 59.656C297.801 332.475 323.442 320 352 320c53.019 0 96 42.981 96 96zM352 32c-35.29 0-64 28.71-64 64s28.71 64 64 64 64-28.71 64-64-28.71-64-64-64M96 192c-35.29 0-64 28.71-64 64s28.71 64 64 64 64-28.71 64-64-28.71-64-64-64m256 160c-35.29 0-64 28.71-64 64s28.71 64 64 64 64-28.71 64-64-28.71-64-64-64"></path>
  </svg>

  <svg id="sign-out" viewBox="0 0 512 512">
    <title id="sign-out-title">Sign Out</title>
    <path d="M48 64h132c6.6 0 12 5.4 12 12v8c0 6.6-5.4 12-12 12H48c-8.8 0-16 7.2-16 16v288c0 8.8 7.2 16 16 16h132c6.6 0 12 5.4 12 12v8c0 6.6-5.4 12-12 12H48c-26.5 0-48-21.5-48-48V112c0-26.5 21.5-48 48-48zm279 19.5l-7.1 7.1c-4.7 4.7-4.7 12.3 0 17l132 131.4H172c-6.6 0-12 5.4-12 12v10c0 6.6 5.4 12 12 12h279.9L320 404.4c-4.7 4.7-4.7 12.3 0 17l7.1 7.1c4.7 4.7 12.3 4.7 17 0l164.5-164c4.7-4.7 4.7-12.3 0-17L344 83.5c-4.7-4.7-12.3-4.7-17 0z"></path>
  </svg>

  <svg id="sort" viewBox="0 0 320 512">
    <title id="sort-title">Sort</title>
    <path d="M288 288H32c-28.4 0-42.8 34.5-22.6 54.6l128 128c12.5 12.5 32.8 12.5 45.3 0l128-128c20-20.1 5.7-54.6-22.7-54.6zM160 448L32 320h256L160 448zM32 224h256c28.4 0 42.8-34.5 22.6-54.6l-128-128c-12.5-12.5-32.8-12.5-45.3 0l-128 128C-10.7 189.5 3.6 224 32 224zM160 64l128 128H32L160 64z"></path>
  </svg>

  <svg id="share-square" viewBox="0 0 576 512">
    <title id="share-square-title">Share Square</title>
    <path d="M566.633 169.37L406.63 9.392C386.626-10.612 352 3.395 352 32.022v72.538C210.132 108.474 88 143.455 88 286.3c0 84.74 49.78 133.742 79.45 155.462 24.196 17.695 58.033-4.917 49.7-34.51C188.286 304.843 225.497 284.074 352 280.54V352c0 28.655 34.654 42.606 54.63 22.63l160.003-160c12.489-12.5 12.489-32.76 0-45.26zM384 352V248.04c-141.718.777-240.762 15.03-197.65 167.96C154.91 393 120 351.28 120 286.3c0-134.037 131.645-149.387 264-150.26V32l160 160-160 160zm37.095 52.186c2.216-1.582 4.298-3.323 6.735-5.584 7.68-7.128 20.17-1.692 20.17 8.787V464c0 26.51-21.49 48-48 48H48c-26.51 0-48-21.49-48-48V112c0-26.51 21.49-48 48-48h172.146c6.612 0 11.954 5.412 11.852 12.04-.084 5.446-4.045 10.087-9.331 11.396-9.462 2.343-18.465 4.974-27.074 7.914-1.25.427-2.555.65-3.876.65H48c-8.837 0-16 7.163-16 16v352c0 8.837 7.163 16 16 16h352c8.837 0 16-7.163 16-16v-50.002c0-3.905 1.916-7.543 5.095-9.812z"></path>
  </svg>

  <svg id="sync" viewBox="0 0 512 512">
    <title id="sync-title">Sync</title>
    <path d="M492 8h-10c-6.627 0-12 5.373-12 12v110.627C426.929 57.261 347.224 8 256 8 123.228 8 14.824 112.338 8.31 243.493 7.971 250.311 13.475 256 20.301 256h10.016c6.353 0 11.646-4.949 11.977-11.293C48.157 132.216 141.097 42 256 42c82.862 0 154.737 47.077 190.289 116H332c-6.627 0-12 5.373-12 12v10c0 6.627 5.373 12 12 12h160c6.627 0 12-5.373 12-12V20c0-6.627-5.373-12-12-12zm-.301 248h-10.015c-6.352 0-11.647 4.949-11.977 11.293C463.841 380.158 370.546 470 256 470c-82.608 0-154.672-46.952-190.299-116H180c6.627 0 12-5.373 12-12v-10c0-6.627-5.373-12-12-12H20c-6.627 0-12 5.373-12 12v160c0 6.627 5.373 12 12 12h10c6.627 0 12-5.373 12-12V381.373C85.071 454.739 164.777 504 256 504c132.773 0 241.176-104.338 247.69-235.493.339-6.818-5.165-12.507-11.991-12.507z"></path>
  </svg>

  <svg id="th-large" viewBox="0 0 512 512">
    <title id="th-large-title">th-large</title>
    <path d="M0 80v352c0 26.51 21.49 48 48 48h416c26.51 0 48-21.49 48-48V80c0-26.51-21.49-48-48-48H48C21.49 32 0 53.49 0 80zm240-16v176H32V80c0-8.837 7.163-16 16-16h192zM32 432V272h208v176H48c-8.837 0-16-7.163-16-16zm240 16V272h208v160c0 8.837-7.163 16-16 16H272zm208-208H272V64h192c8.837 0 16 7.163 16 16v160z"></path>
  </svg>

  <svg id="thumbs-up" viewBox="0 0 512 512">
    <title id="thumbs-up-title">thumbs-up</title>
    <path d="M496.656 285.683C506.583 272.809 512 256 512 235.468c-.001-37.674-32.073-72.571-72.727-72.571h-70.15c8.72-17.368 20.695-38.911 20.695-69.817C389.819 34.672 366.518 0 306.91 0c-29.995 0-41.126 37.918-46.829 67.228-3.407 17.511-6.626 34.052-16.525 43.951C219.986 134.75 184 192 162.382 203.625c-2.189.922-4.986 1.648-8.032 2.223C148.577 197.484 138.931 192 128 192H32c-17.673 0-32 14.327-32 32v256c0 17.673 14.327 32 32 32h96c17.673 0 32-14.327 32-32v-8.74c32.495 0 100.687 40.747 177.455 40.726 5.505.003 37.65.03 41.013 0 59.282.014 92.255-35.887 90.335-89.793 15.127-17.727 22.539-43.337 18.225-67.105 12.456-19.526 15.126-47.07 9.628-69.405zM32 480V224h96v256H32zm424.017-203.648C472 288 472 336 450.41 347.017c13.522 22.76 1.352 53.216-15.015 61.996 8.293 52.54-18.961 70.606-57.212 70.974-3.312.03-37.247 0-40.727 0-72.929 0-134.742-40.727-177.455-40.727V235.625c37.708 0 72.305-67.939 106.183-101.818 30.545-30.545 20.363-81.454 40.727-101.817 50.909 0 50.909 35.517 50.909 61.091 0 42.189-30.545 61.09-30.545 101.817h111.999c22.73 0 40.627 20.364 40.727 40.727.099 20.363-8.001 36.375-23.984 40.727zM104 432c0 13.255-10.745 24-24 24s-24-10.745-24-24 10.745-24 24-24 24 10.745 24 24z"></path>
  </svg>

  <svg id="times" viewBox="0 0 320 512">
    <title id="times-title">Times</title>
    <path d="M193.94 256L296.5 153.44l21.15-21.15c3.12-3.12 3.12-8.19 0-11.31l-22.63-22.63c-3.12-3.12-8.19-3.12-11.31 0L160 222.06 36.29 98.34c-3.12-3.12-8.19-3.12-11.31 0L2.34 120.97c-3.12 3.12-3.12 8.19 0 11.31L126.06 256 2.34 379.71c-3.12 3.12-3.12 8.19 0 11.31l22.63 22.63c3.12 3.12 8.19 3.12 11.31 0L160 289.94 262.56 392.5l21.15 21.15c3.12 3.12 8.19 3.12 11.31 0l22.63-22.63c3.12-3.12 3.12-8.19 0-11.31L193.94 256z"></path>
  </svg>

  <svg id="times-circle" viewBox="0 0 512 512">
    <title id="times-circle-title">Times Circle</title>
    <path d="M256 8C119 8 8 119 8 256s111 248 248 248 248-111 248-248S393 8 256 8zm0 464c-118.7 0-216-96.1-216-216 0-118.7 96.1-216 216-216 118.7 0 216 96.1 216 216 0 118.7-96.1 216-216 216zm94.8-285.3L281.5 256l69.3 69.3c4.7 4.7 4.7 12.3 0 17l-8.5 8.5c-4.7 4.7-12.3 4.7-17 0L256 281.5l-69.3 69.3c-4.7 4.7-12.3 4.7-17 0l-8.5-8.5c-4.7-4.7-4.7-12.3 0-17l69.3-69.3-69.3-69.3c-4.7-4.7-4.7-12.3 0-17l8.5-8.5c4.7-4.7 12.3-4.7 17 0l69.3 69.3 69.3-69.3c4.7-4.7 12.3-4.7 17 0l8.5 8.5c4.6 4.7 4.6 12.3 0 17z"></path>
  </svg>

  <svg id="tools" viewBox="0 0 512 512">
    <title id="tools-title">Tools</title>
    <path d="M502.6 389.5L378.2 265c-15.6-15.6-36.1-23.4-56.6-23.4-15.4 0-30.8 4.4-44.1 13.3L192 169.4V96L64 0 0 64l96 128h73.4l85.5 85.5c-20.6 31.1-17.2 73.3 10.2 100.7l124.5 124.5c6.2 6.2 14.4 9.4 22.6 9.4 8.2 0 16.4-3.1 22.6-9.4l67.9-67.9c12.4-12.6 12.4-32.8-.1-45.3zM160 158.1v1.9h-48L42.3 67 67 42.3l93 69.7v46.1zM412.1 480L287.7 355.5c-9.1-9.1-14.1-21.1-14.1-33.9 0-12.8 5-24.9 14.1-33.9 9.1-9.1 21.1-14.1 33.9-14.1 12.8 0 24.9 5 33.9 14.1L480 412.1 412.1 480zM64 432c0 8.8 7.2 16 16 16s16-7.2 16-16-7.2-16-16-16-16 7.2-16 16zM276.8 66.9C299.5 44.2 329.4 32 360.6 32c6.9 0 13.8.6 20.7 1.8L312 103.2l13.8 83 83.1 13.8 69.3-69.3c6.7 38.2-5.3 76.8-33.1 104.5-8.9 8.9-19.1 16-30 21.5l23.6 23.6c10.4-6.2 20.2-13.6 29-22.5 37.8-37.8 52.7-91.4 39.7-143.3-2.3-9.5-9.7-17-19.1-19.6-9.5-2.6-19.7 0-26.7 7l-63.9 63.9-44.2-7.4-7.4-44.2L410 50.3c6.9-6.9 9.6-17.1 7-26.5-2.6-9.5-10.2-16.8-19.7-19.2C345.6-8.3 292 6.5 254.1 44.3c-12.9 12.9-22.9 27.9-30.1 44v67.8l22.1 22.1c-9.6-40.4 1.6-82.2 30.7-111.3zM107 467.1c-16.6 16.6-45.6 16.6-62.2 0-17.1-17.1-17.1-45.1 0-62.2l146.1-146.1-22.6-22.6L22.2 382.3c-29.6 29.6-29.6 77.8 0 107.5C36.5 504.1 55.6 512 75.9 512c20.3 0 39.4-7.9 53.7-22.3L231.4 388c-6.7-9.2-11.8-19.3-15.5-29.8L107 467.1z"></path>
  </svg>

  <svg id="trash-alt" viewBox="0 0 448 512">
    <title id="trash-alt-title">Alternate Trash</title>
    <path d="M336 64l-33.6-44.8C293.3 7.1 279.1 0 264 0h-80c-15.1 0-29.3 7.1-38.4 19.2L112 64H24C10.7 64 0 74.7 0 88v2c0 3.3 2.7 6 6 6h26v368c0 26.5 21.5 48 48 48h288c26.5 0 48-21.5 48-48V96h26c3.3 0 6-2.7 6-6v-2c0-13.3-10.7-24-24-24h-88zM184 32h80c5 0 9.8 2.4 12.8 6.4L296 64H152l19.2-25.6c3-4 7.8-6.4 12.8-6.4zm200 432c0 8.8-7.2 16-16 16H80c-8.8 0-16-7.2-16-16V96h320v368zm-176-44V156c0-6.6 5.4-12 12-12h8c6.6 0 12 5.4 12 12v264c0 6.6-5.4 12-12 12h-8c-6.6 0-12-5.4-12-12zm-80 0V156c0-6.6 5.4-12 12-12h8c6.6 0 12 5.4 12 12v264c0 6.6-5.4 12-12 12h-8c-6.6 0-12-5.4-12-12zm160 0V156c0-6.6 5.4-12 12-12h8c6.6 0 12 5.4 12 12v264c0 6.6-5.4 12-12 12h-8c-6.6 0-12-5.4-12-12z"></path>
  </svg>

  <svg id="twitter" viewBox="0 0 512 512">
    <title id="twitter-title">Twitter</title>
    <path d="M459.37 151.716c.325 4.548.325 9.097.325 13.645 0 138.72-105.583 298.558-298.558 298.558-59.452 0-114.68-17.219-161.137-47.106 8.447.974 16.568 1.299 25.34 1.299 49.055 0 94.213-16.568 130.274-44.832-46.132-.975-84.792-31.188-98.112-72.772 6.498.974 12.995 1.624 19.818 1.624 9.421 0 18.843-1.3 27.614-3.573-48.081-9.747-84.143-51.98-84.143-102.985v-1.299c13.969 7.797 30.214 12.67 47.431 13.319-28.264-18.843-46.781-51.005-46.781-87.391 0-19.492 5.197-37.36 14.294-52.954 51.655 63.675 129.3 105.258 216.365 109.807-1.624-7.797-2.599-15.918-2.599-24.04 0-57.828 46.782-104.934 104.934-104.934 30.213 0 57.502 12.67 76.67 33.137 23.715-4.548 46.456-13.32 66.599-25.34-7.798 24.366-24.366 44.833-46.132 57.827 21.117-2.273 41.584-8.122 60.426-16.243-14.292 20.791-32.161 39.308-52.628 54.253z"></path>
  </svg>

  <svg id="link" viewBox="0 0 512 512">
    <title id="link-title">Link</title>
    <path d="M301.148 394.702l-79.2 79.19c-50.778 50.799-133.037 50.824-183.84 0-50.799-50.778-50.824-133.037 0-183.84l79.19-79.2a132.833 132.833 0 0 1 3.532-3.403c7.55-7.005 19.795-2.004 20.208 8.286.193 4.807.598 9.607 1.216 14.384.481 3.717-.746 7.447-3.397 10.096-16.48 16.469-75.142 75.128-75.3 75.286-36.738 36.759-36.731 96.188 0 132.94 36.759 36.738 96.188 36.731 132.94 0l79.2-79.2.36-.36c36.301-36.672 36.14-96.07-.37-132.58-8.214-8.214-17.577-14.58-27.585-19.109-4.566-2.066-7.426-6.667-7.134-11.67a62.197 62.197 0 0 1 2.826-15.259c2.103-6.601 9.531-9.961 15.919-7.28 15.073 6.324 29.187 15.62 41.435 27.868 50.688 50.689 50.679 133.17 0 183.851zm-90.296-93.554c12.248 12.248 26.362 21.544 41.435 27.868 6.388 2.68 13.816-.68 15.919-7.28a62.197 62.197 0 0 0 2.826-15.259c.292-5.003-2.569-9.604-7.134-11.67-10.008-4.528-19.371-10.894-27.585-19.109-36.51-36.51-36.671-95.908-.37-132.58l.36-.36 79.2-79.2c36.752-36.731 96.181-36.738 132.94 0 36.731 36.752 36.738 96.181 0 132.94-.157.157-58.819 58.817-75.3 75.286-2.651 2.65-3.878 6.379-3.397 10.096a163.156 163.156 0 0 1 1.216 14.384c.413 10.291 12.659 15.291 20.208 8.286a131.324 131.324 0 0 0 3.532-3.403l79.19-79.2c50.824-50.803 50.799-133.062 0-183.84-50.802-50.824-133.062-50.799-183.84 0l-79.2 79.19c-50.679 50.682-50.688 133.163 0 183.851z"></path>
  </svg>

  <svg id="unlink" viewBox="0 0 512 512">
    <title id="unlink-title">unlink</title>
    <path d="M207.889 137.235c-4.686-4.686-4.686-12.284 0-16.971l82.159-82.159c50.81-50.813 133.046-50.803 183.848 0 50.812 50.81 50.802 133.048-.001 183.847l-82.159 82.159c-4.686 4.686-12.284 4.686-16.971 0l-8.485-8.485c-4.686-4.686-4.686-12.284 0-16.971l82.159-82.159c36.739-36.741 36.735-96.2 0-132.936-36.741-36.741-96.199-36.736-132.937-.001l-82.159 82.159c-4.686 4.686-12.284 4.686-16.971 0l-8.483-8.483zm-11.391 311.294c-36.65 36.65-96.286 36.651-132.937-.001-36.736-36.736-36.739-96.194 0-132.936l82.19-82.19c4.686-4.686 4.686-12.284 0-16.971l-8.485-8.485c-4.686-4.686-12.284-4.686-16.971 0l-82.19 82.189c-50.802 50.8-50.813 133.038 0 183.848 50.686 50.688 133.162 50.687 183.847 0l82.19-82.19c4.686-4.686 4.686-12.284 0-16.971l-8.484-8.484c-4.686-4.686-12.284-4.686-16.971 0l-82.189 82.191zM11.999 3.515L3.514 12c-4.686 4.686-4.686 12.284 0 16.971L483.03 508.485c4.686 4.686 12.284 4.686 16.971 0l8.485-8.485c4.686-4.686 4.686-12.284 0-16.971L28.97 3.515c-4.686-4.687-12.284-4.687-16.971 0z"></path>
  </svg>

  <svg id="unlock" viewBox="0 0 384 512">
    <title id="unlock-title">unlock</title>
    <path d="M336 256H96v-96c0-70.6 25.4-128 96-128s96 57.4 96 128v20c0 6.6 5.4 12 12 12h8c6.6 0 12-5.4 12-12v-18.5C320 73.1 280.9.3 192.5 0 104-.3 64 71.6 64 160v96H48c-26.5 0-48 21.5-48 48v160c0 26.5 21.5 48 48 48h288c26.5 0 48-21.5 48-48V304c0-26.5-21.5-48-48-48zm16 208c0 8.8-7.2 16-16 16H48c-8.8 0-16-7.2-16-16V304c0-8.8 7.2-16 16-16h288c8.8 0 16 7.2 16 16v160z"></path>
  </svg>

  <svg id="user-check" viewBox="0 0 640 512">
    <title id="user-check-title">User Check</title>
    <path d="M637.7 144.6l-14.1-14.2c-3.1-3.1-8.2-3.2-11.3 0L497.1 242.1l-53.3-53.4c-3.1-3.1-8.2-3.1-11.3 0l-14.2 14.1c-3.1 3.1-3.1 8.2 0 11.3l70.2 70.4c4.7 4.7 12.3 4.7 17 0l132.1-128.6c3.2-3.1 3.2-8.2.1-11.3zM313.6 288c-28.7 0-42.5 16-89.6 16-47.1 0-60.8-16-89.6-16C60.2 288 0 348.2 0 422.4V464c0 26.5 21.5 48 48 48h352c26.5 0 48-21.5 48-48v-41.6c0-74.2-60.2-134.4-134.4-134.4zM416 464c0 8.8-7.2 16-16 16H48c-8.8 0-16-7.2-16-16v-41.6C32 365.9 77.9 320 134.4 320c19.6 0 39.1 16 89.6 16 50.4 0 70-16 89.6-16 56.5 0 102.4 45.9 102.4 102.4V464zM224 256c70.7 0 128-57.3 128-128S294.7 0 224 0 96 57.3 96 128s57.3 128 128 128zm0-224c52.9 0 96 43.1 96 96s-43.1 96-96 96-96-43.1-96-96 43.1-96 96-96z"></path>
  </svg>

  <svg id="user-edit" viewBox="0 0 640 512">
    <title id="user-edit-title">User Edit</title>
    <path d="M224 256c70.7 0 128-57.3 128-128S294.7 0 224 0 96 57.3 96 128s57.3 128 128 128zm0-224c52.9 0 96 43.1 96 96s-43.1 96-96 96-96-43.1-96-96 43.1-96 96-96zm406.6 204.1l-34.7-34.7c-6.3-6.3-14.5-9.4-22.8-9.4-8.2 0-16.5 3.1-22.8 9.4L327.8 424l-7.6 68.2c-1.2 10.7 7.2 19.8 17.7 19.8.7 0 1.3 0 2-.1l68.2-7.6 222.5-222.5c12.5-12.7 12.5-33.1 0-45.7zM393.3 473.7l-39.4 4.5 4.4-39.5 156.9-156.9 35 35-156.9 156.9zm179.5-179.5l-35-35L573 224h.1l.2.1 34.7 35-35.2 35.1zM134.4 320c19.6 0 39.1 16 89.6 16 50.4 0 70-16 89.6-16 20.7 0 39.9 6.3 56 16.9l22.8-22.8c-22.2-16.2-49.3-26-78.8-26-28.7 0-42.5 16-89.6 16-47.1 0-60.8-16-89.6-16C60.2 288 0 348.2 0 422.4V464c0 26.5 21.5 48 48 48h243.5c-2.8-7.4-4.1-15.4-3.2-23.4l1-8.6H48c-8.8 0-16-7.2-16-16v-41.6C32 365.9 77.9 320 134.4 320z"></path>
  </svg>

  <svg id="user-friends" viewBox="0 0 640 512">
    <title id="user-friends-title">User Friends</title>
    <path d="M480 256c53 0 96-43 96-96s-43-96-96-96-96 43-96 96 43 96 96 96zm0-160c35.3 0 64 28.7 64 64s-28.7 64-64 64-64-28.7-64-64 28.7-64 64-64zM192 256c61.9 0 112-50.1 112-112S253.9 32 192 32 80 82.1 80 144s50.1 112 112 112zm0-192c44.1 0 80 35.9 80 80s-35.9 80-80 80-80-35.9-80-80 35.9-80 80-80zm80.1 212c-33.4 0-41.7 12-80.1 12-38.4 0-46.7-12-80.1-12-36.3 0-71.6 16.2-92.3 46.9C7.2 341.3 0 363.4 0 387.2V432c0 26.5 21.5 48 48 48h288c26.5 0 48-21.5 48-48v-44.8c0-23.8-7.2-45.9-19.6-64.3-20.7-30.7-56-46.9-92.3-46.9zM352 432c0 8.8-7.2 16-16 16H48c-8.8 0-16-7.2-16-16v-44.8c0-16.6 4.9-32.7 14.1-46.4 13.8-20.5 38.4-32.8 65.7-32.8 27.4 0 37.2 12 80.2 12s52.8-12 80.1-12c27.3 0 51.9 12.3 65.7 32.8 9.2 13.7 14.1 29.8 14.1 46.4V432zm271.7-114.9C606.4 291.5 577 278 546.8 278c-27.8 0-34.8 10-66.8 10s-39-10-66.8-10c-13.2 0-26.1 3-38.1 8.1 15.2 15.4 18.5 23.6 20.2 26.6 5.7-1.6 11.6-2.6 17.9-2.6 21.8 0 30 10 66.8 10s45-10 66.8-10c21 0 39.8 9.3 50.4 25 7.1 10.5 10.9 22.9 10.9 35.7V408c0 4.4-3.6 8-8 8H416c0 17.7.3 22.5-1.6 32H600c22.1 0 40-17.9 40-40v-37.3c0-19.9-6-38.3-16.3-53.6z"></path>
  </svg>

  <svg id="user-plus" viewBox="0 0 640 512">
    <title id="user-plus-title">User Plus</title>
    <path d="M632 224h-88v-88c0-4.4-3.6-8-8-8h-16c-4.4 0-8 3.6-8 8v88h-88c-4.4 0-8 3.6-8 8v16c0 4.4 3.6 8 8 8h88v88c0 4.4 3.6 8 8 8h16c4.4 0 8-3.6 8-8v-88h88c4.4 0 8-3.6 8-8v-16c0-4.4-3.6-8-8-8zm-318.4 64c-28.7 0-42.5 16-89.6 16-47.1 0-60.8-16-89.6-16C60.2 288 0 348.2 0 422.4V464c0 26.5 21.5 48 48 48h352c26.5 0 48-21.5 48-48v-41.6c0-74.2-60.2-134.4-134.4-134.4zM416 464c0 8.8-7.2 16-16 16H48c-8.8 0-16-7.2-16-16v-41.6C32 365.9 77.9 320 134.4 320c19.6 0 39.1 16 89.6 16 50.4 0 70-16 89.6-16 56.5 0 102.4 45.9 102.4 102.4V464zM224 256c70.7 0 128-57.3 128-128S294.7 0 224 0 96 57.3 96 128s57.3 128 128 128zm0-224c52.9 0 96 43.1 96 96s-43.1 96-96 96-96-43.1-96-96 43.1-96 96-96z"></path>
  </svg>

  <svg id="user-times" viewBox="0 0 640 512">
    <title id="user-times-title">Remove User</title>
    <path d="M582.6 240l55-55c3.1-3.1 3.1-8.2 0-11.3l-11.3-11.3c-3.1-3.1-8.2-3.1-11.3 0l-55 55-55-55c-3.1-3.1-8.2-3.1-11.3 0l-11.3 11.3c-3.1 3.1-3.1 8.2 0 11.3l55 55-55 55c-3.1 3.1-3.1 8.2 0 11.3l11.3 11.3c3.1 3.1 8.2 3.1 11.3 0l55-55 55 55c3.1 3.1 8.2 3.1 11.3 0l11.3-11.3c3.1-3.1 3.1-8.2 0-11.3l-55-55zM224 256c70.7 0 128-57.3 128-128S294.7 0 224 0 96 57.3 96 128s57.3 128 128 128zm0-224c52.9 0 96 43.1 96 96s-43.1 96-96 96-96-43.1-96-96 43.1-96 96-96zm89.6 256c-28.7 0-42.5 16-89.6 16-47.1 0-60.8-16-89.6-16C60.2 288 0 348.2 0 422.4V464c0 26.5 21.5 48 48 48h352c26.5 0 48-21.5 48-48v-41.6c0-74.2-60.2-134.4-134.4-134.4zM416 464c0 8.8-7.2 16-16 16H48c-8.8 0-16-7.2-16-16v-41.6C32 365.9 77.9 320 134.4 320c19.6 0 39.1 16 89.6 16 50.4 0 70-16 89.6-16 56.5 0 102.4 45.9 102.4 102.4V464z"></path>
  </svg>

  <svg id="users" viewBox="0 0 640 512">
    <title id="users-title">Users</title>
    <path d="M544 224c44.2 0 80-35.8 80-80s-35.8-80-80-80-80 35.8-80 80 35.8 80 80 80zm0-128c26.5 0 48 21.5 48 48s-21.5 48-48 48-48-21.5-48-48 21.5-48 48-48zM320 256c61.9 0 112-50.1 112-112S381.9 32 320 32 208 82.1 208 144s50.1 112 112 112zm0-192c44.1 0 80 35.9 80 80s-35.9 80-80 80-80-35.9-80-80 35.9-80 80-80zm244 192h-40c-15.2 0-29.3 4.8-41.1 12.9 9.4 6.4 17.9 13.9 25.4 22.4 4.9-2.1 10.2-3.3 15.7-3.3h40c24.2 0 44 21.5 44 48 0 8.8 7.2 16 16 16s16-7.2 16-16c0-44.1-34.1-80-76-80zM96 224c44.2 0 80-35.8 80-80s-35.8-80-80-80-80 35.8-80 80 35.8 80 80 80zm0-128c26.5 0 48 21.5 48 48s-21.5 48-48 48-48-21.5-48-48 21.5-48 48-48zm304.1 180c-33.4 0-41.7 12-80.1 12-38.4 0-46.7-12-80.1-12-36.3 0-71.6 16.2-92.3 46.9-12.4 18.4-19.6 40.5-19.6 64.3V432c0 26.5 21.5 48 48 48h288c26.5 0 48-21.5 48-48v-44.8c0-23.8-7.2-45.9-19.6-64.3-20.7-30.7-56-46.9-92.3-46.9zM480 432c0 8.8-7.2 16-16 16H176c-8.8 0-16-7.2-16-16v-44.8c0-16.6 4.9-32.7 14.1-46.4 13.8-20.5 38.4-32.8 65.7-32.8 27.4 0 37.2 12 80.2 12s52.8-12 80.1-12c27.3 0 51.9 12.3 65.7 32.8 9.2 13.7 14.1 29.8 14.1 46.4V432zM157.1 268.9c-11.9-8.1-26-12.9-41.1-12.9H76c-41.9 0-76 35.9-76 80 0 8.8 7.2 16 16 16s16-7.2 16-16c0-26.5 19.8-48 44-48h40c5.5 0 10.8 1.2 15.7 3.3 7.5-8.5 16.1-16 25.4-22.4z"></path>
  </svg>
  <svg id="window" viewBox="0 0 512 512">
    <title id="window-title">Window</title>
    <path d="M96 160c-17.7 0-32-14.3-32-32s14.3-32 32-32 32 14.3 32 32-14.3 32-32 32zm128-32c0-17.7-14.3-32-32-32s-32 14.3-32 32 14.3 32 32 32 32-14.3 32-32zm96 0c0-17.7-14.3-32-32-32s-32 14.3-32 32 14.3 32 32 32 32-14.3 32-32zm192-48v352c0 26.5-21.5 48-48 48H48c-26.5 0-48-21.5-48-48V80c0-26.5 21.5-48 48-48h416c26.5 0 48 21.5 48 48zm-32 144H32v208c0 8.8 7.2 16 16 16h416c8.8 0 16-7.2 16-16V224zm0-32V80c0-8.8-7.2-16-16-16H48c-8.8 0-16 7.2-16 16v112h448z"></path>
  </svg>
</svg>
