<svg style="position: absolute; width: 0; height: 0; overflow: hidden;" version="1.1"
  xmlns="http://www.w3.org/2000/svg"
  xmlns:xlink="http://www.w3.org/1999/xlink">
  <defs>
    <!-- NBS logo (no text) -->
    <svg id="symbol" viewBox="0 0 31 32">
      <title>nbs-symbol</title>
      <path d="M17.911-0c-1.238 2.145-1.948 4.634-1.948 7.289 0 1.998 0.401 3.901 1.126 5.634 4.602-0.583 8.534-3.319 10.757-7.172l-9.935-5.752zM12.595 0.001l-9.938 5.75c2.225 3.852 6.156 6.589 10.757 7.172 0.726-1.733 1.127-3.636 1.127-5.633 0-2.657-0.708-5.146-1.947-7.289zM0 10.368v11.498c4.722 0 8.916-2.256 11.572-5.749-2.657-3.495-6.85-5.749-11.572-5.749zM30.505 10.368c-4.722 0-8.916 2.255-11.571 5.749 2.655 3.493 6.849 5.749 11.571 5.749v-11.498zM13.415 19.309c-4.602 0.583-8.532 3.321-10.757 7.172v0.001l9.535 5.518h0.528c1.158-2.092 1.822-4.495 1.822-7.057 0-1.997-0.401-3.9-1.127-5.634zM17.090 19.309c-0.726 1.734-1.127 3.637-1.127 5.635 0 2.56 0.666 4.964 1.822 7.055h0.528l9.535-5.519c-2.223-3.851-6.155-6.589-10.757-7.172z"></path>
    </svg>
    <!-- NBS logo (with text) -->
    <svg id="logo" viewBox="0 0 66 32">
      <title>nbs-logo</title>
      <path d="M60.706 13.289c0 1.212 1.196 1.372 2.564 1.797 1.682 0.52 3.191 1.26 3.191 3.357 0 2.142-1.604 3.435-3.962 3.435-1.115 0-2.482-0.3-3.523-0.866v-2.097c1.149 0.821 2.596 1.183 3.54 1.183 1.132 0 1.948-0.49 1.948-1.545 0-1.263-1.194-1.435-2.673-1.877-1.588-0.487-3.081-1.212-3.081-3.246 0-2.064 1.541-3.309 3.837-3.309 1.102 0 2.421 0.268 3.378 0.835v2.017c-1.13-0.74-2.468-1.071-3.394-1.071-1.071 0-1.825 0.425-1.825 1.386zM57.27 18.301c0 1.071-0.44 2.032-1.494 2.677-0.816 0.503-1.887 0.726-3.52 0.726h-3.178v-11.409h3.177c1.509 0 2.452 0.156 3.223 0.615 0.833 0.488 1.334 1.26 1.334 2.3 0 1.231-0.722 1.985-1.713 2.332v0.032c1.399 0.345 2.17 1.308 2.17 2.726zM54.11 12.359c-0.441-0.252-0.974-0.318-1.982-0.318h-1.052v3.106h1.775c1.102 0 1.964-0.474 1.964-1.543 0-0.601-0.266-0.994-0.706-1.246zM52.914 16.581h-1.84v3.372h1.274c1.18 0 1.824-0.125 2.266-0.408 0.361-0.236 0.658-0.631 0.658-1.292 0-1.102-0.849-1.671-2.358-1.671zM41.298 16.206c-0.657-0.948-1.274-1.844-1.888-2.759l-0.030 0.017c0.030 1.072 0.030 2.238 0.030 3.452v4.789h-1.814v-11.409h1.771l3.834 5.499c0.657 0.945 1.272 1.844 1.887 2.759l0.029-0.015c-0.029-1.073-0.029-2.24-0.029-3.452v-4.791h1.825v11.409h-1.783l-3.833-5.499zM18.798 16c2.636-3.47 6.8-5.708 11.488-5.708v11.417c-4.688 0-8.852-2.24-11.488-5.708zM16.967 12.829c-0.72-1.721-1.118-3.61-1.118-5.594 0-2.636 0.704-5.108 1.934-7.237l9.865 5.711c-2.207 3.825-6.111 6.542-10.68 7.12zM2.638 26.289c2.209-3.823 6.112-6.542 10.681-7.12 0.721 1.722 1.119 3.611 1.119 5.594 0 2.637-0.703 5.109-1.932 7.238l-9.866-5.711zM2.638 5.709l9.866-5.709c1.23 2.128 1.932 4.599 1.932 7.237 0 1.983-0.397 3.872-1.118 5.593-4.569-0.578-8.472-3.295-10.681-7.12zM11.489 16c-2.638 3.468-6.801 5.708-11.489 5.708v-11.417c4.688 0 8.852 2.239 11.489 5.708zM27.648 26.289l-9.867 5.712c-1.228-2.129-1.932-4.601-1.932-7.237 0-1.984 0.398-3.873 1.119-5.595 4.569 0.578 8.474 3.297 10.681 7.12z"></path>
    </svg>

    <!-- General icons -->
    <svg id="filter" viewBox="0 0 66.75 66.25">
      <title>filter</title>
      <path d="M38.22,62.32a4,4,0,0,1-3-1.28L25.88,51.7a4.1,4.1,0,0,1-1.23-3v-17L7.13,14.18A3.93,3.93,0,0,1,6.21,9.6,4,4,0,0,1,10.08,7H57a4,4,0,0,1,3.86,2.54v0a4,4,0,0,1-1,4.62L42.41,31.7V58.12A4,4,0,0,1,39.88,62,4.43,4.43,0,0,1,38.22,62.32ZM10.08,10.73c-.27,0-.34,0-.46.32s-.09.31.08.47L28.35,30.17V48.74a.43.43,0,0,0,.15.35l9.38,9.37a.39.39,0,0,0,.34.16.83.83,0,0,0,.26-.06c.21-.1.23-.16.23-.44V30.17l18.61-18.6c.21-.2.24-.23.12-.54s-.19-.3-.46-.3Z"/>
    </svg>

    <svg id="placeholder" viewBox="0 0 66.75 66.25">
      <title>placeholder</title>
      <path d="M58.49,15l-5.65,6.32a1.68,1.68,0,0,1-1.35.68H31.72v3.62H46.18a1.85,1.85,0,0,1,1.24.5,1.68,1.68,0,0,1,.57,1.3v8.65c0,.53-4.19,1-4.57,1.3s-3.79,4.51-4.24,4.51H31.72V62.27a1.58,1.58,0,0,1-.56,1.19,1.89,1.89,0,0,1-1.3.51,1.71,1.71,0,0,1-1.25-.51,1.67,1.67,0,0,1-.5-1.19V41.89H8.34A1.84,1.84,0,0,1,7,41.33L1.33,35a1.65,1.65,0,0,1,0-2.37L7,26.19a1.84,1.84,0,0,1,1.36-.56H28.11V22H13.65a1.69,1.69,0,0,1-1.3-.56,1.82,1.82,0,0,1-.51-1.25V7.55a1.73,1.73,0,0,1,1.81-1.8H28.11V3.83a1.65,1.65,0,0,1,.5-1.19,1.71,1.71,0,0,1,1.25-.51,1.89,1.89,0,0,1,1.3.51,1.57,1.57,0,0,1,.56,1.19V5.75H51.49a1.82,1.82,0,0,1,1.35.56l5.65,6.33A1.63,1.63,0,0,1,58.49,15ZM44.37,29.24H9.13l-4,4.63,4,4.41H39.81l2.56-2,2-1.09ZM54.65,13.88,50.7,9.36H15.45v9H50.7Zm9.56,34.84A14.1,14.1,0,0,1,50.1,62.82,14.1,14.1,0,0,1,36,48.72,14.12,14.12,0,0,1,50.1,34.61,14.12,14.12,0,0,1,64.21,48.72Zm-1.77,0A12.31,12.31,0,0,0,50.1,36.38,12.33,12.33,0,0,0,37.76,48.72a12,12,0,0,0,3.61,8.76,12.32,12.32,0,0,0,17.47,0A12,12,0,0,0,62.44,48.72Zm-7.27,3.8a1,1,0,0,1,.22.63,1,1,0,0,1-.22.64.81.81,0,0,1-1.26,0l-4.36-4.41h0a.87.87,0,0,1-.28-.66V39.9a.9.9,0,0,1,1.52-.63.89.89,0,0,1,.25.63v8.49ZM50.1,64A15.26,15.26,0,0,1,34.86,48.72,15.24,15.24,0,0,1,50.1,33.48,15.23,15.23,0,0,1,65.34,48.72,15.24,15.24,0,0,1,50.1,64Zm0-26.45A11.18,11.18,0,0,0,38.9,48.72a10.79,10.79,0,0,0,3.28,8,11.17,11.17,0,0,0,15.85,0,10.8,10.8,0,0,0,3.28-8A11.2,11.2,0,0,0,50.1,37.51Zm4.42,17.72a2,2,0,0,1-1.42-.64l-4.4-4.4a2,2,0,0,1-.61-1.47V39.9a2,2,0,0,1,.58-1.43,2.09,2.09,0,0,1,2.87,0,2,2,0,0,1,.58,1.43v8l3.94,3.91a2.13,2.13,0,0,1,0,2.67l-.12.13A2.08,2.08,0,0,1,54.52,55.23Z"/>
    </svg>

    <svg id="plus" viewBox="0 0 66.75 66.25">
      <title>plus</title>
      <path d="M33,2A31,31,0,1,0,64,33,31,31,0,0,0,33,2ZM49.14,35.86a3.63,3.63,0,0,1-2.62,1h-10v10a3.68,3.68,0,1,1-7.35,0v-10h-10a3.68,3.68,0,1,1,0-7.35h10v-10a3.68,3.68,0,1,1,7.35,0v10h10a3.71,3.71,0,0,1,2.62,6.3Z"/>
    </svg>

    <svg id="trash" viewBox="0 0 66.75 66.25">
      <title>trash</title>
      <path d="M60.61,14.23v2.46a1.17,1.17,0,0,1-1.23,1.23H55.69V54.36a8.74,8.74,0,0,1-1.8,5.51,5.37,5.37,0,0,1-4.35,2.33h-32A5.4,5.4,0,0,1,13.23,60a8.38,8.38,0,0,1-1.81-5.44V17.92H7.73A1.18,1.18,0,0,1,6.5,16.69V14.23a1.15,1.15,0,0,1,.35-.88A1.19,1.19,0,0,1,7.73,13H19.6l2.7-6.42a5.34,5.34,0,0,1,2.07-2.42,5.48,5.48,0,0,1,3-1h12.3a5.47,5.47,0,0,1,3,1,5.42,5.42,0,0,1,2.08,2.42L47.51,13H59.38a1.21,1.21,0,0,1,.89.35A1.18,1.18,0,0,1,60.61,14.23ZM26.18,51.13V24.07A1.2,1.2,0,0,0,25,22.84H22.49a1.21,1.21,0,0,0-.89.35,1.18,1.18,0,0,0-.34.88V51.13a1.18,1.18,0,0,0,.34.88,1.21,1.21,0,0,0,.89.35H25a1.2,1.2,0,0,0,1.23-1.23ZM25,13H42.17L40.32,8.51a1.15,1.15,0,0,0-.65-.43H27.48a1.15,1.15,0,0,0-.65.43ZM36,51.13V24.07a1.19,1.19,0,0,0-.35-.88,1.21,1.21,0,0,0-.88-.35H32.33a1.21,1.21,0,0,0-.89.35,1.18,1.18,0,0,0-.34.88V51.13a1.18,1.18,0,0,0,.34.88,1.21,1.21,0,0,0,.89.35h2.46a1.21,1.21,0,0,0,.88-.35A1.19,1.19,0,0,0,36,51.13Zm9.83,0V24.07a1.18,1.18,0,0,0-.34-.88,1.21,1.21,0,0,0-.88-.35H42.17a1.21,1.21,0,0,0-.89.35,1.18,1.18,0,0,0-.34.88V51.13a1.18,1.18,0,0,0,.34.88,1.21,1.21,0,0,0,.89.35h2.46a1.21,1.21,0,0,0,.88-.35A1.18,1.18,0,0,0,45.85,51.13Z"/>
    </svg>

    <svg id="no-content" viewBox="0 0 66.8 66.3" style="enable-background:new 0 0 66.8 66.3;">
      <title>No content</title>
      <style type="text/css">
	      .st0{fill:currentColor;stroke:currentColor;stroke-width:3;stroke-miterlimit:10;}
      </style>
      <g>
        <path d="M54.3,14.7c1.1,1.1,1.6,2.4,1.6,4v38.9c0,1.6-0.5,2.9-1.6,4s-2.4,1.6-4,1.6H16.5c-1.6,0-2.9-0.5-4-1.6s-1.6-2.4-1.6-4V8.9
        c0-1.6,0.5-2.9,1.6-4s2.4-1.6,4-1.6h23.9c1.6,0,2.9,0.5,4,1.6L54.3,14.7z M50.3,59.5c0.5,0,1-0.2,1.3-0.5s0.5-0.8,0.5-1.3V22H40
        c-0.8,0-1.4-0.3-2-0.8s-0.8-1.2-0.8-2V7H16.5c-0.5,0-1,0.2-1.3,0.5s-0.5,0.8-0.5,1.3v48.8c0,0.5,0.2,1,0.5,1.3s0.8,0.5,1.3,0.5
        H50.3z M44.7,30.9c0-0.4-0.1-0.7-0.4-1s-0.6-0.4-1-0.4H23.6c-0.4,0-0.7,0.1-1,0.4s-0.4,0.6-0.4,1v0.9c0,0.4,0.1,0.7,0.4,1
        s0.6,0.4,1,0.4h19.7c0.4,0,0.7-0.1,1-0.4s0.4-0.6,0.4-1V30.9z M44.7,38.4c0-0.4-0.1-0.7-0.4-1s-0.6-0.4-1-0.4H23.6
        c-0.4,0-0.7,0.1-1,0.4s-0.4,0.6-0.4,1v0.9c0,0.4,0.1,0.7,0.4,1s0.6,0.4,1,0.4h19.7c0.4,0,0.7-0.1,1-0.4s0.4-0.6,0.4-1V38.4z
        M44.7,45.9c0-0.4-0.1-0.7-0.4-1s-0.6-0.4-1-0.4H23.6c-0.4,0-0.7,0.1-1,0.4s-0.4,0.6-0.4,1v0.9c0,0.4,0.1,0.7,0.4,1s0.6,0.4,1,0.4
        h19.7c0.4,0,0.7-0.1,1-0.4s0.4-0.6,0.4-1V45.9z M51.6,17.4l-9.8-9.8c-0.2-0.2-0.5-0.4-0.8-0.6v11.3h11.3
        C52,17.9,51.8,17.7,51.6,17.4z"/>
      </g>
      <line class="st0" x1="60" y1="6.8" x2="3.3" y2="63"/>
    </svg>

    <svg id="user-created" viewBox="0 0 66.8 66.3" style="enable-background:new 0 0 66.8 66.3;" xml:space="preserve">
      <title>User created</title>
      <g>
        <path d="M48.5,40.7c2.7,0,5.3,0.7,7.6,2s4.1,3.1,5.4,5.4s2,4.8,2,7.6v3.8c0,1-0.4,1.9-1.1,2.6s-1.6,1.1-2.6,1.1H7.3
          c-1,0-1.9-0.4-2.6-1.1s-1.1-1.6-1.1-2.6v-3.8c0-2.7,0.7-5.3,2-7.6s3.1-4.1,5.4-5.4s4.8-2,7.5-2s4.9,0.1,6.5,0.4
          c0.9,0.2,2,0.4,3.2,0.7c0.9,0.3,1.6,0.5,2.1,0.6c0.9,0.2,2,0.2,3.3,0.2s2.4-0.1,3.3-0.2c0.5-0.1,1.3-0.3,2.1-0.6
          c1.2-0.3,2.2-0.5,3.2-0.7C43.7,40.9,45.8,40.7,48.5,40.7z M48.5,44.5c-2.4,0-4.4,0.1-5.9,0.4c-0.9,0.2-2,0.4-3,0.7
          c-1,0.3-1.8,0.5-2.3,0.6c-1,0.2-2.3,0.2-3.8,0.2s-2.7-0.1-3.8-0.2c-0.5-0.1-1.3-0.3-2.2-0.6c-1.2-0.3-2.2-0.5-3.2-0.7
          c-1.5-0.2-3.4-0.4-5.9-0.4c-3.1,0-5.8,1.1-8,3.3s-3.3,4.8-3.3,8v3.8h52.5v-3.8c0-3.1-1.1-5.8-3.3-8S51.6,44.5,48.5,44.5z M33.5,3.2
          c3,0,5.9,0.8,8.4,2.3s4.6,3.6,6.2,6.2s2.3,5.4,2.3,8.4s-0.8,5.9-2.3,8.4s-3.6,4.6-6.2,6.2S36.5,37,33.5,37s-5.9-0.8-8.4-2.3
          s-4.6-3.6-6.2-6.2s-2.3-5.4-2.3-8.4s0.8-5.9,2.3-8.4s3.6-4.6,6.2-6.2S30.5,3.2,33.5,3.2z M33.5,7c-2.3,0-4.5,0.6-6.6,1.8
          s-3.6,2.8-4.8,4.8s-1.8,4.2-1.8,6.6s0.6,4.5,1.8,6.6s2.8,3.6,4.8,4.8s4.2,1.8,6.6,1.8s4.5-0.6,6.6-1.8s3.6-2.8,4.8-4.8
          s1.8-4.2,1.8-6.6s-0.6-4.5-1.8-6.6s-2.8-3.6-4.8-4.8S35.8,7,33.5,7z"/>
      </g>
    </svg>

    <!-- Insert icons -->
    <svg id="insert-above" viewBox="0 0 66.8 66.3" style="enable-background:new 0 0 66.8 66.3;" xml:space="preserve">
      <style type="text/css">.st0{fill:none;stroke:#888888;stroke-width:3;stroke-miterlimit:10;}.st1{fill:none;stroke:#007d9e;stroke-width:3;stroke-miterlimit:10;}.st2{fill:none;}.st3{enable-background:new;}.st4{fill:#666666;}</style>
      <title>insert-above</title>
      <line class="st0" x1="19.9" y1="14.3" x2="62.7" y2="14.3"/>
      <line class="st1" x1="19.9" y1="32.3" x2="62.7" y2="32.3"/>
      <line class="st0" x1="19.9" y1="52.3" x2="62.7" y2="52.3"/>
      <rect x="11" y="48.2" class="st2" width="41" height="24"/>
      <g class="st3">
        <path class="st4" d="M13.9,15c0,0.4-0.1,0.7-0.4,1l-10,10c-0.3,0.3-0.6,0.4-1,0.4c-0.4,0-0.7-0.1-1-0.4C1.2,25.7,1,25.4,1,25V5
          c0-0.4,0.1-0.7,0.4-1c0.3-0.3,0.6-0.4,1-0.4c0.4,0,0.7,0.1,1,0.4l10,10C13.8,14.3,13.9,14.6,13.9,15z"/>
      </g>
    </svg>

    <svg id="insert-below" viewBox="0 0 66.8 66.3" style="enable-background:new 0 0 66.8 66.3;" xml:space="preserve">
      <style type="text/css">.st0{fill:none;stroke:#888888;stroke-width:3;stroke-miterlimit:10;}.st1{fill:none;stroke:#007d9e;stroke-width:3;stroke-miterlimit:10;}.st2{fill:none;}.st3{enable-background:new;}.st4{fill:#666666;}</style>
      <title>insert-below</title>
      <line class="st0" x1="19.9" y1="14.3" x2="62.7" y2="14.3"/>
      <line class="st1" x1="19.9" y1="32.3" x2="62.7" y2="32.3"/>
      <line class="st0" x1="19.9" y1="52.3" x2="62.7" y2="52.3"/>
      <rect x="11" y="48.2" class="st2" width="41" height="24"/>
      <g class="st3">
        <path class="st4" d="M13.9,52c0,0.4-0.1,0.7-0.4,1l-10,10c-0.3,0.3-0.6,0.4-1,0.4c-0.4,0-0.7-0.1-1-0.4C1.2,62.7,1,62.4,1,62V42
          c0-0.4,0.1-0.7,0.4-1c0.3-0.3,0.6-0.4,1-0.4c0.4,0,0.7,0.1,1,0.4l10,10C13.8,51.3,13.9,51.6,13.9,52z"/>
      </g>
    </svg>

    <svg id="insert-child" viewBox="0 0 66.8 66.3" style="enable-background:new 0 0 66.8 66.3;" xml:space="preserve">
      <style type="text/css">.st0{fill:none;stroke:#888888;stroke-width:6;stroke-miterlimit:10;}.st1{fill:none;stroke:#007d9e;stroke-width:6;stroke-miterlimit:10;}.st2{enable-background:new    ;}.st3{fill:#666666;}</style>
      <title>insert-child</title>
      <line class="st0" x1="19.9" y1="14.3" x2="62.7" y2="14.3"/>
      <line class="st1" x1="19.9" y1="32.3" x2="62.7" y2="32.3"/>
      <line class="st0" x1="36.7" y1="52.3" x2="62.7" y2="52.3"/>
      <g class="st2">
        <path class="st3" d="M13.9,52c0,0.4-0.1,0.7-0.4,1l-10,10c-0.3,0.3-0.6,0.4-1,0.4c-0.4,0-0.7-0.1-1-0.4C1.2,62.7,1,62.4,1,62V42
          c0-0.4,0.1-0.7,0.4-1c0.3-0.3,0.6-0.4,1-0.4c0.4,0,0.7,0.1,1,0.4l10,10C13.8,51.3,13.9,51.6,13.9,52z"/>
      </g>
    </svg>

    <!-- Model / Plugin icons -->
    <svg id="associate" viewBox="0 0 291 242">
      <style>.associate_cls-1{fill:none;stroke:#444;stroke-miterlimit:10;stroke-width:15px;opacity:0.5;}.associate_cls-2{fill:#444;opacity:0.6;}</style>
      <title>associate</title>
      <path class="associate_cls-1" d="M50.78,136.25V69.32l95.74,44v46.94m3.16-47.8,92.59-42.19v65.94m4.31-71.28L146.52,16.57,46.58,64.49M146.52-5.23"/>
      <path class="associate_cls-2" d="M136.67,207.79a35.88,35.88,0,0,1-13.57,17.57A37.31,37.31,0,0,1,101.25,232l-33.86-.31a38.87,38.87,0,0,1-27.75-11.77,39.27,39.27,0,0,1-.07-55.46A37.37,37.37,0,0,1,67,153l34.13-.49a39,39,0,0,1,37.09,25.91l-13.33,0a25.37,25.37,0,0,0-4.27-5.87,26.24,26.24,0,0,0-19.21-8L67.3,165A27.11,27.11,0,0,0,48.16,211.4a26.26,26.26,0,0,0,19.21,8l34.13.58q14.11-.24,21.84-12.23ZM96.12,186.94l104-.4q5.86,0,5.88,6.14t-6.13,5.86l-103.7.13A4.87,4.87,0,0,1,92,197.2a6.32,6.32,0,0,1-1.87-4.27,5.51,5.51,0,0,1,1.73-4.4A5,5,0,0,1,96.12,186.94Zm133.63,44.7-34.66,0a37.57,37.57,0,0,1-27.48-11.5,39.51,39.51,0,0,1-8.81-12.54l13.6.29,3.73,3.73a25.83,25.83,0,0,0,18.94,7.76l34.4.31a27.11,27.11,0,0,0,19.13-46.36,26.24,26.24,0,0,0-19.21-8l-34.12-.58q-15.74.24-23.45,14.36l-13.33,0a39,39,0,0,1,14.11-18.91,37.56,37.56,0,0,1,22.92-7.43l33.86.31a38.84,38.84,0,0,1,27.74,11.77,39.26,39.26,0,0,1,.07,55.45A37.3,37.3,0,0,1,229.75,231.64Z"/>
    </svg>

    <svg id="model-active"
      xmlns="http://www.w3.org/2000/svg" viewBox="0 0 98 97">
      <defs>
        <style>.model-active_cls-1{fill:#fff;}.model-active_cls-2{fill:#007d9e;}</style>
      </defs>
      <title>nimbus-model-iconography</title>
      <g id="Active_association" data-name="Active association">
        <path d="M43.45,8.36a7.26,7.26,0,0,1,5,0l30.5,11.43a7.71,7.71,0,0,1,3.29,2.64,6.73,6.73,0,0,1,1.25,4v33a7,7,0,0,1-1,3.74,6.58,6.58,0,0,1-2.93,2.57L49,80.94a6.84,6.84,0,0,1-6.15,0L12.37,65.69a6.58,6.58,0,0,1-2.93-2.57,7,7,0,0,1-1-3.74v-33a6.73,6.73,0,0,1,1.25-4A7.68,7.68,0,0,1,13,19.79Zm2.5,4.1L13.1,24.78,46,39.15,78.79,24.78ZM13.1,29.91V60.85L43.6,76.1v-33ZM48.29,76.1l30.5-15.25V29.91l-30.5,13.2v33Z"/>
        <circle class="model-active_cls-1" cx="71.5" cy="67" r="22.5"/>
        <path class="model-active_cls-2" d="M89.61,78.08a19.27,19.27,0,0,1-7,6.94,18.9,18.9,0,0,1-19,0,19.24,19.24,0,0,1-6.94-6.94,18.9,18.9,0,0,1,0-19,19.27,19.27,0,0,1,6.94-6.95,18.9,18.9,0,0,1,19,0,19.29,19.29,0,0,1,7,6.95,18.9,18.9,0,0,1,0,19ZM85,64.5a1,1,0,0,0,.38-.85,1,1,0,0,0-.38-.84L83.35,61a1.21,1.21,0,0,0-1.76,0L70.08,72.55l-5.37-5.37a1.22,1.22,0,0,0-1.77,0L61.25,69a1,1,0,0,0-.38.84,1.05,1.05,0,0,0,.38.85l8,8a1.05,1.05,0,0,0,.85.38,1,1,0,0,0,.84-.38Z"/>
      </g>
    </svg>

    <svg id="model-associate" data-name="Associate model"
      xmlns="http://www.w3.org/2000/svg" viewBox="0 0 98 97">
      <defs>
        <style>.model-associate_cls-1{fill:#fff;}.model-associate_cls-2{stroke:#fff;stroke-miterlimit:10;}</style>
      </defs>
      <title>nimbus-model-iconography</title>
      <path d="M43.45,8.36a7.26,7.26,0,0,1,5,0l30.5,11.43a7.71,7.71,0,0,1,3.29,2.64,6.73,6.73,0,0,1,1.25,4v33a7,7,0,0,1-1,3.74,6.58,6.58,0,0,1-2.93,2.57L49,80.94a6.84,6.84,0,0,1-6.15,0L12.37,65.69a6.58,6.58,0,0,1-2.93-2.57,7,7,0,0,1-1-3.74v-33a6.73,6.73,0,0,1,1.25-4A7.68,7.68,0,0,1,13,19.79Zm2.5,4.1L13.1,24.78,46,39.15,78.79,24.78ZM13.1,29.91V60.85L43.6,76.1v-33ZM48.29,76.1l30.5-15.25V29.91l-30.5,13.2v33Z"/>
      <path class="model-associate_cls-1" d="M57.45,54.45S33,65.58,34,76.75L47.25,85.5,86,65.47l-.53-17.95S81.92,40,57.45,54.45Z"/>
      <path class="model-associate_cls-2" d="M73,71.58a13.44,13.44,0,0,1-1.64,6.27A12.93,12.93,0,0,1,67,82.59q-.63.41-5.2,2.77L56.74,88a13.45,13.45,0,0,1-19.6-12.57,13.38,13.38,0,0,1,2.09-6.58,13.18,13.18,0,0,1,5.17-4.7L52,60.2a1.13,1.13,0,0,1,1.32.12,1,1,0,0,1,.36,1.23A14.38,14.38,0,0,0,53,65.16a1.17,1.17,0,0,1-.69.89L46.89,69a7.54,7.54,0,0,0-4,4.66,8,8,0,0,0,5.24,10.12,7.5,7.5,0,0,0,6.11-.57l9.13-4.64a7.72,7.72,0,0,0,3.91-4.7,8,8,0,0,0-.45-6.18,7.69,7.69,0,0,0-1.64-2.13,1.07,1.07,0,0,1-.29-1.3,4.84,4.84,0,0,1,2.27-2.39l.48-.25a1.09,1.09,0,0,1,1.34.22,13.31,13.31,0,0,1,4,9.79ZM85.74,50.26a13.38,13.38,0,0,0-6.58-2.09,13.17,13.17,0,0,0-6.82,1.5l-5.06,2.62q-4.57,2.37-5.2,2.77a12.88,12.88,0,0,0-4.38,4.75,13.37,13.37,0,0,0-1.64,6.27,13.23,13.23,0,0,0,1.49,6.36,13,13,0,0,0,2.54,3.42,1.09,1.09,0,0,0,1.34.23l.48-.25a4.86,4.86,0,0,0,2.27-2.4,1.07,1.07,0,0,0-.29-1.3A7.69,7.69,0,0,1,62.25,70a8,8,0,0,1-.45-6.18,7.67,7.67,0,0,1,3.91-4.69l9.13-4.65A7.5,7.5,0,0,1,81,53.92,8,8,0,0,1,86.19,64a7.51,7.51,0,0,1-4,4.66l-5.45,2.9a1.18,1.18,0,0,0-.69.89,14.54,14.54,0,0,1-.64,3.62,1,1,0,0,0,.36,1.22,1.11,1.11,0,0,0,1.32.12l7.59-3.93a13.15,13.15,0,0,0,5.17-4.69,13.38,13.38,0,0,0,2.09-6.58,13.55,13.55,0,0,0-6.2-12Z"/>
    </svg>

    <svg id="model-manage"
      xmlns="http://www.w3.org/2000/svg" viewBox="0 0 98 97">
      <defs>
        <style>.model-manage_cls-1{fill:#fff;}.model-manage_cls-2{stroke:#fff;stroke-miterlimit:10;}</style>
      </defs>
      <title>nimbus-model-iconography</title>
      <g id="Manage_association" data-name="Manage association">
        <path d="M43.45,8.36a7.26,7.26,0,0,1,5,0l30.5,11.43a7.71,7.71,0,0,1,3.29,2.64,6.73,6.73,0,0,1,1.25,4v33a7,7,0,0,1-1,3.74,6.58,6.58,0,0,1-2.93,2.57L49,80.94a6.84,6.84,0,0,1-6.15,0L12.37,65.69a6.58,6.58,0,0,1-2.93-2.57,7,7,0,0,1-1-3.74v-33a6.73,6.73,0,0,1,1.25-4A7.68,7.68,0,0,1,13,19.79Zm2.5,4.1L13.1,24.78,46,39.15,78.79,24.78ZM13.1,29.91V60.85L43.6,76.1v-33ZM48.29,76.1l30.5-15.25V29.91l-30.5,13.2v33Z"/>
        <path class="model-manage_cls-1" d="M60,61.5s-27,9-24.94,17L46,82.5l38-18v-17S67,37.5,60,61.5Z"/>
        <path class="model-manage_cls-2" d="M93.1,64.21a14.63,14.63,0,0,1-2.3,7.39,15.13,15.13,0,0,1-5.59,5.34,14.72,14.72,0,0,1-7.4,1.86,15,15,0,0,1-7.38-2L48,89a8.09,8.09,0,0,1-7.71-14.23L62.82,62.62a15.39,15.39,0,0,1,2.31-7.28,14.92,14.92,0,0,1,13.05-7,15.26,15.26,0,0,1,7.48,2.17,3.37,3.37,0,0,1,1.74,3,3.46,3.46,0,0,1-.52,1.75,3,3,0,0,1-1.33,1.2l-7.14,4L78,63.52,80.84,65l7.23-3.92a3.2,3.2,0,0,1,1.77-.4,3.63,3.63,0,0,1,1.68.55,3.51,3.51,0,0,1,1.22,1.29A3,3,0,0,1,93.1,64.21ZM82.93,72.82a11.61,11.61,0,0,0,3.18-2.71A10.33,10.33,0,0,0,88,66.5l-7,3.79-8.18-4,1.14-9,7-3.79-.1,0a10.29,10.29,0,0,0-8,.82,9.86,9.86,0,0,0-4,4,11.07,11.07,0,0,0-1.4,5.6l.08,1.47-25,13.55a3.22,3.22,0,0,0-1.62,2,3.35,3.35,0,0,0,4.81,3.9l25-13.56,1.19.87a10.45,10.45,0,0,0,11,.7ZM45.32,80a1.53,1.53,0,0,1,1,.75,1.49,1.49,0,0,1,.1,1.21,1.54,1.54,0,0,1-.74,1,1.6,1.6,0,0,1-1.22.1,1.61,1.61,0,0,1-.31-2.93A1.57,1.57,0,0,1,45.32,80Z"/>
      </g>
    </svg>

    <!-- CLAUSE TYPE ICONS -->
    <svg id="activity" viewBox="0 0 66.75 66.25">
      <title>activity</title>
      <path d="M18.8,14,17,12.2l2.8-2.8,1.8,1.8ZM51,39,49,37l-3,3L48,42ZM29,18,27,16l-3,3L26,21ZM57.81,46,56,44l-2.81,3L55,49ZM22.59,32.38,6.3,16.09,16.39,6,32.68,22.29l2.76-2.76L17.77,1.86a2,2,0,0,0-2.76,0L2.16,14.71a2,2,0,0,0,0,2.76L19.83,35.14Zm29,31.76L64.44,51.29a2,2,0,0,0,0-2.76L46.77,30.86,44,33.62,60.3,49.91,50.21,60,33.92,43.71l-2.76,2.76L48.83,64.14a2,2,0,0,0,2.76,0Zm-30.4-6.58L63.86,14.89a1.93,1.93,0,0,0,0-2.75l-9.7-9.7a1.92,1.92,0,0,0-1.38-.57h0a1.91,1.91,0,0,0-1.37.57L8.74,45.11a1.94,1.94,0,0,0,0,2.75l9.7,9.7a1.92,1.92,0,0,0,1.38.57h0A1.91,1.91,0,0,0,21.19,57.56Zm31.59-51,6.95,7L19.82,53.43l-7-7Zm-32,51.32.64-3.3L11.46,45.1l-3.28.82L3.1,61.38l2.64,2.48Zm-4.37-2.56L8.23,58.56,11,50.18Zm40-36.74-9-9-2.82,2.82,9,9Z"/>
    </svg>

    <svg id="product" viewBox="0 0 66.75 66.25">
      <title>product</title>
      <path d="M27.06,35.71,16.5,46.28a3,3,0,0,1-2.05.91,2.43,2.43,0,0,1-2-.71L2.94,36.94a2.47,2.47,0,0,1-.72-2,3,3,0,0,1,.92-2L13.71,22.35a3,3,0,0,1,2-.91,2.48,2.48,0,0,1,2,.71l9.54,9.54a2.48,2.48,0,0,1,.71,2A3,3,0,0,1,27.06,35.71ZM15.61,24.26,5.05,34.83l9.54,9.54L25.16,33.8ZM44.24,52.89,33.68,63.45a3.07,3.07,0,0,1-2.06.92,2.45,2.45,0,0,1-2-.72l-9.55-9.54a2.49,2.49,0,0,1-.71-2,3.06,3.06,0,0,1,.92-2L30.88,39.53a3,3,0,0,1,2.05-.92,2.49,2.49,0,0,1,2,.71l9.54,9.55a2.46,2.46,0,0,1,.72,2A3,3,0,0,1,44.24,52.89ZM46.08,16.7,35.51,27.26a3,3,0,0,1-2,.92,2.51,2.51,0,0,1-2-.71L22,17.92a2.48,2.48,0,0,1-.71-2,3,3,0,0,1,.92-2.06L32.72,3.34a3,3,0,0,1,2.05-.92,2.47,2.47,0,0,1,2,.72l9.54,9.54a2.47,2.47,0,0,1,.72,2A3,3,0,0,1,46.08,16.7ZM32.79,41.44,22.23,52l9.54,9.54L42.33,51ZM34.63,5.25,24.06,15.81l9.55,9.54L44.17,14.79ZM63.25,33.88,52.69,44.44a3,3,0,0,1-2,.92,2.47,2.47,0,0,1-2-.72L39.13,35.1a2.47,2.47,0,0,1-.72-2,3,3,0,0,1,.92-2.05L49.89,20.52A3,3,0,0,1,52,19.6a2.51,2.51,0,0,1,2,.71l9.54,9.54a2.51,2.51,0,0,1,.71,2A3.07,3.07,0,0,1,63.25,33.88ZM51.8,22.42,41.24,33l9.54,9.54L61.34,32ZM31.45,64.85A2.91,2.91,0,0,1,29.32,64l-9.54-9.54a3,3,0,0,1-.85-2.33A3.48,3.48,0,0,1,20,49.76L30.55,39.2a3.45,3.45,0,0,1,2.36-1.06,2.92,2.92,0,0,1,2.33.85l9.54,9.54a3,3,0,0,1,.85,2.33,3.49,3.49,0,0,1-1.06,2.36L34,63.79a3.48,3.48,0,0,1-2.36,1.05ZM33.1,39.08H33a2.57,2.57,0,0,0-1.74.78L20.65,50.43a2.57,2.57,0,0,0-.78,1.74,2,2,0,0,0,.58,1.61L30,63.32a2,2,0,0,0,1.61.58,2.57,2.57,0,0,0,1.74-.78L43.91,52.55a2.57,2.57,0,0,0,.78-1.74,2,2,0,0,0-.58-1.61l-9.54-9.54A2,2,0,0,0,33.1,39.08ZM31.77,62.21,21.56,52,32.79,40.77,43,51ZM22.9,52l8.87,8.87L41.66,51l-8.87-8.87Zm-8.62-4.33a2.9,2.9,0,0,1-2.13-.86L2.6,37.27A2.92,2.92,0,0,1,1.75,35a3.51,3.51,0,0,1,1.06-2.37L13.37,22A3.51,3.51,0,0,1,15.73,21a2.92,2.92,0,0,1,2.33.86l9.54,9.54a2.93,2.93,0,0,1,.86,2.32,3.56,3.56,0,0,1-1.06,2.37L16.84,46.61a3.53,3.53,0,0,1-2.37,1.06ZM15.93,21.9h-.15a2.53,2.53,0,0,0-1.74.78L3.48,33.25A2.53,2.53,0,0,0,2.7,35a2,2,0,0,0,.57,1.61l9.54,9.55a2,2,0,0,0,1.61.57,2.55,2.55,0,0,0,1.75-.78L26.73,35.38a2.53,2.53,0,0,0,.78-1.74A2,2,0,0,0,26.93,32l-9.54-9.55A2,2,0,0,0,15.93,21.9ZM50.47,45.83A2.91,2.91,0,0,1,48.33,45l-9.54-9.55a2.92,2.92,0,0,1-.85-2.32A3.47,3.47,0,0,1,39,30.75L49.56,20.18a3.53,3.53,0,0,1,2.36-1.06,3,3,0,0,1,2.33.86l9.54,9.54a2.93,2.93,0,0,1,.85,2.33,3.48,3.48,0,0,1-1,2.36L53,44.77a3.49,3.49,0,0,1-2.36,1.06Zm1.64-25.76H52a2.53,2.53,0,0,0-1.74.78L39.67,31.41a2.56,2.56,0,0,0-.79,1.74,2,2,0,0,0,.58,1.62L49,44.31a2,2,0,0,0,1.61.57,2.57,2.57,0,0,0,1.75-.78L62.92,33.54a2.57,2.57,0,0,0,.78-1.74,2,2,0,0,0-.58-1.61l-9.54-9.54A2,2,0,0,0,52.11,20.07ZM14.59,45,4.38,34.83,15.61,23.59,25.83,33.8ZM5.72,34.83l8.87,8.87,9.9-9.9-8.88-8.87ZM50.78,43.2,40.57,33,51.8,21.75,62,32ZM41.91,33l8.87,8.87L60.67,32,51.8,23.09Zm-8.62-4.33a2.9,2.9,0,0,1-2.13-.86l-9.54-9.54a3,3,0,0,1-.86-2.33,3.53,3.53,0,0,1,1.06-2.36L32.38,3A3.51,3.51,0,0,1,34.75,2a2.92,2.92,0,0,1,2.32.85l9.55,9.54a3,3,0,0,1,.85,2.33A3.49,3.49,0,0,1,46.41,17L35.85,27.6a3.5,3.5,0,0,1-2.36,1ZM34.94,2.89h-.15a2.53,2.53,0,0,0-1.74.78L22.49,14.24A2.53,2.53,0,0,0,21.71,16a2,2,0,0,0,.58,1.61l9.54,9.54a2,2,0,0,0,1.61.58,2.57,2.57,0,0,0,1.74-.78L45.74,16.36a2.53,2.53,0,0,0,.78-1.74A2,2,0,0,0,46,13L36.41,3.47A2,2,0,0,0,34.94,2.89ZM33.61,26,23.4,15.81,34.63,4.58,44.84,14.79ZM24.73,15.81l8.88,8.87,9.89-9.89L34.63,5.92Z"/>
    </svg>

    <svg id="system" viewBox="0 0 66.75 66.25">
      <title>system</title>
      <path d="M26,2.31H4.92A3.16,3.16,0,0,0,2.46,3.49a4.08,4.08,0,0,0-1,2.8V60a4.08,4.08,0,0,0,1.05,2.8A3.16,3.16,0,0,0,4.92,64H26a3.21,3.21,0,0,0,2.47-1.18,4.12,4.12,0,0,0,1-2.8V6.29a4.12,4.12,0,0,0-1-2.8A3.21,3.21,0,0,0,26,2.31ZM26,60H4.92V6.29H26ZM64.37,3.49A3.19,3.19,0,0,0,61.9,2.31H40.84a3.17,3.17,0,0,0-2.47,1.18,4.07,4.07,0,0,0-1,2.8V60a4.07,4.07,0,0,0,1,2.8A3.17,3.17,0,0,0,40.84,64H61.9a3.19,3.19,0,0,0,2.47-1.18,4.12,4.12,0,0,0,1-2.8V6.29A4.12,4.12,0,0,0,64.37,3.49ZM61.9,60H40.84V6.29H61.9ZM11.68,17.66a1.84,1.84,0,0,1-.61-1.43v-2a1.89,1.89,0,0,1,.61-1.36,2.13,2.13,0,0,1,1.58-.63h4.39a2.13,2.13,0,0,1,1.58.63,1.89,1.89,0,0,1,.61,1.36v2a1.84,1.84,0,0,1-.61,1.43,2.25,2.25,0,0,1-1.58.56H13.26A2.25,2.25,0,0,1,11.68,17.66Zm1.58,12.5h4.39a2.29,2.29,0,0,0,1.58-.56,1.84,1.84,0,0,0,.61-1.43v-2a1.91,1.91,0,0,0-.61-1.37,2.16,2.16,0,0,0-1.58-.62H13.26a2.16,2.16,0,0,0-1.58.62,1.91,1.91,0,0,0-.61,1.37v2a1.84,1.84,0,0,0,.61,1.43A2.29,2.29,0,0,0,13.26,30.16Zm0,11.94h4.39a2.29,2.29,0,0,0,1.58-.56,1.85,1.85,0,0,0,.61-1.43v-2a1.91,1.91,0,0,0-.61-1.37,2.16,2.16,0,0,0-1.58-.62H13.26a2.16,2.16,0,0,0-1.58.62,1.91,1.91,0,0,0-.61,1.37v2a1.85,1.85,0,0,0,.61,1.43A2.29,2.29,0,0,0,13.26,42.1Zm0,11.93h4.39a2.25,2.25,0,0,0,1.58-.56A1.84,1.84,0,0,0,19.84,52v-2a1.89,1.89,0,0,0-.61-1.36,2.13,2.13,0,0,0-1.58-.63H13.26a2.13,2.13,0,0,0-1.58.63,1.89,1.89,0,0,0-.61,1.36v2a1.84,1.84,0,0,0,.61,1.43A2.25,2.25,0,0,0,13.26,54ZM49.18,18.22h4.38a2.23,2.23,0,0,0,1.58-.56,1.85,1.85,0,0,0,.62-1.43v-2a1.91,1.91,0,0,0-.62-1.36,2.12,2.12,0,0,0-1.58-.63H49.18a2.1,2.1,0,0,0-1.58.63A1.91,1.91,0,0,0,47,14.24v2a1.85,1.85,0,0,0,.62,1.43A2.22,2.22,0,0,0,49.18,18.22Zm0,11.94h4.38a2.28,2.28,0,0,0,1.58-.56,1.85,1.85,0,0,0,.62-1.43v-2a1.93,1.93,0,0,0-.62-1.37,2.15,2.15,0,0,0-1.58-.62H49.18a2.13,2.13,0,0,0-1.58.62A1.93,1.93,0,0,0,47,26.18v2a1.85,1.85,0,0,0,.62,1.43A2.26,2.26,0,0,0,49.18,30.16Zm0,11.94h4.38a2.28,2.28,0,0,0,1.58-.56,1.86,1.86,0,0,0,.62-1.43v-2a1.93,1.93,0,0,0-.62-1.37,2.15,2.15,0,0,0-1.58-.62H49.18a2.13,2.13,0,0,0-1.58.62A1.93,1.93,0,0,0,47,38.12v2a1.86,1.86,0,0,0,.62,1.43A2.26,2.26,0,0,0,49.18,42.1Zm0,11.93h4.38a2.23,2.23,0,0,0,1.58-.56A1.85,1.85,0,0,0,55.76,52v-2a1.91,1.91,0,0,0-.62-1.36,2.12,2.12,0,0,0-1.58-.63H49.18a2.1,2.1,0,0,0-1.58.63A1.91,1.91,0,0,0,47,50.05v2a1.85,1.85,0,0,0,.62,1.43A2.22,2.22,0,0,0,49.18,54Z"/>
    </svg>

    <svg id="system_completion" viewBox="0 0 66.8 66.3" style="enable-background:new 0 0 66.8 66.3;" xml:space="preserve">
      <title>System completion</title>
      <g>
        <path d="M30.1,35.2l18.2,18.2c0.2,0.3,0.4,0.7,0.4,1.1s-0.2,0.8-0.5,1.1c-4.2,3.7-9,5.9-14.4,6.7c-5,0.6-9.9-0.1-14.7-2.3
          s-8.6-5.4-11.5-9.6C4.5,45.8,3,40.8,3,35.2C3,30.4,4.1,26,6.4,22s5.3-7.3,9.3-9.7s8.2-3.9,12.9-4.2c0.4,0,0.8,0.1,1.1,0.4
          s0.5,0.6,0.5,1V35.2z M6.9,35.2c0,4.6,1.2,8.8,3.6,12.5c2.3,3.6,5.3,6.3,9,8.2s7.7,2.8,11.9,2.5c4.4-0.2,8.5-1.6,12.1-4.2
          L26.9,37.4c-0.3-0.3-0.5-0.5-0.5-0.6s-0.1-0.3-0.1-0.7V12.2c-3.6,0.6-6.8,2-9.8,4.2s-5.3,4.9-7,8.2S6.9,31.4,6.9,35.2z M34,5.6
          c0-0.4,0.2-0.7,0.5-1s0.7-0.4,1.1-0.4c4.5,0.2,8.7,1.5,12.5,3.9s6.9,5.4,9.2,9.2s3.6,8,3.9,12.5c0,0.4-0.1,0.8-0.4,1.1
          s-0.6,0.5-1,0.5H34V5.6z M36.9,35.2h25.7c0.4,0,0.7,0.2,1,0.5s0.4,0.7,0.4,1.1c-0.2,3-0.8,5.9-2,8.8s-2.8,5.5-4.8,7.8
          c-0.3,0.3-0.7,0.5-1.1,0.5s-0.8-0.2-1.1-0.5L36.9,35.2z M37.9,8.3v19.1H57c-0.8-4.8-3-9-6.5-12.6S42.7,9.1,37.9,8.3z M55.9,48.7
          c2-2.9,3.4-6.1,4-9.7H46.2L55.9,48.7z"/>
      </g>
    </svg>

    <svg id="update" xmlns="http://www.w3.org/2000/svg" viewBox="0 0 66.75 66.25">
      <title>update</title>
      <path d="M61.57,60.77A8.9,8.9,0,1,1,49,48.19,8.9,8.9,0,1,1,61.57,60.77ZM48.93,39.45a2.4,2.4,0,0,0,.78,1.84A2.69,2.69,0,0,0,51.6,42H59a2.71,2.71,0,0,0,1.9-.72,2.43,2.43,0,0,0,.77-1.84L63.18,9.17a2.78,2.78,0,0,0-.78-1.95,2.51,2.51,0,0,0-1.89-.83H50.05a2.52,2.52,0,0,0-1.9.83,2.78,2.78,0,0,0-.78,2Z" style="fill:#f03800"/>
      <path d="M39.06,51.5A18.49,18.49,0,1,1,26.71,19v7.46a1.39,1.39,0,0,0,1,1.38,1.41,1.41,0,0,0,1.65-.31l9.9-9.9a1.48,1.48,0,0,0,.46-1.08,1.45,1.45,0,0,0-.46-1.07l-9.9-9.91a1.4,1.4,0,0,0-1.65-.3,1.37,1.37,0,0,0-1,1.38V12a25.5,25.5,0,1,0,17,44.76Z"/>
    </svg>

    <svg id="complex" viewBox="0 0 66.8 66.3" style="enable-background:new 0 0 66.8 66.3;" xml:space="preserve">
      <title>Complex</title>
      <g>
        <path d="M59.2,19.1c1.4,0,2.6,0.5,3.7,1.5c1,1,1.5,2.2,1.5,3.7v35.2c0,0.2-0.1,0.4-0.3,0.6c-0.2,0.2-0.4,0.3-0.6,0.3h-1.7
          c-0.2,0-0.4-0.1-0.6-0.3c-0.2-0.2-0.3-0.4-0.3-0.6V24.3c0-0.5-0.2-0.9-0.5-1.2s-0.7-0.5-1.2-0.5H43.7v-12c0-0.5-0.2-0.9-0.5-1.2
          S42.5,8.8,42,8.8H24.8c-0.5,0-0.9,0.2-1.2,0.5s-0.5,0.7-0.5,1.2v12H7.6c-0.5,0-0.9,0.2-1.2,0.5s-0.5,0.7-0.5,1.2v35.2
          c0,0.2-0.1,0.4-0.3,0.6S5.3,60.4,5,60.4H3.3c-0.2,0-0.4-0.1-0.6-0.3s-0.3-0.4-0.3-0.6V24.3c0-1.4,0.5-2.6,1.5-3.7s2.2-1.5,3.7-1.5
          h12v-8.6c0-1.4,0.5-2.6,1.5-3.7s2.2-1.5,3.7-1.5H42c1.4,0,2.6,0.5,3.7,1.5c1,1,1.5,2.2,1.5,3.7v8.6H59.2z M18.4,32.9
          c0.4,0,0.7,0.1,0.9,0.4s0.4,0.6,0.4,0.9v4.3c0,0.4-0.1,0.7-0.4,0.9s-0.6,0.4-0.9,0.4h-4.3c-0.4,0-0.7-0.1-0.9-0.4s-0.4-0.6-0.4-0.9
          v-4.3c0-0.4,0.1-0.7,0.4-0.9s0.6-0.4,0.9-0.4H18.4z M18.4,46.6c0.4,0,0.7,0.1,0.9,0.4s0.4,0.6,0.4,0.9v4.3c0,0.4-0.1,0.7-0.4,0.9
          s-0.6,0.4-0.9,0.4h-4.3c-0.4,0-0.7-0.1-0.9-0.4s-0.4-0.6-0.4-0.9v-4.3c0-0.4,0.1-0.7,0.4-0.9s0.6-0.4,0.9-0.4H18.4z M37.9,17.4
          c0.1,0,0.3,0.1,0.4,0.2c0.1,0.1,0.2,0.3,0.2,0.4v2.1c0,0.1-0.1,0.3-0.2,0.4c-0.1,0.1-0.3,0.2-0.4,0.2h-2.8v2.8
          c0,0.1-0.1,0.3-0.2,0.4c-0.1,0.1-0.3,0.2-0.4,0.2h-2.1c-0.1,0-0.3-0.1-0.4-0.2s-0.2-0.3-0.2-0.4v-2.8h-2.8c-0.1,0-0.3-0.1-0.4-0.2
          s-0.2-0.3-0.2-0.4v-2.1c0-0.1,0.1-0.3,0.2-0.4s0.3-0.2,0.4-0.2h2.8v-2.8c0-0.1,0.1-0.3,0.2-0.4s0.3-0.2,0.4-0.2h2.1
          c0.1,0,0.3,0.1,0.4,0.2c0.1,0.1,0.2,0.3,0.2,0.4v2.8H37.9z M35.5,32.9c0.4,0,0.7,0.1,0.9,0.4c0.3,0.3,0.4,0.6,0.4,0.9v4.3
          c0,0.4-0.1,0.7-0.4,0.9c-0.3,0.3-0.6,0.4-0.9,0.4h-4.3c-0.4,0-0.7-0.1-0.9-0.4S30,38.8,30,38.5v-4.3c0-0.4,0.1-0.7,0.4-0.9
          s0.6-0.4,0.9-0.4H35.5z M35.5,46.6c0.4,0,0.7,0.1,0.9,0.4c0.3,0.3,0.4,0.6,0.4,0.9v4.3c0,0.4-0.1,0.7-0.4,0.9
          c-0.3,0.3-0.6,0.4-0.9,0.4h-4.3c-0.4,0-0.7-0.1-0.9-0.4S30,52.6,30,52.2v-4.3c0-0.4,0.1-0.7,0.4-0.9s0.6-0.4,0.9-0.4H35.5z
          M52.7,32.9c0.4,0,0.7,0.1,0.9,0.4c0.3,0.3,0.4,0.6,0.4,0.9v4.3c0,0.4-0.1,0.7-0.4,0.9c-0.3,0.3-0.6,0.4-0.9,0.4h-4.3
          c-0.4,0-0.7-0.1-0.9-0.4c-0.3-0.3-0.4-0.6-0.4-0.9v-4.3c0-0.4,0.1-0.7,0.4-0.9c0.3-0.3,0.6-0.4,0.9-0.4H52.7z M52.7,46.6
          c0.4,0,0.7,0.1,0.9,0.4c0.3,0.3,0.4,0.6,0.4,0.9v4.3c0,0.4-0.1,0.7-0.4,0.9c-0.3,0.3-0.6,0.4-0.9,0.4h-4.3c-0.4,0-0.7-0.1-0.9-0.4
          c-0.3-0.3-0.4-0.6-0.4-0.9v-4.3c0-0.4,0.1-0.7,0.4-0.9c0.3-0.3,0.6-0.4,0.9-0.4H52.7z"/>
      </g>
    </svg>

    <svg id="element" viewBox="0 0 66.8 66.3" style="enable-background:new 0 0 66.8 66.3;" xml:space="preserve">
      <title>Element</title>
      <style type="text/css">
        .st0{fill:none;stroke:#000000;stroke-width:2;stroke-miterlimit:10;}
      </style>
      <rect x="3" y="11.1" class="st0" width="15.1" height="5.4"/>
      <rect x="25.6" y="11.1" class="st0" width="15.1" height="5.4"/>
      <rect x="47.8" y="11.1" class="st0" width="15.1" height="5.4"/>
      <rect x="14" y="21.1" class="st0" width="15.1" height="5.4"/>
      <rect x="38.6" y="21.1" class="st0" width="15.1" height="5.4"/>
      <rect x="4" y="31.1" class="st0" width="15.1" height="5.4"/>
      <rect x="26.6" y="31.1" class="st0" width="15.1" height="5.4"/>
      <rect x="48.8" y="31.1" class="st0" width="15.1" height="5.4"/>
      <rect x="14" y="41.1" class="st0" width="15.1" height="5.4"/>
      <rect x="38.6" y="41.1" class="st0" width="15.1" height="5.4"/>
      <rect x="4" y="51.1" class="st0" width="15.1" height="5.4"/>
      <rect x="26.6" y="51.1" class="st0" width="15.1" height="5.4"/>
      <rect x="48.8" y="51.1" class="st0" width="15.1" height="5.4"/>
    </svg>

    <svg id="entity" viewBox="0 0 66.8 66.3" style="enable-background:new 0 0 66.8 66.3;" xml:space="preserve">
      <title>Entity</title>
      <style type="text/css">
        .st0{stroke:#000000;stroke-width:4;}
        .st1{fill:none;stroke:#000000;stroke-width:4;}
        .st2{fill:none;stroke:#000000;stroke-width:2;}
        .st3{fill:none;stroke:#000000;}
      </style>
      <path class="st0" d="M9.5,54.4V12.3"/>
      <path class="st0" d="M57.5,54.4V12.3"/>
      <line class="st1" x1="-0.5" y1="38.5" x2="67.2" y2="38.5"/>
      <line class="st2" x1="9.5" y1="21.8" x2="36.3" y2="38.5"/>
      <line class="st2" x1="31.5" y1="38.5" x2="56.7" y2="23"/>
      <line class="st3" x1="14.7" y1="25.1" x2="14.7" y2="37.2"/>
      <line class="st3" x1="52.7" y1="25.4" x2="52.7" y2="37.5"/>
      <line class="st3" x1="20.3" y1="28.3" x2="20.3" y2="40.4"/>
      <line class="st3" x1="47.3" y1="28.3" x2="47.3" y2="40.4"/>
      <line class="st3" x1="25.1" y1="31.6" x2="25.1" y2="37.7"/>
      <line class="st3" x1="42.7" y1="32" x2="42.7" y2="38"/>
    </svg>

    <svg id="execution" viewBox="0 0 66.8 66.3" style="enable-background:new 0 0 66.8 66.3;" xml:space="preserve">
      <title>Execution</title>
      <g>
        <path d="M5,15.9C4.2,19,4.2,22,5,25s2.3,5.6,4.6,7.8s4.8,3.8,7.8,4.6s6,0.8,9.1,0.1L49.1,60c1.8,1.7,3.9,2.6,6.4,2.6
        s4.5-0.9,6.3-2.6s2.6-3.8,2.6-6.3s-0.9-4.6-2.6-6.4L39,24.7c0.9-3,0.9-6.1,0.1-9.1c-0.8-3-2.3-5.6-4.5-7.9
        c-2.2-2.2-4.8-3.8-7.8-4.6s-6-0.8-9-0.1c-0.5,0.1-1,0.3-1.5,0.8c-0.4,0.4-0.7,0.9-0.9,1.5c-0.3,1.2,0,2.2,0.8,3l7.5,7.5L22.8,21
        l-5.1,1l-7.5-7.5c-0.9-0.9-1.9-1.1-3.1-0.8S5.2,14.8,5,15.9z M12.2,30.1c-1.6-1.6-2.8-3.5-3.5-5.7c-0.7-2.1-0.8-4.3-0.4-6.5
        l8.1,8.1l9.7-1.6l1.6-9.7l-8.1-8.1c0.8-0.2,1.6-0.2,2.3-0.2c1.9,0,3.6,0.4,5.3,1.1c1.7,0.7,3.2,1.7,4.5,3c1.9,1.9,3.1,4.1,3.7,6.6
        c0.6,2.5,0.4,5.1-0.4,7.7l-0.4,1.1L59,50c1,1,1.5,2.2,1.5,3.6S60,56.2,59,57.2s-2.2,1.5-3.7,1.5s-2.7-0.5-3.6-1.5L27.6,33l-1.1,0.4
        c-2.6,0.9-5.1,1-7.7,0.4S14.1,32,12.2,30.1z M54.9,51.3c-0.5,0-1,0.2-1.3,0.5c-0.4,0.4-0.5,0.8-0.5,1.3s0.2,1,0.5,1.3
        c0.4,0.4,0.8,0.5,1.3,0.5s1-0.2,1.3-0.5s0.5-0.8,0.5-1.3s-0.2-1-0.5-1.3S55.5,51.3,54.9,51.3z"/>
      </g>
      <g>
        <path d="M52.9,26.2h-8.7L32.4,38.4c1.1,1.7,1.6,3.7,1.4,5.8c-0.2,2.2-1.1,4-2.6,5.6L17.3,64.2c-0.9,0.9-1.9,1.4-3.2,1.4
        s-2.3-0.5-3.2-1.4l-6.3-6.5c-0.9-0.9-1.3-2-1.3-3.3s0.4-2.4,1.3-3.3l13.9-14.4c1.7-1.8,3.8-2.7,6.3-2.7c1.7,0,3.4,0.5,4.9,1.5
        l11.7-12.2v-9L56.7,2.6l7.6,7.9L52.9,26.2z M28.5,47c1-1.1,1.5-2.3,1.5-3.8s-0.5-2.7-1.5-3.7S26.3,38,24.9,38s-2.6,0.5-3.6,1.6
        L7.4,54c-0.2,0.2-0.2,0.3-0.2,0.5s0.1,0.3,0.2,0.4l6.2,6.5c0.2,0.2,0.3,0.2,0.5,0.2s0.3-0.1,0.5-0.2L28.5,47z M45.3,16.4v5.9H51
        l8.3-11.4l-3-3.1L45.3,16.4z"/>
      </g>
    </svg>

    <svg id="system_facility_management" viewBox="0 0 66.8 66.3" style="enable-background:new 0 0 66.8 66.3;" xml:space="preserve">
      <title>System facility management</title>
      <g>
        <path d="M49.3,15.9c2.8,0,5.4,0.7,7.7,2.1s4.2,3.3,5.5,5.7s2.1,5,2.1,7.8c0,2.8-0.7,5.4-2.1,7.8s-3.2,4.3-5.5,5.7s-4.9,2.1-7.7,2.1
          c-3.3,0-6.6-1.3-9.8-3.9c-2.2-1.8-4.3-4.2-6.3-7c-2,2.9-4,5.2-6.3,7c-3.2,2.6-6.4,3.9-9.8,3.9c-2.8,0-5.4-0.7-7.7-2.1
          s-4.2-3.3-5.5-5.7S2,34.3,2,31.5c0-2.8,0.7-5.4,2.1-7.8s3.2-4.3,5.5-5.7s4.9-2.1,7.7-2.1c3.3,0,6.6,1.3,9.8,3.9
          c2.2,1.8,4.3,4.2,6.3,7.1c2-2.9,4-5.3,6.3-7.1C42.7,17.2,45.9,15.9,49.3,15.9z M17.2,42.5c2.9,0,5.7-1.5,8.5-4.4
          c1.8-1.8,3.5-4,4.9-6.5c-1.4-2.5-3.1-4.7-4.9-6.5c-2.8-2.9-5.6-4.4-8.5-4.4c-2,0-3.7,0.5-5.3,1.5s-2.9,2.3-3.8,4s-1.4,3.5-1.4,5.5
          s0.5,3.8,1.4,5.5s2.2,3,3.8,4S15.3,42.5,17.2,42.5z M49.3,42.5c2,0,3.7-0.5,5.3-1.5s2.9-2.3,3.8-4s1.4-3.5,1.4-5.5
          s-0.5-3.8-1.4-5.5s-2.2-3-3.8-4s-3.4-1.5-5.3-1.5c-2.9,0-5.7,1.5-8.5,4.4c-1.8,1.8-3.5,4-4.9,6.5c1.4,2.5,3.1,4.7,4.9,6.5
          C43.6,41,46.4,42.5,49.3,42.5z"/>
      </g>
    </svg>

    <svg id="system_performance" viewBox="0 0 66.8 66.3" style="enable-background:new 0 0 66.8 66.3;" xml:space="preserve">
      <title>System performance</title>
      <g>
        <path d="M60.7,24.5c0.9,2.9,1.4,5.8,1.4,8.8c0,5.2-1.3,10.1-3.9,14.5s-6.2,8-10.6,10.6s-9.3,3.9-14.5,3.9S23,61,18.5,58.4
          s-8-6.2-10.6-10.6S4,38.5,4,33.2s1.3-10.1,3.9-14.5s6.2-8,10.6-10.6s9.3-3.9,14.5-3.9c3,0,5.9,0.5,8.8,1.4l-3,3
          c-2-0.5-3.9-0.7-5.7-0.7c-4.6,0-8.8,1.1-12.7,3.4s-6.9,5.3-9.2,9.2s-3.4,8.1-3.4,12.7s1.1,8.8,3.4,12.7s5.3,6.9,9.2,9.2
          s8.1,3.4,12.7,3.4s8.8-1.1,12.7-3.4s6.9-5.3,9.2-9.2s3.4-8.1,3.4-12.7c0-1.9-0.2-3.8-0.7-5.7L60.7,24.5z M36.2,16l1.1,2.5
          c-1.6-0.5-3-0.7-4.2-0.7c-2.8,0-5.4,0.7-7.7,2.1s-4.2,3.3-5.6,5.6s-2.1,4.9-2.1,7.7s0.7,5.4,2.1,7.7s3.3,4.2,5.6,5.6
          s4.9,2.1,7.7,2.1s5.4-0.7,7.7-2.1s4.2-3.3,5.6-5.6s2.1-4.9,2.1-7.7c0-1.3-0.2-2.7-0.7-4.2l2.5,1.1c0.5,0.2,1.1,0.3,1.8,0.4v0.1
          c0.2,1.2,0.2,2.1,0.2,2.7c0,3.5-0.9,6.7-2.6,9.7s-4,5.3-7,7s-6.2,2.6-9.7,2.6s-6.7-0.9-9.7-2.6s-5.3-4-7-7s-2.6-6.2-2.6-9.7
          s0.9-6.7,2.6-9.7s4-5.3,7-7s6.2-2.6,9.7-2.6c0.6,0,1.5,0.1,2.6,0.2h0.2C35.9,14.9,36,15.5,36.2,16z M33.1,23.9l1.3,0.1l-5.3,5.3
          c-1.1,1.1-1.6,2.4-1.6,4s0.5,2.9,1.6,4s2.4,1.6,4,1.6s2.9-0.5,4-1.6l5.3-5.3l0.1,1.3c0,2.6-0.9,4.8-2.8,6.6s-4,2.8-6.6,2.8
          s-4.8-0.9-6.6-2.8s-2.8-4-2.8-6.6s0.9-4.8,2.8-6.6S30.5,23.9,33.1,23.9z M39.7,14.8c-0.3-0.9-0.1-1.8,0.6-2.5l7.5-7.5
          c0.5-0.5,1-0.7,1.6-0.7s1.1,0.2,1.5,0.5s0.7,0.7,0.9,1.2l2.1,6.6l6.6,2.1c0.9,0.3,1.4,0.9,1.6,1.8s0,1.6-0.6,2.2L53.9,26
          c-0.7,0.7-1.5,0.9-2.5,0.6l-6.2-2.8L34.4,34.5c-0.3,0.4-0.7,0.6-1.3,0.6s-1-0.2-1.3-0.5s-0.5-0.8-0.5-1.3s0.2-1,0.6-1.3l10.8-10.9
          L39.7,14.8z M48.9,9.1l-5.3,5.3l2.6,5.7l5.7,2.6l5.3-5.3L51,15.3l-0.6-1.8L48.9,9.1z"/>
      </g>
    </svg>

    <svg version="1.1" id="location" viewBox="0 0 66.8 66.3" style="enable-background:new 0 0 66.8 66.3;" xml:space="preserve">
      <title>Space location</title>
      <style type="text/css">
        .st0{fill:none;}
        .st1{enable-background:new    ;}
        .st2{fill:none;stroke:#020202;stroke-width:3;stroke-miterlimit:10;}
      </style>
      <rect x="19.8" y="11.3" class="st0" width="48.5" height="45"/>
      <g class="st1">
        <path d="M60.1,27.4c1.7,0.4,3.1,1.2,4.1,2.5s1.6,2.8,1.6,4.5c0,1.1-0.3,2.2-0.8,3.2c-0.5,1-1.2,1.9-2.1,2.5v7.2
          c0,0.8-0.3,1.5-0.9,2c-0.6,0.6-1.2,0.9-2,0.9h-5.8c-0.8,0-1.4-0.3-2-0.9s-0.8-1.2-0.9-2H34.2c-0.1,0.8-0.4,1.5-0.9,2
          c-0.5,0.6-1.2,0.9-2,0.9h-5.8c-0.8,0-1.5-0.3-2-0.9s-0.9-1.2-0.9-2v-7.2c-0.9-0.7-1.6-1.5-2.1-2.5s-0.8-2.1-0.8-3.1
          c0-1.7,0.5-3.3,1.6-4.6s2.5-2.2,4.1-2.5v-3.1c0-2.4,0.8-4.4,2.5-6.1s3.7-2.5,6.1-2.5h17.3c2.4,0,4.4,0.8,6.1,2.5
          c1.7,1.7,2.5,3.7,2.5,6.1V27.4z M31.3,47.4V31.5c0-0.4-0.1-0.7-0.4-1s-0.6-0.4-1-0.4H27c-1.2,0-2.2,0.4-3.1,1.3s-1.3,1.9-1.3,3
          c0,1,0.3,1.9,0.9,2.6c0.4,0.5,1,1,2,1.5v8.8H31.3z M51.5,31.5c0-1.1,0.4-2.1,1.3-3c0.8-0.9,1.9-1.3,3.1-1.3h1.4v-2.9
          c0-1.6-0.6-2.9-1.7-4c-1.1-1.1-2.5-1.7-4-1.7H34.2c-1.6,0-2.9,0.6-4,1.7s-1.7,2.5-1.7,4v2.9h1.4c1.2,0,2.2,0.4,3.1,1.3
          s1.3,1.9,1.3,3V33h17.3V31.5z M51.5,44.5v-8.6H34.2v8.6H51.5z M60.1,38.6c1-0.5,1.6-1.1,2.1-1.6c0.5-0.7,0.8-1.5,0.8-2.5
          c0-1.1-0.4-2.1-1.3-3c-0.8-0.9-1.9-1.3-3.1-1.3h-2.9c-0.4,0-0.8,0.1-1,0.4s-0.4,0.6-0.4,1v15.8h5.8V38.6z"/>
      </g>
      <line class="st2" x1="2.3" y1="50.1" x2="2.3" y2="33"/>
      <line class="st2" x1="15" y1="50.1" x2="15" y2="33"/>
      <line class="st2" x1="0.9" y1="34.9" x2="16.5" y2="34.9"/>
      <g>
        <path d="M14.4,25.3c0.1,0.3,0.1,0.6-0.1,0.9s-0.4,0.4-0.6,0.4h-2.5c0.5,0.5,0.9,1.1,1.1,1.8c0.3,0.7,0.4,1.3,0.4,1.9
          c0,0.7-0.2,1.3-0.7,1.9c-0.1,0.1-0.3,0.3-0.5,0.4s-0.4,0.1-0.7,0.1H6.8c-0.2,0-0.5,0-0.7-0.1s-0.4-0.2-0.5-0.4
          c-0.5-0.6-0.7-1.2-0.7-1.9c0-0.6,0.1-1.2,0.4-1.9c0.3-0.7,0.7-1.3,1.1-1.8H3.9c-0.3,0-0.5-0.2-0.7-0.5s-0.2-0.6,0-1l2.3-5.9
          c0.1-0.2,0.2-0.3,0.3-0.4s0.3-0.2,0.4-0.2h5.6c0.1,0,0.3,0.1,0.4,0.2s0.2,0.3,0.3,0.4L14.4,25.3z M13.4,25.8c0.1,0,0.1,0,0.2-0.1
          s0-0.1,0-0.2l-2-5.9H6.3L4,25.6c0,0.1,0,0.1,0,0.2s0.1,0.1,0.2,0.1H13.4z M11.9,30.4c0-0.6-0.2-1.2-0.6-2c-0.4-0.7-0.8-1.3-1.3-1.7
          H7.7c-0.5,0.4-1,1-1.4,1.7c-0.4,0.7-0.6,1.4-0.6,2c0,0.5,0.2,0.9,0.5,1.3C6.4,31.9,6.5,32,6.8,32h4.1c0.2,0,0.4-0.1,0.5-0.2
          C11.7,31.4,11.9,30.9,11.9,30.4z"/>
      </g>
    </svg>

    <svg id="section_clause" viewBox="0 0 66.75 66.25">
      <title>system</title>
      <path d="M26,2.31H4.92A3.16,3.16,0,0,0,2.46,3.49a4.08,4.08,0,0,0-1,2.8V60a4.08,4.08,0,0,0,1.05,2.8A3.16,3.16,0,0,0,4.92,64H26a3.21,3.21,0,0,0,2.47-1.18,4.12,4.12,0,0,0,1-2.8V6.29a4.12,4.12,0,0,0-1-2.8A3.21,3.21,0,0,0,26,2.31ZM26,60H4.92V6.29H26ZM64.37,3.49A3.19,3.19,0,0,0,61.9,2.31H40.84a3.17,3.17,0,0,0-2.47,1.18,4.07,4.07,0,0,0-1,2.8V60a4.07,4.07,0,0,0,1,2.8A3.17,3.17,0,0,0,40.84,64H61.9a3.19,3.19,0,0,0,2.47-1.18,4.12,4.12,0,0,0,1-2.8V6.29A4.12,4.12,0,0,0,64.37,3.49ZM61.9,60H40.84V6.29H61.9ZM11.68,17.66a1.84,1.84,0,0,1-.61-1.43v-2a1.89,1.89,0,0,1,.61-1.36,2.13,2.13,0,0,1,1.58-.63h4.39a2.13,2.13,0,0,1,1.58.63,1.89,1.89,0,0,1,.61,1.36v2a1.84,1.84,0,0,1-.61,1.43,2.25,2.25,0,0,1-1.58.56H13.26A2.25,2.25,0,0,1,11.68,17.66Zm1.58,12.5h4.39a2.29,2.29,0,0,0,1.58-.56,1.84,1.84,0,0,0,.61-1.43v-2a1.91,1.91,0,0,0-.61-1.37,2.16,2.16,0,0,0-1.58-.62H13.26a2.16,2.16,0,0,0-1.58.62,1.91,1.91,0,0,0-.61,1.37v2a1.84,1.84,0,0,0,.61,1.43A2.29,2.29,0,0,0,13.26,30.16Zm0,11.94h4.39a2.29,2.29,0,0,0,1.58-.56,1.85,1.85,0,0,0,.61-1.43v-2a1.91,1.91,0,0,0-.61-1.37,2.16,2.16,0,0,0-1.58-.62H13.26a2.16,2.16,0,0,0-1.58.62,1.91,1.91,0,0,0-.61,1.37v2a1.85,1.85,0,0,0,.61,1.43A2.29,2.29,0,0,0,13.26,42.1Zm0,11.93h4.39a2.25,2.25,0,0,0,1.58-.56A1.84,1.84,0,0,0,19.84,52v-2a1.89,1.89,0,0,0-.61-1.36,2.13,2.13,0,0,0-1.58-.63H13.26a2.13,2.13,0,0,0-1.58.63,1.89,1.89,0,0,0-.61,1.36v2a1.84,1.84,0,0,0,.61,1.43A2.25,2.25,0,0,0,13.26,54ZM49.18,18.22h4.38a2.23,2.23,0,0,0,1.58-.56,1.85,1.85,0,0,0,.62-1.43v-2a1.91,1.91,0,0,0-.62-1.36,2.12,2.12,0,0,0-1.58-.63H49.18a2.1,2.1,0,0,0-1.58.63A1.91,1.91,0,0,0,47,14.24v2a1.85,1.85,0,0,0,.62,1.43A2.22,2.22,0,0,0,49.18,18.22Zm0,11.94h4.38a2.28,2.28,0,0,0,1.58-.56,1.85,1.85,0,0,0,.62-1.43v-2a1.93,1.93,0,0,0-.62-1.37,2.15,2.15,0,0,0-1.58-.62H49.18a2.13,2.13,0,0,0-1.58.62A1.93,1.93,0,0,0,47,26.18v2a1.85,1.85,0,0,0,.62,1.43A2.26,2.26,0,0,0,49.18,30.16Zm0,11.94h4.38a2.28,2.28,0,0,0,1.58-.56,1.86,1.86,0,0,0,.62-1.43v-2a1.93,1.93,0,0,0-.62-1.37,2.15,2.15,0,0,0-1.58-.62H49.18a2.13,2.13,0,0,0-1.58.62A1.93,1.93,0,0,0,47,38.12v2a1.86,1.86,0,0,0,.62,1.43A2.26,2.26,0,0,0,49.18,42.1Zm0,11.93h4.38a2.23,2.23,0,0,0,1.58-.56A1.85,1.85,0,0,0,55.76,52v-2a1.91,1.91,0,0,0-.62-1.36,2.12,2.12,0,0,0-1.58-.63H49.18a2.1,2.1,0,0,0-1.58.63A1.91,1.91,0,0,0,47,50.05v2a1.85,1.85,0,0,0,.62,1.43A2.22,2.22,0,0,0,49.18,54Z"/>
    </svg>

    <!--
    Font Awesome Pro 5.1.0 by @fontawesome - https://fontawesome.com
    License - https://fontawesome.com/license (Commercial License)
    -->
    <svg id="cube" viewBox="0 0 512 512">
      <path d="M239.1 6.3l-208 78c-18.7 7-31.1 25-31.1 45v225.1c0 18.2 10.3 34.8 26.5 42.9l208 104c13.5 6.8 29.4 6.8 42.9 0l208-104c16.3-8.1 26.5-24.8 26.5-42.9V129.3c0-20-12.4-37.9-31.1-44.9l-208-78C262 2.2 250 2.2 239.1 6.3zM256 68.4l192 72v1.1l-192 78-192-78v-1.1l192-72zm32 356V275.5l160-65v133.9l-160 80z"/>
    </svg>

    <!--
    Font Awesome Pro 5.1.0 by @fontawesome - https://fontawesome.com
    License - https://fontawesome.com/license (Commercial License)
    -->
    <svg id="cubes" viewBox="0 0 512 512">
      <path d="M488.6 250.2L392 214V105.5c0-15-9.3-28.4-23.4-33.7l-100-37.5c-8.1-3.1-17.1-3.1-25.3 0l-100 37.5c-14.1 5.3-23.4 18.7-23.4 33.7V214l-96.6 36.2C9.3 255.5 0 268.9 0 283.9V394c0 13.6 7.7 26.1 19.9 32.2l100 50c10.1 5.1 22.1 5.1 32.2 0l103.9-52 103.9 52c10.1 5.1 22.1 5.1 32.2 0l100-50c12.2-6.1 19.9-18.6 19.9-32.2V283.9c0-15-9.3-28.4-23.4-33.7zM358 214.8l-85 31.9v-68.2l85-37v73.3zM154 104.1l102-38.2 102 38.2v.6l-102 41.4-102-41.4v-.6zm84 291.1l-85 42.5v-79.1l85-38.8v75.4zm0-112l-102 41.4-102-41.4v-.6l102-38.2 102 38.2v.6zm240 112l-85 42.5v-79.1l85-38.8v75.4zm0-112l-102 41.4-102-41.4v-.6l102-38.2 102 38.2v.6z"/>
    </svg>

    <!--
    Font Awesome Pro 5.1.0 by @fontawesome - https://fontawesome.com
    License - https://fontawesome.com/license (Commercial License)
    -->
    <svg id="park" viewBox="0 0 61.4 61">
      <style type="text/css">
        .st0{fill:none;stroke:currentColor;stroke-width:3;stroke-miterlimit:10;}
        .st1{fill:currentColor;}
      </style>
      <title>park</title>
      <circle class="st0" cx="30.8" cy="30.5" r="27.9"/>
      <g>
        <path class="st1" d="M22.9,15.6h8.1c4,0,6.8,0.5,9.1,2c2.3,1.5,3.8,3.8,3.8,7.1c0,3.1-1.4,5.6-3.7,7.1c-2.3,1.6-5.5,2-9.7,2h-5v13
          h-2.6V15.6z M30.9,31.4c4.4,0,6.3-0.6,7.9-1.6c1.6-1.1,2.5-2.8,2.5-5.1c0-2.5-1.1-4.1-2.8-5.2c-1.8-1.2-4-1.5-7.7-1.5h-5.3v13.4
          H30.9z"/>
      </g>
    </svg>

    <!-- Content update icons -->
    <svg version="1.1" id="up-to-here" xmlns="http://www.w3.org/2000/svg" xmlns:xlink="http://www.w3.org/1999/xlink" x="0px" y="0px" viewBox="0 0 50 50" style="enable-background:new 0 0 50 50;" xml:space="preserve">
      <style type="text/css">
        .st0{fill:#FB8B02;}
      </style>
      <g>
        <g>
          <path class="st0" d="M21.17,22.86h-4.41c-0.64,0-1.18-0.22-1.63-0.67c-0.45-0.45-0.67-0.99-0.67-1.63s0.22-1.18,0.67-1.63
            l8.24-8.24c0.45-0.45,0.99-0.67,1.63-0.67s1.18,0.22,1.63,0.67l8.24,8.24c0.45,0.45,0.67,0.99,0.67,1.63s-0.22,1.18-0.67,1.63
            c-0.45,0.45-0.99,0.67-1.63,0.67h-4.41v25.92c0,0.32-0.11,0.59-0.34,0.81c-0.22,0.22-0.49,0.34-0.81,0.34h-5.36
            c-0.32,0-0.59-0.11-0.81-0.34c-0.22-0.22-0.34-0.49-0.34-0.81V22.86z"/>
        </g>
        <path class="st0" d="M11.3,0.4c-0.22,0.22-0.34,0.49-0.34,0.81v5.36c0,0.32,0.11,0.59,0.34,0.81c0.22,0.22,0.49,0.34,0.81,0.34
          h6.85h12.07h6.85c0.32,0,0.59-0.11,0.81-0.34c0.22-0.22,0.34-0.49,0.34-0.81V1.22c0-0.32-0.11-0.59-0.34-0.81
          c-0.22-0.22-0.49-0.34-0.81-0.34h-6.85H18.96h-6.85C11.79,0.07,11.52,0.18,11.3,0.4z"/>
      </g>
    </svg>

    <svg version="1.1" id="out" xmlns="http://www.w3.org/2000/svg" xmlns:xlink="http://www.w3.org/1999/xlink" x="0px" y="0px" viewBox="0 0 50 50" style="enable-background:new 0 0 50 50;" xml:space="preserve">
      <style type="text/css">
        .st0{fill:#FB8B02;}
      </style>
      <g>
        <g>
          <path class="st0" d="M29.36,28.83v4.41c0,0.64-0.22,1.18-0.67,1.63c-0.45,0.45-0.99,0.67-1.63,0.67s-1.18-0.22-1.63-0.67
            l-8.24-8.24c-0.45-0.45-0.67-0.99-0.67-1.63s0.22-1.18,0.67-1.63l8.24-8.24c0.45-0.45,0.99-0.67,1.63-0.67s1.18,0.22,1.63,0.67
            c0.45,0.45,0.67,0.99,0.67,1.63v4.41h12.92c0.32,0,0.59,0.11,0.81,0.34c0.22,0.22,0.34,0.49,0.34,0.81v5.36
            c0,0.32-0.11,0.59-0.34,0.81c-0.22,0.22-0.49,0.34-0.81,0.34H29.36z"/>
        </g>
        <path class="st0" d="M6.9,38.7c0.22,0.22,0.49,0.34,0.81,0.34h5.36c0.32,0,0.59-0.11,0.81-0.34c0.22-0.22,0.34-0.49,0.34-0.81
          v-6.85V18.96v-6.85c0-0.32-0.11-0.59-0.34-0.81c-0.22-0.22-0.49-0.34-0.81-0.34H7.72c-0.32,0-0.59,0.11-0.81,0.34
          c-0.22,0.22-0.34,0.49-0.34,0.81v6.85v12.07v6.85C6.57,38.21,6.68,38.48,6.9,38.7z"/>
      </g>
    </svg>

    <svg version="1.1" id="in" xmlns="http://www.w3.org/2000/svg" xmlns:xlink="http://www.w3.org/1999/xlink" x="0px" y="0px" viewBox="0 0 50 50" style="enable-background:new 0 0 50 50;" xml:space="preserve">
      <style type="text/css">
        .st0{fill:#FB8B02;}
      </style>
      <g>
        <g>
          <path class="st0" d="M20.64,21.17v-4.41c0-0.64,0.22-1.18,0.67-1.63c0.45-0.45,0.99-0.67,1.63-0.67s1.18,0.22,1.63,0.67l8.24,8.24
            c0.45,0.45,0.67,0.99,0.67,1.63s-0.22,1.18-0.67,1.63l-8.24,8.24c-0.45,0.45-0.99,0.67-1.63,0.67s-1.18-0.22-1.63-0.67
            c-0.45-0.45-0.67-0.99-0.67-1.63v-4.41H7.72c-0.32,0-0.59-0.11-0.81-0.34C6.68,28.27,6.57,28,6.57,27.68v-5.36
            c0-0.32,0.11-0.59,0.34-0.81c0.22-0.22,0.49-0.34,0.81-0.34H20.64z"/>
        </g>
        <path class="st0" d="M43.1,11.3c-0.22-0.22-0.49-0.34-0.81-0.34h-5.36c-0.32,0-0.59,0.11-0.81,0.34c-0.22,0.22-0.34,0.49-0.34,0.81
          v6.85v12.07v6.85c0,0.32,0.11,0.59,0.34,0.81c0.22,0.22,0.49,0.34,0.81,0.34h5.36c0.32,0,0.59-0.11,0.81-0.34
          c0.22-0.22,0.34-0.49,0.34-0.81v-6.85V18.96v-6.85C43.43,11.79,43.32,11.52,43.1,11.3z"/>
      </g>
    </svg>

    <svg version="1.1" id="in-and-up-to-here" xmlns="http://www.w3.org/2000/svg" xmlns:xlink="http://www.w3.org/1999/xlink" x="0px" y="0px" viewBox="0 0 50 50" style="enable-background:new 0 0 50 50;" xml:space="preserve">
      <style type="text/css">
        .st0{fill:#FB8B02;}
      </style>
      <g>
        <g>
          <path class="st0" d="M28.57,29.22v18.42c0,0.64-0.22,1.18-0.67,1.63c-0.45,0.45-0.99,0.67-1.63,0.67H7.5
            c-0.51,0-0.86-0.24-1.05-0.72c-0.19-0.48-0.1-0.88,0.29-1.2l5.36-5.36c0.19-0.26,0.45-0.38,0.77-0.38h9.05V29.22H28.57z"/>
        </g>
        <g>
          <g>
            <path class="st0" d="M28.83,48.78c0,0.32-0.11,0.59-0.34,0.81c-0.22,0.22-0.49,0.34-0.81,0.34h-5.36c-0.32,0-0.59-0.11-0.81-0.34
              c-0.22-0.22-0.34-0.49-0.34-0.81V22.86h-4.41c-0.64,0-1.18-0.22-1.63-0.67c-0.45-0.45-0.67-0.99-0.67-1.63s0.22-1.18,0.67-1.63
              l8.24-8.24c0.45-0.45,0.99-0.67,1.63-0.67s1.18,0.22,1.63,0.67l8.24,8.24c0.45,0.45,0.67,0.99,0.67,1.63s-0.22,1.18-0.67,1.63
              c-0.45,0.45-0.99,0.67-1.63,0.67h-4.41V48.78z"/>
          </g>
          <path class="st0" d="M38.7,0.4c0.22,0.22,0.34,0.49,0.34,0.81v5.36c0,0.32-0.11,0.59-0.34,0.81c-0.22,0.22-0.49,0.34-0.81,0.34
            h-6.85H18.96h-6.85c-0.32,0-0.59-0.11-0.81-0.34c-0.22-0.22-0.34-0.49-0.34-0.81V1.22c0-0.32,0.11-0.59,0.34-0.81
            c0.22-0.22,0.49-0.34,0.81-0.34h6.85h12.07h6.85C38.21,0.07,38.48,0.18,38.7,0.4z"/>
        </g>
      </g>
    </svg>

    <svg version="1.1" id="in-and-down-to-here" xmlns="http://www.w3.org/2000/svg" xmlns:xlink="http://www.w3.org/1999/xlink" x="0px" y="0px" viewBox="0 0 50 50" style="enable-background:new 0 0 50 50;" xml:space="preserve">
      <style type="text/css">
        .st0{fill:#FB8B02;}
      </style>
      <g>
        <g>
          <path class="st0" d="M21.91,20.78V7.73h-9.05c-0.32,0-0.57-0.13-0.77-0.38L6.73,1.98c-0.38-0.32-0.48-0.72-0.29-1.2
            C6.64,0.31,6.99,0.07,7.5,0.07h18.77c0.64,0,1.18,0.22,1.63,0.67c0.45,0.45,0.67,0.99,0.67,1.63v18.42H21.91z"/>
        </g>
        <g>
          <g>
            <path class="st0" d="M28.83,27.14h4.41c0.64,0,1.18,0.22,1.63,0.67c0.45,0.45,0.67,0.99,0.67,1.63s-0.22,1.18-0.67,1.63
              l-8.24,8.24c-0.45,0.45-0.99,0.67-1.63,0.67s-1.18-0.22-1.63-0.67l-8.24-8.24c-0.45-0.45-0.67-0.99-0.67-1.63
              s0.22-1.18,0.67-1.63c0.45-0.45,0.99-0.67,1.63-0.67h4.41V1.22c0-0.32,0.11-0.59,0.34-0.81c0.22-0.22,0.49-0.34,0.81-0.34h5.36
              c0.32,0,0.59,0.11,0.81,0.34c0.22,0.22,0.34,0.49,0.34,0.81V27.14z"/>
          </g>
          <path class="st0" d="M38.7,49.6c0.22-0.22,0.34-0.49,0.34-0.81v-5.36c0-0.32-0.11-0.59-0.34-0.81c-0.22-0.22-0.49-0.34-0.81-0.34
            h-6.85H18.96h-6.85c-0.32,0-0.59,0.11-0.81,0.34c-0.22,0.22-0.34,0.49-0.34,0.81v5.36c0,0.32,0.11,0.59,0.34,0.81
            c0.22,0.22,0.49,0.34,0.81,0.34h6.85h12.07h6.85C38.21,49.93,38.48,49.82,38.7,49.6z"/>
        </g>
      </g>
    </svg>

    <svg version="1.1" id="down-to-here" xmlns="http://www.w3.org/2000/svg" xmlns:xlink="http://www.w3.org/1999/xlink" x="0px" y="0px" viewBox="0 0 50 50" style="enable-background:new 0 0 50 50;" xml:space="preserve">
      <style type="text/css">
        .st0{fill:#FB8B02;}
      </style>
      <g>
        <g>
          <path class="st0" d="M28.83,27.14h4.41c0.64,0,1.18,0.22,1.63,0.67c0.45,0.45,0.67,0.99,0.67,1.63s-0.22,1.18-0.67,1.63
            l-8.24,8.24c-0.45,0.45-0.99,0.67-1.63,0.67s-1.18-0.22-1.63-0.67l-8.24-8.24c-0.45-0.45-0.67-0.99-0.67-1.63s0.22-1.18,0.67-1.63
            c0.45-0.45,0.99-0.67,1.63-0.67h4.41V1.22c0-0.32,0.11-0.59,0.34-0.81c0.22-0.22,0.49-0.34,0.81-0.34h5.36
            c0.32,0,0.59,0.11,0.81,0.34c0.22,0.22,0.34,0.49,0.34,0.81V27.14z"/>
        </g>
        <path class="st0" d="M38.7,49.6c0.22-0.22,0.34-0.49,0.34-0.81v-5.36c0-0.32-0.11-0.59-0.34-0.81c-0.22-0.22-0.49-0.34-0.81-0.34
          h-6.85H18.96h-6.85c-0.32,0-0.59,0.11-0.81,0.34c-0.22,0.22-0.34,0.49-0.34,0.81v5.36c0,0.32,0.11,0.59,0.34,0.81
          c0.22,0.22,0.49,0.34,0.81,0.34h6.85h12.07h6.85C38.21,49.93,38.48,49.82,38.7,49.6z"/>
      </g>
    </svg>

    <svg version="1.1" id="out-down-here" xmlns="http://www.w3.org/2000/svg" xmlns:xlink="http://www.w3.org/1999/xlink" x="0px" y="0px"
      viewBox="0 0 50 50" style="enable-background:new 0 0 50 50;" xml:space="preserve">
      <style type="text/css">
        .st0{fill:#FB8B02;}
      </style>
      <g>
        <g>
          <path class="st0" d="M28.4,20.8V7.7h9c0.3,0,0.6-0.1,0.8-0.4L43.5,2c0.4-0.3,0.5-0.7,0.3-1.2c-0.2-0.5-0.5-0.7-1.1-0.7H24
            c-0.6,0-1.2,0.2-1.6,0.7c-0.5,0.5-0.7,1-0.7,1.6v18.4L28.4,20.8L28.4,20.8z"/>
        </g>
        <g>
          <g>
            <path class="st0" d="M21.4,27.1H17c-0.6,0-1.2,0.2-1.6,0.7s-0.7,1-0.7,1.6s0.2,1.2,0.7,1.6l8.2,8.2c0.5,0.5,1,0.7,1.6,0.7
              s1.2-0.2,1.6-0.7l8.2-8.2c0.5-0.5,0.7-1,0.7-1.6s-0.2-1.2-0.7-1.6c-0.5-0.5-1-0.7-1.6-0.7h-4.4V1.2c0-0.3-0.1-0.6-0.3-0.8
              c-0.2-0.2-0.5-0.3-0.8-0.3h-5.4c-0.3,0-0.6,0.1-0.8,0.3c-0.2,0.2-0.3,0.5-0.3,0.8V27.1z"/>
          </g>
          <path class="st0" d="M11.6,49.6c-0.2-0.2-0.3-0.5-0.3-0.8v-5.4c0-0.3,0.1-0.6,0.3-0.8c0.2-0.2,0.5-0.3,0.8-0.3h6.9h12.1h6.9
            c0.3,0,0.6,0.1,0.8,0.3c0.2,0.2,0.3,0.5,0.3,0.8v5.4c0,0.3-0.1,0.6-0.3,0.8c-0.2,0.2-0.5,0.3-0.8,0.3h-6.9H19.2h-6.8
            C12.1,49.9,11.8,49.8,11.6,49.6z"/>
        </g>
      </g>
    </svg>

    <svg version="1.1" id="out-up-here" xmlns="http://www.w3.org/2000/svg" xmlns:xlink="http://www.w3.org/1999/xlink" x="0px" y="0px"
      viewBox="0 0 50 50" style="enable-background:new 0 0 50 50;" xml:space="preserve">
      <style type="text/css">
        .st0{fill:#FB8B02;}
      </style>
      <g>
        <g>
          <path class="st0" d="M20.8,29.2v18.4c0,0.6,0.2,1.2,0.7,1.6s1,0.7,1.6,0.7h18.8c0.5,0,0.9-0.2,1.1-0.7c0.2-0.5,0.1-0.9-0.3-1.2
            l-5.4-5.4c-0.2-0.3-0.5-0.4-0.8-0.4h-9.1V29.2H20.8z"/>
        </g>
        <g>
          <g>
            <path class="st0" d="M20.6,48.8c0,0.3,0.1,0.6,0.3,0.8c0.2,0.2,0.5,0.3,0.8,0.3h5.4c0.3,0,0.6-0.1,0.8-0.3
              c0.2-0.2,0.3-0.5,0.3-0.8V22.9h4.4c0.6,0,1.2-0.2,1.6-0.7c0.4-0.5,0.7-1,0.7-1.6s-0.2-1.2-0.7-1.6L26,10.7
              c-0.5-0.4-1-0.7-1.6-0.7s-1.2,0.2-1.6,0.7l-8.2,8.2c-0.5,0.5-0.7,1-0.7,1.6s0.2,1.2,0.7,1.6c0.5,0.5,1,0.7,1.6,0.7h4.4
              C20.6,22.9,20.6,48.8,20.6,48.8z"/>
          </g>
          <path class="st0" d="M10.7,0.4c-0.2,0.2-0.3,0.5-0.3,0.8v5.4c0,0.3,0.1,0.6,0.3,0.8c0.2,0.2,0.5,0.3,0.8,0.3h6.9h12.1h6.9
            c0.3,0,0.6-0.1,0.8-0.3c0.2-0.2,0.3-0.5,0.3-0.8V1.2c0-0.3-0.1-0.6-0.3-0.8c-0.2-0.2-0.5-0.3-0.8-0.3h-6.9H18.4h-6.8
            C11.2,0.1,10.9,0.2,10.7,0.4z"/>
        </g>
      </g>
    </svg>

    <svg version="1.1" id="out-down" xmlns="http://www.w3.org/2000/svg" xmlns:xlink="http://www.w3.org/1999/xlink" x="0px" y="0px"
      viewBox="0 0 50 50" style="enable-background:new 0 0 50 50;" xml:space="preserve">
      <style type="text/css">
        .st0{fill:#FB8B02;}
      </style>
      <g>
        <g>
          <path class="st0" d="M28.4,20.8V7.7h9c0.3,0,0.6-0.1,0.8-0.4L43.5,2c0.4-0.3,0.5-0.7,0.3-1.2s-0.5-0.7-1.1-0.7H24
            c-0.6,0-1.2,0.2-1.6,0.7c-0.5,0.5-0.7,1-0.7,1.6v18.4H28.4L28.4,20.8z"/>
        </g>
        <g>
          <g>
            <path class="st0" d="M21.4,37.1H17c-0.6,0-1.2,0.2-1.6,0.7s-0.7,1-0.7,1.6s0.2,1.2,0.7,1.6l8.2,8.2c0.5,0.5,1,0.7,1.6,0.7
              s1.2-0.2,1.6-0.7L35,41c0.5-0.5,0.7-1,0.7-1.6c0-0.6-0.2-1.2-0.7-1.6c-0.5-0.5-1-0.7-1.6-0.7H29V1.2c0-0.3-0.1-0.6-0.3-0.8
              c-0.2-0.2-0.5-0.3-0.8-0.3h-5.4c-0.3,0-0.6,0.1-0.8,0.3c-0.2,0.2-0.3,0.5-0.3,0.8C21.4,1.2,21.4,37.1,21.4,37.1z"/>
          </g>
        </g>
      </g>
    </svg>

    <svg version="1.1" id="out-up" xmlns="http://www.w3.org/2000/svg" xmlns:xlink="http://www.w3.org/1999/xlink" x="0px" y="0px"
      viewBox="0 0 50 50" style="enable-background:new 0 0 50 50;" xml:space="preserve">
      <style type="text/css">
        .st0{fill:#FB8B02;}
      </style>
      <g>
        <g>
          <path class="st0" d="M20.8,19.2v28.4c0,0.6,0.2,1.2,0.7,1.6s1,0.7,1.6,0.7h18.8c0.5,0,0.9-0.2,1.1-0.7c0.2-0.5,0.1-0.9-0.3-1.2
            l-5.4-5.4c-0.2-0.3-0.5-0.4-0.8-0.4h-9.1v-23H20.8z"/>
        </g>
        <g>
          <g>
            <path class="st0" d="M20.6,48.8c0,0.3,0.1,0.6,0.3,0.8c0.2,0.2,0.5,0.3,0.8,0.3h5.4c0.3,0,0.6-0.1,0.8-0.3
              c0.2-0.2,0.3-0.5,0.3-0.8V12.9h4.4c0.6,0,1.2-0.2,1.6-0.7c0.4-0.5,0.7-1,0.7-1.6S34.7,9.4,34.2,9L26,0.7C25.5,0.3,25,0,24.4,0
              s-1.2,0.2-1.6,0.7l-8.2,8.2c-0.5,0.5-0.7,1-0.7,1.6s0.2,1.2,0.7,1.6c0.5,0.5,1,0.7,1.6,0.7h4.4C20.6,12.9,20.6,48.8,20.6,48.8z"
              />
          </g>
        </g>
      </g>
    </svg>
  </defs>
</svg>
